<svg xmlns="http://www.w3.org/2000/svg" width="2732" height="2732" viewBox="0 0 2732 2732">
  <rect width="2732" height="2732" fill="#103b5c"/>
  <g transform="translate(1366 1366) scale(13) translate(-32 -34)">
  <path d="M12 58V30C12 18.95 20.95 10 32 10s20 8.95 20 20v28" fill="none" stroke="#ffffff" stroke-width="4" stroke-linecap="round"/>
  <rect x="17" y="30" width="7" height="28" rx="1.5" fill="#8fd3ce"/>
  <path d="M17 30l3.5-8 3.5 8z" fill="#8fd3ce"/>
  <path d="M27 58V44c0-6.08 4.92-11 11-11s11 4.92 11 11v14z" fill="#ffffff"/>
  <path d="M34.5 58v-8a3.5 3.5 0 0 1 7 0v8z" fill="#103b5c"/>
  <circle cx="38" cy="28" r="2.2" fill="#ead9a6"/>
  <rect x="37.3" y="30" width="1.4" height="3" fill="#ead9a6"/>
  </g>
</svg>
