<svg xmlns="http://www.w3.org/2000/svg" xmlns:xlink="http://www.w3.org/1999/xlink" version="1.1"><metadata>Created by FontForge 20170731 at Sat Mar 3 22:04:05 2012 By Aleksey,,, Copyright (c) 2011 by Muhammet Abay. All rights reserved.</metadata><defs><font id="ShaikhHamdullahMushaf" horiz-adv-x="0"><font-face ascent="800" bbox="-819 -688 6227.6 1250.04" descent="-200" font-family="Shaikh Hamdullah Mushaf" font-stretch="normal" font-weight="400" panose-1="3 2 5 0 0 0 0 2 0 4" underline-position="-150" underline-thickness="50" unicode-range="U+0020-FEFF" units-per-em="1000"/><glyph d="M135 350q14 0 22 -7t8 -21q0 -11 -4 -18.5t-12 -18.5q-7 11 -15 15.5t-19 4.5q-8 0 -17.5 -10t-9.5 -18q0 -7 17 -16.5t37 -13.5q19 5 38.5 9t39.5 9l-26 -53q-19 -2 -60.5 -10.5t-104.5 -34.5l11 28q21 13 42 24q-20 12 -26.5 20.5t-6.5 21.5q0 12 9 27t22 29t28 23.5 t27 9.5zM-16 78h366v-78h-366v78z" glyph-name="hamza.tatweel" horiz-adv-x="350" unicode="ـٔ"/><glyph d="M175 -471q-1 -1 -3 -1q-17 1 -28.5 7.5t-20 22.5t-15.5 43.5t-14 69.5q-4 24 -4.5 45t0.5 28q3 25 7.5 39t15.5 18q1 -4 2 -10t3 -16q-8 -6 -11.5 -14.5t-3.5 -23.5q0 -91 22 -132.5t49 -43.5q4 1 6.5 2t5.5 3.5t6.5 7.5t9.5 15q6 14 9 17.5t5 3.5q5 0 9 -0.5t14 -5.5 q17 -17 29.5 -24t26.5 -7q27 4 40.5 12.5t19.5 17t7.5 15t3.5 6.5t2 -7q0 -5 -1.5 -9t-1.5 -16q1 0 1.5 -0.5t1.5 -0.5q27 0 38.5 7.5t15.5 17.5t5.5 19t10.5 12q0 -1 1 -2.5t1 -6.5q0 -3 -1.5 -8.5t-1.5 -7.5q0 -8 6 -9.5t11 -1.5h9t8 4q-1 8 -3 9t-2 4q0 2 2.5 13t4.5 14 q-1 1 -1 2t2 1q3 0 5 -4.5t3.5 -10.5t2 -11.5t0.5 -7.5q0 -25 -9.5 -37t-22.5 -12q-10 0 -24 11q-4 -12 -20.5 -21t-36.5 -9q-15 0 -22 4q-10 -10 -23.5 -12t-27.5 -7q-7 0 -8 -1q-11 2 -20 4.5t-16 7.5q0 -7 -2 -12t-13 -5q-9 0 -24.5 5.5t-20.5 11.5q-5 -8 -10.5 -15.5 t-9.5 -7.5zM88 -433q3 -9 3 -17q0 -15 -6.5 -18.5t-26.5 -9.5q-27 -8 -34.5 -14t-9.5 -20q2 -6 8.5 -24t13.5 -39.5t12.5 -43.5t5.5 -36q0 -4 -2.5 -8.5t-3.5 -5.5q-2 0 -9 19t-15 44.5t-15 50.5t-8 38q0 5 -0.5 8.5t-0.5 7.5q0 12 2 18.5t6.5 11t11.5 9.5t17 15 q-5 0 -12 -1.5t-11 -10.5q-2 2 -6 7.5t-4 8.5l2.5 10t4.5 11.5t8.5 9.5t14.5 4q15 0 31.5 -8.5t22.5 -16.5zM549 -408q1 -1 1 -10q0 -6 -2 -12t-5 -6t-9 22t-12.5 50t-12 55t-7.5 37q-2 11 -4.5 18t-2.5 10q0 15 1.5 25.5t5.5 10.5q1 0 1.5 -3t3 -13.5t7 -30.5t12.5 -54 q8 -32 13 -56.5t10 -42.5zM443 -288l-0.5 -4t-1.5 -9t-3 -9.5t-5 -4.5q-1 0 -10.5 6.5t-11.5 11.5q0 -1 2.5 8.5t2.5 17.5q25 -6 27 -17zM403 -298q-3 -3 -4.5 -14.5t-5.5 -11.5q-2 0 -7 3.5t-14 8.5q0 12 2 21.5t7 9.5q12 -7 16 -8t6 -9zM411 -252q0 -2 -6 -27 q-5 0 -15 6.5t-10 9.5t3.5 14.5t6.5 11.5q8 0 14.5 -5t6.5 -10zM243 -430q-11 23 -23 24q-5 -1 -6.5 -5.5t-2.5 -9.5q6 -2 12.5 -4.5t19.5 -4.5z" glyph-name="ishmaam" unicode="ۭۖ"/><glyph d="M170 -478q-13 1 -24.5 5.5t-22 22t-22 52.5t-24.5 97q-3 13 -4.5 25t-1.5 21q0 44 18 52q2 -4 4 -10.5t4 -16.5q-8 -8 -9.5 -13.5t-1.5 -11.5q0 -56 9.5 -92.5t22.5 -58t27 -30.5t23 -9q4 0 10 2t12 5t10.5 6t5.5 4q-23 14 -27 32q0 34 11 56.5t36 22.5q7 0 15.5 -2.5 t16 -6t12.5 -6.5t5 -4q0 -2 -5 -2q-7 0 -13.5 0.5t-13.5 0.5q-5 -2 -13 -6t-16 -8.5t-14.5 -10t-7.5 -9.5q3 -8 18.5 -18t29.5 -10q9 0 16.5 4t15 10.5t17 14.5t23.5 15q3 0 3 -10q0 -22 -35 -48.5t-102 -62.5q-4 -2 -8 -2zM87 -444q3 -15 3 -20q0 -14 -11 -20t-25 -11 t-26 -12t-13 -23q3 -8 11.5 -30t18 -46t16.5 -43.5t7 -22.5q0 -8 -1 -10t-5 -6q-3 0 -11.5 19t-18.5 44.5t-18.5 50.5t-11.5 38q-1 5 -1.5 8.5t-0.5 5.5q0 17 2 25t6.5 12.5t11 9t15.5 14.5q-9 -2 -13 -3.5t-12 -11.5q-2 2 -5.5 7t-3.5 6q0 15 3.5 23t17.5 17q18 0 35.5 -5 t29.5 -16zM432 -393q0 -9 2 -9q-6 -23 -21 -40t-55 -17q-11 0 -17 10.5t-6 24.5q1 7 6 7q2 -2 5 -3.5t11 -1.5q5 0 15.5 3.5t20.5 8t17.5 9.5t7.5 7q-1 4 -7.5 12t-15.5 15.5t-18.5 13t-16.5 5.5q-2 -1 -4 -3t-4 -2q-4 0 -6.5 9t-2.5 13q0 9 5 16t14 7t19.5 -8.5t20.5 -21 t18 -27.5t12 -28zM492 -397q1 -1 1 -13q0 -8 -2.5 -13t-3.5 -5q-3 0 -8.5 15t-12.5 38t-14.5 49.5t-14 49.5t-11 38t-5.5 15v-2q0 3 1 12.5t8 14.5q2 0 4.5 -9.5t8.5 -32t17.5 -61t31.5 -96.5zM209 -237q-2 -14 -4 -19t-9 -5q-8 0 -16.5 3.5t-8.5 5.5q0 6 3.5 17t7.5 13 q4 0 15.5 -3.5t11.5 -11.5z" glyph-name="idgaam" unicode="ۭۗ"/><glyph d="M322 -426q-7 0 -23 -3q10 -6 13 -16t3 -24q0 -19 -7 -29t-17 -10q-22 0 -35 16.5t-13 48.5q-3 -1 -6 -1t-6 -1q0 2 -0.5 5t-0.5 5q-1 -1 -5 -1q-9 0 -20 8.5t-18 20.5q-13 -23 -20 -29.5t-21 -8.5q-15 5 -22 16q5 -32 7.5 -47.5t2.5 -20.5q0 -25 -22 -46.5t-59 -21.5 q-19 0 -36 13.5t-17 41.5q0 5 1.5 16t4 22t5.5 19.5t6 8.5q4 -4 4 -6q-2 -8 -4 -17t-4 -20q0 -43 37 -43q57 0 72 38q-5 21 -11 49.5t-12.5 60.5t-14 65.5t-15.5 65.5q0 2 -0.5 3.5t-0.5 3.5q0 5 1 10t3 10q3 0 7 -13.5t9 -34t11.5 -45t14 -45t16.5 -35t20 -15.5q8 1 16.5 6 t14.5 22q6 12 11 14q1 0 1.5 -0.5t1.5 -0.5q0 -1 -0.5 -1.5t-0.5 -5.5t5.5 -13.5t29.5 -12.5q20 2 22.5 12.5t4.5 20.5q0 2 3 10.5t8 17.5t11 16.5t11 7.5q7 0 7 -26q0 -41 -13 -54q6 0 16.5 1t22.5 4t23 9t19 17q2 2 5.5 4.5t5.5 2.5t2 -3q0 -4 -2 -7t-3 -8q3 -5 19 -5 q19 0 28 3t13.5 7.5t7 10t8.5 10.5q1 0 1.5 0.5t1.5 0.5l2 -2q-3 -3 -3 -12q0 -8 11 -8q10 0 16 5t9.5 11.5t5.5 12.5t4 8q5 0 5 -2v-8.5t-2 -9.5q3 -5 10 -7t15 -2q15 0 20 6q-9 19 -16 31.5t-12 22.5t-8 18t-3 18q0 7 1 10q7 -3 16 -15t17.5 -28.5t14.5 -36t6 -37.5 q0 -7 -3.5 -12.5t-20.5 -5.5q-15 0 -25 7t-16 12q-8 -22 -12.5 -27.5t-22.5 -5.5q-11 0 -24 9q-10 -10 -19 -14t-31 -4q-15 0 -21 3t-6 11q-4 -5 -14.5 -13.5t-22.5 -8.5zM521 -200q0 -23 -11 -23q-1 0 -11 4.5t-12 10.5q2 8 5.5 16.5t6.5 8.5q8 0 14.5 -6.5t6.5 -7.5 t0.5 -1.5t0.5 -1.5zM225 -481q0 -25 -12 -25q-6 0 -22 16q6 20 11 25q7 0 14.5 -7.5zM484 -215q0 -6 -1 -11t-2.5 -9t-3.5 -6q-3 2 -14.5 6.5t-11.5 9.5q0 6 9 24q13 -3 24 -14zM192 -500q-3 -8 -3.5 -13.5t-2.5 -5.5q-13 0 -20 6.5t-7 7.5q0 5 4 14t5 11q5 -2 14.5 -8 t9.5 -12zM294 -460q-17 10 -39 15q4 -23 33 -31q14 0 14 7q-2 2 -4 4.5t-4 4.5zM286 -353q0 4 -2 4t-6.5 -6t-9 -13.5t-7.5 -15t-3 -10.5q11 2 17.5 8.5t10.5 32.5z" glyph-name="tasheel" unicode="ۭۘ"/><glyph d="M281 -538q-16 0 -27 3.5t-20.5 14t-17.5 31t-18 55.5q-13 45 -19 87t-6 75q0 50 25 57q2 -4 3.5 -12t4.5 -21q-8 -8 -12 -13t-4 -25q0 -6 0.5 -13.5t1.5 -16.5q5 -41 11 -74.5t15 -57.5t23.5 -37t35.5 -13q25 10 35 25.5t15 30.5t11 25.5t23 10.5q3 0 8.5 -2.5t11 -8 t9.5 -15t4 -23.5q0 -5 -4 -20t-13 -22q-5 -1 -10.5 -1t-10.5 -1q-24 4 -36 12q-3 -2 -5 -8.5t-5.5 -14.5t-10 -16t-18.5 -12zM137 -558q-31 0 -52 18q-20 -29 -27 -37t-6 -8q-2 0 -2 2q0 12 5 26t11.5 26t13 21t10.5 11q7 -7 17 -12.5t25 -5.5q11 0 16 6t5 12 q-10 27 -22.5 65.5t-29.5 89.5q-2 5 -4.5 10.5t-6.5 7.5q0 47 7 48q6 -2 6 -8q11 -12 17.5 -14.5t6.5 -11.5q0 -20 -7 -33q21 -57 35 -101t14 -68q0 -38 -32 -44zM469 -491q0 -3 -1.5 -15t-4.5 -12t-7.5 12t-10.5 30.5t-11.5 42t-11.5 46t-10.5 42t-7.5 31.5q-6 23 -8.5 30 t-2.5 10q0 14 1.5 26t6.5 12q2 -5 4 -11t7 -15q0 -2 6 -25.5t17 -71.5q11 -40 19 -70.5t15 -61.5zM85 -403q-2 -9 -5.5 -20.5t-8.5 -11.5q-9 0 -27 18q2 19 12 32q19 -8 29 -18zM41 -429q-2 -17 -12 -30q-17 5 -29 20q2 17 10 28q20 -6 31 -18zM369 -459q-5 14 -7.5 16.5 t-7.5 2.5q-8 0 -10.5 -3l-7.5 -9q13 -7 33 -7z" glyph-name="imale" unicode="ۭۙ"/><glyph d="M124 583q7 -92 12 -183t16 -183q8 -68 36.5 -103.5t79.5 -35.5v-78q-51 0 -81.5 16t-48 45t-25.5 69.5t-13 88.5q-4 37 -7 78.5t-6 82.5t-6 79t-6 67zM0 644q0 6 4 15t10.5 18t14 15t14.5 6q12 0 33 -6t66 -6q23 0 48 2t57 13l4 -4q-20 -30 -56.5 -42t-71.5 -11 q-32 1 -56.5 6.5t-32.5 6.5q-5 0 -14 -9t-14 -9q-6 0 -6 5z" arabic-form="final" glyph-name="alefmadda.3" horiz-adv-x="268" unicode="آ"/><glyph d="M124 583q7 -92 12 -183t16 -183q8 -68 36.5 -103.5t79.5 -35.5v-78q-51 0 -81.5 16t-48 45t-25.5 69.5t-13 88.5q-4 37 -7 78.5t-6 82.5t-6 79t-6 67zM108 785q14 0 22 -7t8 -21q0 -11 -4 -18.5t-12 -18.5q-7 11 -15 15.5t-19 4.5q-8 0 -17.5 -10t-9.5 -18q0 -7 17 -16.5 t37 -13.5q19 5 38.5 9t39.5 9l-26 -53q-19 -2 -60.5 -10.5t-104.5 -34.5l11 28q21 13 42 24q-20 12 -26.5 20.5t-6.5 21.5q0 12 9 27t22 29t28 23.5t27 9.5z" arabic-form="final" glyph-name="alefhamza.3" horiz-adv-x="268" unicode="أ"/><glyph d="M204 202q17 0 31.5 -11.5t26 -29.5t19 -40t10.5 -43h38v-78h-37q-5 -54 -23.5 -101.5t-46 -83.5t-61 -56.5t-68.5 -20.5q-25 0 -50.5 17t-39.5 51q49 0 87 5.5t69 27.5q14 10 29.5 28t29.5 40t24 46t12 47q-73 0 -104.5 18.5t-31.5 61.5q0 16 5.5 37t16 40t27 32t37.5 13 zM245 78q-1 10 -7 20t-13.5 18t-16 13t-14.5 5q-11 0 -16 -8.5t-5 -22.5q0 -9 8 -14t19 -7.5t23.5 -3t21.5 -0.5zM194 418q14 0 22 -7t8 -21q0 -11 -4 -18.5t-12 -18.5q-7 11 -15 15.5t-19 4.5q-8 0 -17.5 -10t-9.5 -18q0 -7 17 -16.5t37 -13.5q19 5 38.5 9t39.5 9l-26 -53 q-19 -2 -60.5 -10.5t-104.5 -34.5l11 28q21 13 42 24q-20 12 -26.5 20.5t-6.5 21.5q0 12 9 27t22 29t28 23.5t27 9.5z" arabic-form="final" glyph-name="wawhamza.3" horiz-adv-x="328" unicode="ؤ"/><glyph d="M124 583q7 -92 12 -183t16 -183q8 -68 36.5 -103.5t79.5 -35.5v-78q-51 0 -81.5 16t-48 45t-25.5 69.5t-13 88.5q-4 37 -7 78.5t-6 82.5t-6 79t-6 67zM128 -36q14 0 22 -7t8 -21q0 -11 -4 -18.5t-12 -18.5q-7 11 -15 15.5t-19 4.5q-8 0 -17.5 -10t-9.5 -18q0 -7 17 -16.5 t37 -13.5q19 5 38.5 9t39.5 9l-26 -53q-19 -2 -60.5 -10.5t-104.5 -34.5l11 28q21 13 42 24q-20 12 -26.5 20.5t-6.5 21.5q0 12 9 27t22 29t28 23.5t27 9.5z" arabic-form="final" glyph-name="alefhamzabelow.3" horiz-adv-x="268" unicode="إ"/><glyph d="M170 276q23 -31 38 -64t15 -61q0 -7 -2 -16.5t-4.5 -19.5t-5 -18.5t-4.5 -12.5q-20 -44 -77.5 -64t-139.5 -20v78q41 0 75 4t59 10t38.5 13.5t13.5 15.5q0 5 -4.5 14.5t-10.5 20t-12.5 20.5t-10.5 15zM147 490q14 0 22 -7t8 -21q0 -11 -4 -18.5t-12 -18.5q-7 11 -15 15.5 t-19 4.5q-8 0 -17.5 -10t-9.5 -18q0 -7 17 -16.5t37 -13.5q19 5 38.5 9t39.5 9l-26 -53q-19 -2 -60.5 -10.5t-104.5 -34.5l11 28q21 13 42 24q-20 12 -26.5 20.5t-6.5 21.5q0 12 9 27t22 29t28 23.5t27 9.5z" arabic-form="initial" glyph-name="yehhamza.1" horiz-adv-x="253" unicode="ئ"/><glyph d="M204 171q5 11 10.5 5.5t5.5 -21.5q0 -11 -1.5 -19.5t-0.5 -21.5q1 -17 33.5 -26.5t89.5 -9.5v-78q-40 0 -67 6t-45 15t-27.5 19.5t-14.5 19.5q-24 -24 -70.5 -42t-126.5 -18v78q36 0 69.5 3t61 12.5t49 28t34.5 49.5zM193 390q14 0 22 -7t8 -21q0 -11 -4 -18.5t-12 -18.5 q-7 11 -15 15.5t-19 4.5q-8 0 -17.5 -10t-9.5 -18q0 -7 17 -16.5t37 -13.5q19 5 38.5 9t39.5 9l-26 -53q-19 -2 -60.5 -10.5t-104.5 -34.5l11 28q21 13 42 24q-20 12 -26.5 20.5t-6.5 21.5q0 12 9 27t22 29t28 23.5t27 9.5z" arabic-form="medial" glyph-name="yehhamza.2" horiz-adv-x="341" unicode="ئ"/><glyph d="M578 0q-36 0 -65.5 -1.5t-51.5 -4.5t-34 -7.5t-12 -11.5q15 -6 37.5 -10.5t44 -11t37 -16.5t15.5 -26q0 -35 -28.5 -68t-77 -58t-113 -40t-135.5 -15q-49 0 -82.5 11.5t-54 31t-29.5 44.5t-9 52q0 51 21.5 95t59.5 85l19 -20q-20 -26 -36.5 -58t-16.5 -70q0 -19 6.5 -36 t23.5 -29.5t46 -20t75 -7.5q43 0 85 7t77.5 18t62 23.5t39.5 24.5q-70 8 -104.5 18t-34.5 29q0 44 45 97q17 20 40 30.5t48 15.5t51.5 6t50.5 1v-78zM272 288q14 0 22 -7t8 -21q0 -11 -4 -18.5t-12 -18.5q-7 11 -15 15.5t-19 4.5q-8 0 -17.5 -10t-9.5 -18q0 -7 17 -16.5 t37 -13.5q19 5 38.5 9t39.5 9l-26 -53q-19 -2 -60.5 -10.5t-104.5 -34.5l11 28q21 13 42 24q-20 12 -26.5 20.5t-6.5 21.5q0 12 9 27t22 29t28 23.5t27 9.5z" arabic-form="final" glyph-name="yehhamza.3" horiz-adv-x="578" unicode="ئ"/><glyph d="M124 583q7 -92 12 -183t16 -183q8 -68 36.5 -103.5t79.5 -35.5v-78q-51 0 -81.5 16t-48 45t-25.5 69.5t-13 88.5q-4 37 -7 78.5t-6 82.5t-6 79t-6 67z" arabic-form="final" glyph-name="arabicalef.3" horiz-adv-x="268" unicode="ا"/><glyph d="M170 276q23 -31 38 -64t15 -61q0 -7 -2 -16.5t-4.5 -19.5t-5 -18.5t-4.5 -12.5q-20 -44 -77.5 -64t-139.5 -20v78q41 0 75 4t59 10t38.5 13.5t13.5 15.5q0 5 -4.5 14.5t-10.5 20t-12.5 20.5t-10.5 15zM97 -84l69 -50l-50 -65l-69 50z" arabic-form="initial" glyph-name="beh.1" horiz-adv-x="253" unicode="ب"/><glyph d="M204 171q5 11 10.5 5.5t5.5 -21.5q0 -11 -1.5 -19.5t-0.5 -21.5q1 -17 33.5 -26.5t89.5 -9.5v-78q-40 0 -67 6t-45 15t-27.5 19.5t-14.5 19.5q-24 -24 -70.5 -42t-126.5 -18v78q36 0 69.5 3t61 12.5t49 28t34.5 49.5zM140 -75l69 -50l-50 -65l-69 50z" arabic-form="medial" glyph-name="beh.2" horiz-adv-x="341" unicode="ب"/><glyph d="M336 -131l69 -50l-50 -65l-69 50zM86 263q-5 -13 -11 -31.5t-6 -35.5q0 -36 19.5 -63t54 -45.5t81.5 -27.5t102 -9q63 0 116.5 8t94.5 23t67.5 35.5t37.5 46.5q17 -2 17 -25q0 -11 -2 -22.5t-4 -16.5q7 -9 20.5 -13.5t28.5 -6.5t28.5 -2h21.5v-78q-9 0 -27 1t-37 6.5 t-36 16.5t-25 31q-28 -20 -64.5 -34.5t-78.5 -24.5t-88 -14.5t-92 -4.5q-137 0 -210 40.5t-73 118.5q0 42 14 81t31 59z" arabic-form="final" glyph-name="beh.3" horiz-adv-x="752" unicode="ب"/><glyph d="M219 387q10 -58 19.5 -115.5t20.5 -115.5q1 -8 6 -21.5t17 -26t32.5 -21.5t52.5 -9v-78q-69 0 -105 39.5t-48 102.5q-3 -5 -9 -12.5t-14.5 -14.5t-20 -12.5t-26.5 -5.5q-38 0 -66 12t-28 32q0 48 33.5 87t104.5 73l-5 40zM195 249q-27 -13 -42.5 -21.5t-23 -14.5t-9 -9.5 t-1.5 -5.5q0 -3 8 -5t21 -3.5t28 -2t29 -0.5zM64 524l68 -52l-52 -67l-67 52zM152 542l67 -52l-52 -68l-67 52z" arabic-form="final" glyph-name="tehmarbuta.3" horiz-adv-x="367" unicode="ة"/><glyph d="M170 276q23 -31 38 -64t15 -61q0 -7 -2 -16.5t-4.5 -19.5t-5 -18.5t-4.5 -12.5q-20 -44 -77.5 -64t-139.5 -20v78q41 0 75 4t59 10t38.5 13.5t13.5 15.5q0 5 -4.5 14.5t-10.5 20t-12.5 20.5t-10.5 15zM51 421l68 -52l-52 -67l-67 52zM139 439l67 -52l-52 -68l-67 52z" arabic-form="initial" glyph-name="teh.1" horiz-adv-x="253" unicode="ت"/><glyph d="M204 171q5 11 10.5 5.5t5.5 -21.5q0 -11 -1.5 -19.5t-0.5 -21.5q1 -17 33.5 -26.5t89.5 -9.5v-78q-40 0 -67 6t-45 15t-27.5 19.5t-14.5 19.5q-24 -24 -70.5 -42t-126.5 -18v78q36 0 69.5 3t61 12.5t49 28t34.5 49.5zM83 344l68 -52l-52 -67l-67 52zM171 362l67 -52 l-52 -68l-67 52z" arabic-form="medial" glyph-name="teh.2" horiz-adv-x="341" unicode="ت"/><glyph d="M302 367l68 -52l-52 -67l-67 52zM390 385l67 -52l-52 -68l-67 52zM86 263q-5 -13 -11 -31.5t-6 -35.5q0 -36 19.5 -63t54 -45.5t81.5 -27.5t102 -9q63 0 116.5 8t94.5 23t67.5 35.5t37.5 46.5q17 -2 17 -25q0 -11 -2 -22.5t-4 -16.5q7 -9 20.5 -13.5t28.5 -6.5t28.5 -2 h21.5v-78q-9 0 -27 1t-37 6.5t-36 16.5t-25 31q-28 -20 -64.5 -34.5t-78.5 -24.5t-88 -14.5t-92 -4.5q-137 0 -210 40.5t-73 118.5q0 42 14 81t31 59z" arabic-form="final" glyph-name="teh.3" horiz-adv-x="752" unicode="ت"/><glyph d="M170 276q23 -31 38 -64t15 -61q0 -7 -2 -16.5t-4.5 -19.5t-5 -18.5t-4.5 -12.5q-20 -44 -77.5 -64t-139.5 -20v78q41 0 75 4t59 10t38.5 13.5t13.5 15.5q0 5 -4.5 14.5t-10.5 20t-12.5 20.5t-10.5 15zM50 402l70 -53l-53 -69l-69 52zM139 419l69 -53l-54 -68l-68 53z M78 525l68 -53l-52 -69l-70 52z" arabic-form="initial" glyph-name="theh.1" horiz-adv-x="253" unicode="ث"/><glyph d="M204 171q5 11 10.5 5.5t5.5 -21.5q0 -11 -1.5 -19.5t-0.5 -21.5q1 -17 33.5 -26.5t89.5 -9.5v-78q-40 0 -67 6t-45 15t-27.5 19.5t-14.5 19.5q-24 -24 -70.5 -42t-126.5 -18v78q36 0 69.5 3t61 12.5t49 28t34.5 49.5zM85 324l70 -53l-53 -69l-69 52zM174 341l69 -53 l-54 -68l-68 53zM113 447l68 -53l-52 -69l-70 52z" arabic-form="medial" glyph-name="theh.2" horiz-adv-x="341" unicode="ث"/><glyph d="M300 344l70 -53l-53 -69l-69 52zM389 361l69 -53l-54 -68l-68 53zM328 467l68 -53l-52 -69l-70 52zM86 263q-5 -13 -11 -31.5t-6 -35.5q0 -36 19.5 -63t54 -45.5t81.5 -27.5t102 -9q63 0 116.5 8t94.5 23t67.5 35.5t37.5 46.5q17 -2 17 -25q0 -11 -2 -22.5t-4 -16.5 q7 -9 20.5 -13.5t28.5 -6.5t28.5 -2h21.5v-78q-9 0 -27 1t-37 6.5t-36 16.5t-25 31q-28 -20 -64.5 -34.5t-78.5 -24.5t-88 -14.5t-92 -4.5q-137 0 -210 40.5t-73 118.5q0 42 14 81t31 59z" arabic-form="final" glyph-name="theh.3" horiz-adv-x="752" unicode="ث"/><glyph d="M155 276q12 0 32.5 -8.5t47 -19t57 -22t62.5 -17.5q25 -5 52 -8t51 -4.5t44 -2t33 -0.5l-30 -77q-17 0 -33.5 1t-33.5 1q-39 0 -70 -3t-60 -11.5t-61 -23t-72 -36.5q-22 -12 -44 -22t-46 -16q-20 -5 -47 -6t-47 -1v78q23 0 52.5 3t63.5 11q52 13 88 29.5t68 29.5 q-87 42 -121 42q-22 0 -44.5 -6.5t-36.5 -11.5l-10 15q34 86 105 86zM259 -24l69 -50l-50 -65l-69 50z" arabic-form="initial" glyph-name="jeem.1" horiz-adv-x="554" unicode="ج"/><glyph d="M396 118q-29 -2 -54.5 -6.5t-51 -13t-53.5 -21.5t-63 -32q-22 -12 -44 -22t-46 -16q-20 -5 -47 -6t-47 -1v78q23 0 52.5 3t63.5 11q52 13 88 29.5t68 29.5q-87 42 -121 42q-22 0 -44.5 -6.5t-36.5 -11.5l-10 15q34 86 105 86q12 0 32.5 -8.5t47 -19t57 -22t62.5 -17.5 q25 -5 52 -8t51 -4.5t44 -2t33 -0.5l-30 -77q-17 0 -33.5 1t-33.5 1q0 -41 78 -41h32v-78h-34q-34 0 -56.5 7t-36 21.5t-19 37t-5.5 52.5zM250 -21l69 -50l-50 -65l-69 50z" arabic-form="medial" glyph-name="jeem.2" horiz-adv-x="547" unicode="ج"/><glyph d="M343 121q-61 -12 -110.5 -37.5t-84 -61t-53.5 -78.5t-19 -89q0 -48 18 -88t51 -69.5t79.5 -47t103.5 -18.5q14 0 36.5 -1t50 -1h57.5t59 2v-25q-42 -16 -73.5 -27t-58 -18t-51.5 -10t-53 -3q-45 0 -93 19t-87 53.5t-64 83t-25 107.5q0 100 50.5 186t149.5 143l-32 6 t-29.5 5t-22.5 3t-11 1q-15 0 -29.5 -6.5t-25.5 -23.5l-21 19q17 32 29.5 50.5t24 28t24.5 12t32 2.5q11 0 36 -4t54.5 -9.5t58 -10.5t46.5 -6q25 -2 48 -3t46 -1h22.5t23.5 1l-31 -72q-22 0 -43 -1.5t-41 -3.5q0 -21 28.5 -35.5t67.5 -14.5h31v-78h-33q-136 0 -136 121z M299 -100l69 -50l-50 -65l-69 50z" arabic-form="final" glyph-name="jeem.3" horiz-adv-x="512" unicode="ج"/><glyph d="M155 276q12 0 32.5 -8.5t47 -19t57 -22t62.5 -17.5q25 -5 52 -8t51 -4.5t44 -2t33 -0.5l-30 -77q-17 0 -33.5 1t-33.5 1q-39 0 -70 -3t-60 -11.5t-61 -23t-72 -36.5q-22 -12 -44 -22t-46 -16q-20 -5 -47 -6t-47 -1v78q23 0 52.5 3t63.5 11q52 13 88 29.5t68 29.5 q-87 42 -121 42q-22 0 -44.5 -6.5t-36.5 -11.5l-10 15q34 86 105 86z" arabic-form="initial" glyph-name="hah.1" horiz-adv-x="554" unicode="ح"/><glyph d="M396 118q-29 -2 -54.5 -6.5t-51 -13t-53.5 -21.5t-63 -32q-22 -12 -44 -22t-46 -16q-20 -5 -47 -6t-47 -1v78q23 0 52.5 3t63.5 11q52 13 88 29.5t68 29.5q-87 42 -121 42q-22 0 -44.5 -6.5t-36.5 -11.5l-10 15q34 86 105 86q12 0 32.5 -8.5t47 -19t57 -22t62.5 -17.5 q25 -5 52 -8t51 -4.5t44 -2t33 -0.5l-30 -77q-17 0 -33.5 1t-33.5 1q0 -41 78 -41h32v-78h-34q-34 0 -56.5 7t-36 21.5t-19 37t-5.5 52.5z" arabic-form="medial" glyph-name="hah.2" horiz-adv-x="547" unicode="ح"/><glyph d="M337 121q-61 -12 -110.5 -37.5t-84 -61t-53.5 -78.5t-19 -89q0 -48 18 -88t51 -69.5t79.5 -47t103.5 -18.5q14 0 36.5 -1t50 -1h57.5t59 2v-25q-42 -16 -73.5 -27t-58 -18t-51.5 -10t-53 -3q-45 0 -93 19t-87 53.5t-64 83t-25 107.5q0 100 50.5 186t149.5 143l-32 6 t-29.5 5t-22.5 3t-11 1q-15 0 -29.5 -6.5t-25.5 -23.5l-21 19q17 32 29.5 50.5t24 28t24.5 12t32 2.5q11 0 36 -4t54.5 -9.5t58 -10.5t46.5 -6q25 -2 48 -3t46 -1h22.5t23.5 1l-31 -72q-22 0 -43 -1.5t-41 -3.5q0 -21 28.5 -35.5t67.5 -14.5h31v-78h-33q-136 0 -136 121z" arabic-form="final" glyph-name="hah.3" horiz-adv-x="506" unicode="ح"/><glyph d="M155 276q12 0 32.5 -8.5t47 -19t57 -22t62.5 -17.5q25 -5 52 -8t51 -4.5t44 -2t33 -0.5l-30 -77q-17 0 -33.5 1t-33.5 1q-39 0 -70 -3t-60 -11.5t-61 -23t-72 -36.5q-22 -12 -44 -22t-46 -16q-20 -5 -47 -6t-47 -1v78q23 0 52.5 3t63.5 11q52 13 88 29.5t68 29.5 q-87 42 -121 42q-22 0 -44.5 -6.5t-36.5 -11.5l-10 15q34 86 105 86zM268 416l69 -50l-50 -65l-69 50z" arabic-form="initial" glyph-name="khah.1" horiz-adv-x="554" unicode="خ"/><glyph d="M396 118q-29 -2 -54.5 -6.5t-51 -13t-53.5 -21.5t-63 -32q-22 -12 -44 -22t-46 -16q-20 -5 -47 -6t-47 -1v78q23 0 52.5 3t63.5 11q52 13 88 29.5t68 29.5q-87 42 -121 42q-22 0 -44.5 -6.5t-36.5 -11.5l-10 15q34 86 105 86q12 0 32.5 -8.5t47 -19t57 -22t62.5 -17.5 q25 -5 52 -8t51 -4.5t44 -2t33 -0.5l-30 -77q-17 0 -33.5 1t-33.5 1q0 -41 78 -41h32v-78h-34q-34 0 -56.5 7t-36 21.5t-19 37t-5.5 52.5zM298 400l69 -50l-50 -65l-69 50z" arabic-form="medial" glyph-name="khah.2" horiz-adv-x="547" unicode="خ"/><glyph d="M337 121q-61 -12 -110.5 -37.5t-84 -61t-53.5 -78.5t-19 -89q0 -48 18 -88t51 -69.5t79.5 -47t103.5 -18.5q14 0 36.5 -1t50 -1h57.5t59 2v-25q-42 -16 -73.5 -27t-58 -18t-51.5 -10t-53 -3q-45 0 -93 19t-87 53.5t-64 83t-25 107.5q0 100 50.5 186t149.5 143l-32 6 t-29.5 5t-22.5 3t-11 1q-15 0 -29.5 -6.5t-25.5 -23.5l-21 19q17 32 29.5 50.5t24 28t24.5 12t32 2.5q11 0 36 -4t54.5 -9.5t58 -10.5t46.5 -6q25 -2 48 -3t46 -1h22.5t23.5 1l-31 -72q-22 0 -43 -1.5t-41 -3.5q0 -21 28.5 -35.5t67.5 -14.5h31v-78h-33q-136 0 -136 121z M262 411l69 -50l-50 -65l-69 50z" arabic-form="final" glyph-name="khah.3" horiz-adv-x="506" unicode="خ"/><glyph d="M300 435q16 -102 27 -168t24 -105q10 -30 24 -46.5t29.5 -25t30.5 -10.5t28 -2v-78q-34 0 -58.5 6t-42.5 18t-31 30t-23 42q-7 -15 -20.5 -31.5t-33.5 -30.5t-48 -23t-65 -9q-42 0 -66.5 9t-24.5 23q0 13 2 29t5.5 30t8.5 23t10 9q4 0 7 -5t5 -11q3 -8 12 -13t21 -7.5 t25 -3.5t25 -1q19 0 39.5 8t37 21t27.5 29t11 33q0 9 -3.5 33.5t-9 55t-12.5 61.5t-13 54z" arabic-form="final" glyph-name="dal.3" horiz-adv-x="463" unicode="د"/><glyph d="M300 435q16 -102 27 -168t24 -105q10 -30 24 -46.5t29.5 -25t30.5 -10.5t28 -2v-78q-34 0 -58.5 6t-42.5 18t-31 30t-23 42q-7 -15 -20.5 -31.5t-33.5 -30.5t-48 -23t-65 -9q-42 0 -66.5 9t-24.5 23q0 13 2 29t5.5 30t8.5 23t10 9q4 0 7 -5t5 -11q3 -8 12 -13t21 -7.5 t25 -3.5t25 -1q19 0 39.5 8t37 21t27.5 29t11 33q0 9 -3.5 33.5t-9 55t-12.5 61.5t-13 54zM159 606l69 -50l-50 -65l-69 50z" arabic-form="final" glyph-name="thal.3" horiz-adv-x="463" unicode="ذ"/><glyph d="M248 148q12 -16 23 -29.5t25.5 -23t34 -14t49.5 -3.5v-78q-32 0 -43.5 1t-14.5 3v-4q-4 -38 -21.5 -82t-45.5 -82.5t-64.5 -64t-77.5 -25.5q-24 0 -52.5 18.5t-52.5 40.5v23q17 -11 29 -16t31 -5q28 0 56 10.5t53 28t45 40.5t33 48l4.5 9t7.5 15.5t6.5 16t2.5 10.5 q-2 13 -8.5 26t-16 24t-20 21t-18.5 19z" arabic-form="final" glyph-name="reh.3" horiz-adv-x="380" unicode="ر"/><glyph d="M248 148q12 -16 23 -29.5t25.5 -23t34 -14t49.5 -3.5v-78q-32 0 -43.5 1t-14.5 3v-4q-4 -38 -21.5 -82t-45.5 -82.5t-64.5 -64t-77.5 -25.5q-24 0 -52.5 18.5t-52.5 40.5v23q17 -11 29 -16t31 -5q28 0 56 10.5t53 28t45 40.5t33 48l4.5 9t7.5 15.5t6.5 16t2.5 10.5 q-2 13 -8.5 26t-16 24t-20 21t-18.5 19zM116 282l69 -50l-50 -65l-69 50z" arabic-form="final" glyph-name="zain.3" horiz-adv-x="380" unicode="ز"/><glyph d="M-10 78q37 0 61.5 1t40.5 5.5t26 14t18 27.5q8 23 19 23t15 -12.5t14 -24.5q9 -11 22 -22t35 -11q61 0 96 52q13 23 21.5 37t19.5 14q10 0 15.5 -11.5t12.5 -26t19 -26t36 -11.5q4 0 6.5 2t2.5 4q0 11 -7 21.5t-17 30.5l37 59l17 -5q5 -17 11 -34.5t6 -34.5 q0 -57 -22 -90.5t-57 -33.5q-17 0 -37.5 7.5t-47.5 21.5q-19 -28 -45.5 -41.5t-68.5 -13.5q-26 0 -48.5 8.5t-46.5 32.5q-29 -25 -66 -33t-88 -8v78z" arabic-form="initial" glyph-name="seen.1" horiz-adv-x="537" unicode="س"/><glyph d="M-10 78q10 0 30.5 0.5t43 3.5t42 9.5t25.5 17.5q9 16 13.5 31t17.5 15q7 0 14.5 -9t14 -20t12.5 -21.5t11 -13.5q13 -8 35 -8q47 0 88 52q5 6 11 12t8 6q9 0 13.5 -10t10 -22t15 -22t27.5 -10q14 0 23.5 7t20.5 34q3 7 10 15t13 8q3 0 9.5 -5.5t7.5 -14.5 q2 -23 6.5 -31.5t16.5 -15.5q11 -7 33 -7.5t39 -0.5v-78h-20q-23 0 -40 6t-29 13.5t-19 14.5t-10 9q-11 -17 -31 -29.5t-41 -12.5q-12 0 -24.5 5.5t-22 13.5t-16 17t-6.5 17q-20 -24 -44.5 -39t-54.5 -15q-16 0 -28 3t-23 9t-22 14t-24 17q-31 -31 -68.5 -37t-87.5 -6v78z" arabic-form="medial" glyph-name="seen.2" horiz-adv-x="601" unicode="س"/><glyph d="M101 12q-39 -54 -39 -112q0 -21 11.5 -38.5t31.5 -30t48.5 -19.5t62.5 -7q49 0 86 13.5t62 34.5t37.5 46t12.5 48q0 44 -14.5 71t-41.5 56l47 74q11 -21 20 -34t19 -20.5t22.5 -10t31.5 -2.5q36 0 56.5 8.5t37.5 25.5q11 11 14 23t15 14q10 0 15 -9.5t10.5 -21.5 t14.5 -21.5t27 -9.5q12 0 20.5 10t16 21.5t14 21.5t12.5 10q3 0 11.5 -11.5t8.5 -31.5q0 -4 10.5 -11.5t17.5 -10.5q11 -5 21.5 -7.5t40.5 -2.5v-78q-28 0 -46 4t-30.5 10.5t-21 14.5t-15.5 16q-14 -16 -31.5 -30.5t-38.5 -14.5t-36.5 13t-32.5 38q-1 0 -4.5 -5t-6.5 -7 q-25 -19 -45.5 -31t-46.5 -12q-11 0 -20.5 1t-23.5 3q-1 -47 -15.5 -97.5t-45 -91.5t-79 -67.5t-117.5 -26.5q-85 0 -135 42.5t-50 115.5q0 43 16 82.5t42 73.5z" arabic-form="final" glyph-name="seen.3" horiz-adv-x="861" unicode="س"/><glyph d="M-10 78q37 0 61.5 1t40.5 5.5t26 14t18 27.5q8 23 19 23t15 -12.5t14 -24.5q9 -11 22 -22t35 -11q61 0 96 52q13 23 21.5 37t19.5 14q10 0 15.5 -11.5t12.5 -26t19 -26t36 -11.5q4 0 6.5 2t2.5 4q0 11 -7 21.5t-17 30.5l37 59l17 -5q5 -17 11 -34.5t6 -34.5 q0 -57 -22 -90.5t-57 -33.5q-17 0 -37.5 7.5t-47.5 21.5q-19 -28 -45.5 -41.5t-68.5 -13.5q-26 0 -48.5 8.5t-46.5 32.5q-29 -25 -66 -33t-88 -8v78zM246 347l70 -53l-53 -69l-69 52zM335 364l69 -53l-54 -68l-68 53zM274 470l68 -53l-52 -69l-70 52z" arabic-form="initial" glyph-name="sheen.1" horiz-adv-x="537" unicode="ش"/><glyph d="M-10 78q10 0 30.5 0.5t43 3.5t42 9.5t25.5 17.5q9 16 13.5 31t17.5 15q7 0 14.5 -9t14 -20t12.5 -21.5t11 -13.5q13 -8 35 -8q47 0 88 52q5 6 11 12t8 6q9 0 13.5 -10t10 -22t15 -22t27.5 -10q14 0 23.5 7t20.5 34q3 7 10 15t13 8q3 0 9.5 -5.5t7.5 -14.5 q2 -23 6.5 -31.5t16.5 -15.5q11 -7 33 -7.5t39 -0.5v-78h-20q-23 0 -40 6t-29 13.5t-19 14.5t-10 9q-11 -17 -31 -29.5t-41 -12.5q-12 0 -24.5 5.5t-22 13.5t-16 17t-6.5 17q-20 -24 -44.5 -39t-54.5 -15q-16 0 -28 3t-23 9t-22 14t-24 17q-31 -31 -68.5 -37t-87.5 -6v78z M257 318l70 -53l-53 -69l-69 52zM346 335l69 -53l-54 -68l-68 53zM285 441l68 -53l-52 -69l-70 52z" arabic-form="medial" glyph-name="sheen.2" horiz-adv-x="601" unicode="ش"/><glyph d="M101 12q-39 -54 -39 -112q0 -21 11.5 -38.5t31.5 -30t48.5 -19.5t62.5 -7q49 0 86 13.5t62 34.5t37.5 46t12.5 48q0 44 -14.5 71t-41.5 56l47 74q11 -21 20 -34t19 -20.5t22.5 -10t31.5 -2.5q36 0 56.5 8.5t37.5 25.5q11 11 14 23t15 14q10 0 15 -9.5t10.5 -21.5 t14.5 -21.5t27 -9.5q12 0 20.5 10t16 21.5t14 21.5t12.5 10q3 0 11.5 -11.5t8.5 -31.5q0 -4 10.5 -11.5t17.5 -10.5q11 -5 21.5 -7.5t40.5 -2.5v-78q-28 0 -46 4t-30.5 10.5t-21 14.5t-15.5 16q-14 -16 -31.5 -30.5t-38.5 -14.5t-36.5 13t-32.5 38q-1 0 -4.5 -5t-6.5 -7 q-25 -19 -45.5 -31t-46.5 -12q-11 0 -20.5 1t-23.5 3q-1 -47 -15.5 -97.5t-45 -91.5t-79 -67.5t-117.5 -26.5q-85 0 -135 42.5t-50 115.5q0 43 16 82.5t42 73.5zM524 328l70 -53l-53 -69l-69 52zM613 345l69 -53l-54 -68l-68 53zM552 451l68 -53l-52 -69l-70 52z" arabic-form="final" glyph-name="sheen.3" horiz-adv-x="861" unicode="ش"/><glyph d="M-10 78q28 0 57 4t55 24q2 3 6 11t9 17t10.5 16t10.5 7q6 0 14 -11t13 -28q7 -22 35.5 -27.5t69.5 -5.5q27 44 62 81.5t72.5 65t74 43t66.5 15.5q39 0 61.5 -23.5t22.5 -64.5q0 -42 -26 -79t-73 -64t-112.5 -43t-145.5 -16q-5 -8 -10.5 -17.5t-10.5 -18t-10.5 -14.5 t-10.5 -6q-13 0 -13 17q0 5 3.5 17t8.5 22q-29 0 -58.5 9t-47.5 35q-31 -31 -66 -37.5t-67 -6.5v78zM490 196q-43 0 -87.5 -28t-79.5 -79q35 0 70.5 6t67.5 16.5t58.5 24.5t43.5 30q-15 15 -34.5 22.5t-38.5 7.5z" arabic-form="initial" glyph-name="sad.1" horiz-adv-x="649" unicode="ص"/><glyph d="M-10 78q32 0 62.5 6t51.5 22h-1q3 4 7 12.5t8.5 17t10 15t11.5 6.5q8 0 13.5 -11t13.5 -28q5 -12 17.5 -19t28 -10t31 -4t27.5 -1q25 44 60 81.5t72.5 65.5t75 43.5t67.5 15.5q37 0 60.5 -23.5t23.5 -64.5q0 -45 -27.5 -83t-82.5 -67q2 1 3 1t3 1q30 6 52 10.5t40 7.5 t33.5 4.5t32.5 1.5v-78q-7 0 -31 0.5t-57 1t-70 1.5t-70.5 1.5t-58 1t-32.5 0.5q-26 0 -48.5 -2t-43.5 -4q-14 -27 -24 -41.5t-19 -14.5q-1 0 -6.5 4.5t-5.5 12.5q3 19 9 39q-11 0 -25.5 2t-29.5 7.5t-28 14t-21 20.5q-16 -16 -34 -25t-35.5 -13t-34 -5t-29.5 -1v78z M491 196q-42 0 -87.5 -28t-80.5 -79q32 0 67.5 6t68.5 16t60.5 24t44.5 31q-15 15 -35.5 22.5t-37.5 7.5z" arabic-form="medial" glyph-name="sad.2" horiz-adv-x="684" unicode="ص"/><glyph d="M100 12q-16 -25 -27.5 -53.5t-11.5 -58.5q0 -21 11.5 -38.5t31.5 -30t48.5 -19.5t62.5 -7q49 0 86.5 13t62.5 34t37.5 46t12.5 49q0 41 -13.5 68.5t-43.5 58.5l47 73q11 -23 21.5 -36.5t22 -20.5t26 -9t33.5 -2l24 2q26 43 62.5 81t76.5 66.5t79.5 45t71.5 16.5 q37 0 60 -23.5t23 -64.5q0 -91 -112 -150q2 0 8 2q42 8 86.5 16t96.5 8v-78q-8 0 -35 0.5t-64 1t-79 1.5t-79.5 1.5t-66 1t-37.5 0.5q-19 0 -38 -2t-38 -2q-29 -58 -42 -58q-11 0 -11 16q0 5 3 19t6 22q-5 0 -19.5 -0.5t-20.5 -0.5q0 -44 -12.5 -93.5t-42.5 -91.5t-79.5 -70 t-122.5 -28q-86 0 -135.5 42.5t-49.5 115.5q0 46 16 81t41 75zM766 196q-21 0 -45.5 -8t-49 -22.5t-47 -34.5t-40.5 -45q36 0 73.5 6.5t71.5 17.5t62.5 25.5t45.5 30.5q-32 30 -71 30z" arabic-form="final" glyph-name="sad.3" horiz-adv-x="983" unicode="ص"/><glyph d="M-10 78q28 0 57 4t55 24q2 3 6 11t9 17t10.5 16t10.5 7q6 0 14 -11t13 -28q7 -22 35.5 -27.5t69.5 -5.5q27 44 62 81.5t72.5 65t74 43t66.5 15.5q39 0 61.5 -23.5t22.5 -64.5q0 -42 -26 -79t-73 -64t-112.5 -43t-145.5 -16q-5 -8 -10.5 -17.5t-10.5 -18t-10.5 -14.5 t-10.5 -6q-13 0 -13 17q0 5 3.5 17t8.5 22q-29 0 -58.5 9t-47.5 35q-31 -31 -66 -37.5t-67 -6.5v78zM490 196q-43 0 -87.5 -28t-79.5 -79q35 0 70.5 6t67.5 16.5t58.5 24.5t43.5 30q-15 15 -34.5 22.5t-38.5 7.5zM258 373l69 -50l-50 -65l-69 50z" arabic-form="initial" glyph-name="dad.1" horiz-adv-x="649" unicode="ض"/><glyph d="M-10 78q32 0 62.5 6t51.5 22h-1q3 4 7 12.5t8.5 17t10 15t11.5 6.5q8 0 13.5 -11t13.5 -28q5 -12 17.5 -19t28 -10t31 -4t27.5 -1q25 44 60 81.5t72.5 65.5t75 43.5t67.5 15.5q37 0 60.5 -23.5t23.5 -64.5q0 -45 -27.5 -83t-82.5 -67q2 1 3 1t3 1q30 6 52 10.5t40 7.5 t33.5 4.5t32.5 1.5v-78q-7 0 -31 0.5t-57 1t-70 1.5t-70.5 1.5t-58 1t-32.5 0.5q-26 0 -48.5 -2t-43.5 -4q-14 -27 -24 -41.5t-19 -14.5q-1 0 -6.5 4.5t-5.5 12.5q3 19 9 39q-11 0 -25.5 2t-29.5 7.5t-28 14t-21 20.5q-16 -16 -34 -25t-35.5 -13t-34 -5t-29.5 -1v78z M491 196q-42 0 -87.5 -28t-80.5 -79q32 0 67.5 6t68.5 16t60.5 24t44.5 31q-15 15 -35.5 22.5t-37.5 7.5zM226 377l69 -50l-50 -65l-69 50z" arabic-form="medial" glyph-name="dad.2" horiz-adv-x="684" unicode="ض"/><glyph d="M100 12q-16 -25 -27.5 -53.5t-11.5 -58.5q0 -21 11.5 -38.5t31.5 -30t48.5 -19.5t62.5 -7q49 0 86.5 13t62.5 34t37.5 46t12.5 49q0 41 -13.5 68.5t-43.5 58.5l47 73q11 -23 21.5 -36.5t22 -20.5t26 -9t33.5 -2l24 2q26 43 62.5 81t76.5 66.5t79.5 45t71.5 16.5 q37 0 60 -23.5t23 -64.5q0 -91 -112 -150q2 0 8 2q42 8 86.5 16t96.5 8v-78q-8 0 -35 0.5t-64 1t-79 1.5t-79.5 1.5t-66 1t-37.5 0.5q-19 0 -38 -2t-38 -2q-29 -58 -42 -58q-11 0 -11 16q0 5 3 19t6 22q-5 0 -19.5 -0.5t-20.5 -0.5q0 -44 -12.5 -93.5t-42.5 -91.5t-79.5 -70 t-122.5 -28q-86 0 -135.5 42.5t-49.5 115.5q0 46 16 81t41 75zM766 196q-21 0 -45.5 -8t-49 -22.5t-47 -34.5t-40.5 -45q36 0 73.5 6.5t71.5 17.5t62.5 25.5t45.5 30.5q-32 30 -71 30zM504 383l69 -50l-50 -65l-69 50z" arabic-form="final" glyph-name="dad.3" horiz-adv-x="983" unicode="ض"/><glyph d="M-10 78q42 0 69.5 7t43.5 21.5t22.5 36t6.5 51.5q0 50 -5 96.5t-10 95.5q-1 15 -3 31.5t-6.5 36.5t-12 45t-19.5 57l48 65l59 -81q-14 -15 -22.5 -33.5t-8.5 -37.5q10 -62 15.5 -130t5.5 -122q0 -11 -0.5 -21t-0.5 -21q63 55 110.5 83.5t83.5 28.5q42 0 68 -24t26 -64 q0 -50 -27 -87.5t-84.5 -62.5t-146.5 -37t-212 -12v78zM327 198q-45 0 -89 -27.5t-81 -79.5q61 1 122.5 19.5t121.5 59.5q-31 28 -74 28z" arabic-form="initial" glyph-name="tah.1" horiz-adv-x="480" unicode="ط"/><glyph d="M-10 78q42 0 69 7t43 21t22.5 36t6.5 52q0 25 -1.5 51.5t-4 51t-5 45t-3.5 32.5q-2 15 -9.5 62t-31.5 120l48 65l57 -81q-13 -19 -21.5 -35t-8.5 -36q0 -8 1 -15t2 -15q8 -60 13 -115.5t5 -106.5q0 -11 -1 -21t-1 -21q61 54 110.5 83t84.5 29q42 0 68 -24t26 -64 q0 -75 -62 -121h126v-78q-65 0 -129.5 3t-130.5 5q-68 -6 -137.5 -7t-135.5 -1v78zM326 198q-45 0 -89 -27.5t-81 -79.5q60 1 122 19.5t123 59.5q-17 15 -35 21.5t-40 6.5z" arabic-form="medial" glyph-name="tah.2" horiz-adv-x="523" unicode="ط"/><glyph d="M202 620l57 -82q-17 -17 -22.5 -31t-5.5 -29q7 -63 12 -125t10 -125q0 -11 -1 -23t-1 -23q70 61 114.5 86.5t77.5 25.5q20 0 38 -7.5t31.5 -20.5t21 -29.5t7.5 -35.5q0 -51 -74 -123h141v-78q-67 0 -133.5 3t-132.5 5q-51 -3 -103 -5t-109 -6q-20 0 -40 6.5t-35.5 16.5 t-25 22.5t-9.5 25.5q0 5 4.5 10t15.5 6q40 2 71 4t53 11.5t33.5 30t11.5 60.5q0 8 -0.5 17t-0.5 18q-6 57 -11 102.5t-11 82t-13 66.5t-17 57v-1q-2 5 -4.5 11.5t-4.5 11.5zM312 175q-43 -29 -69 -73q75 0 133 20t104 52q-20 15 -38 23t-40 8q-23 0 -45 -8t-45 -22z" arabic-form="final" glyph-name="tah.3" horiz-adv-x="608" unicode="ط"/><glyph d="M-10 78q42 0 69.5 7t43.5 21.5t22.5 36t6.5 51.5q0 50 -5 96.5t-10 95.5q-1 15 -3 31.5t-6.5 36.5t-12 45t-19.5 57l48 65l59 -81q-14 -15 -22.5 -33.5t-8.5 -37.5q10 -62 15.5 -130t5.5 -122q0 -11 -0.5 -21t-0.5 -21q63 55 110.5 83.5t83.5 28.5q42 0 68 -24t26 -64 q0 -50 -27 -87.5t-84.5 -62.5t-146.5 -37t-212 -12v78zM327 198q-45 0 -89 -27.5t-81 -79.5q61 1 122.5 19.5t121.5 59.5q-31 28 -74 28zM282 466l69 -50l-50 -65l-69 50z" arabic-form="initial" glyph-name="zah.1" horiz-adv-x="480" unicode="ظ"/><glyph d="M-10 78q42 0 69 7t43 21t22.5 36t6.5 52q0 25 -1.5 51.5t-4 51t-5 45t-3.5 32.5q-2 15 -9.5 62t-31.5 120l48 65l57 -81q-13 -19 -21.5 -35t-8.5 -36q0 -8 1 -15t2 -15q8 -60 13 -115.5t5 -106.5q0 -11 -1 -21t-1 -21q61 54 110.5 83t84.5 29q42 0 68 -24t26 -64 q0 -75 -62 -121h126v-78q-65 0 -129.5 3t-130.5 5q-68 -6 -137.5 -7t-135.5 -1v78zM326 198q-45 0 -89 -27.5t-81 -79.5q60 1 122 19.5t123 59.5q-17 15 -35 21.5t-40 6.5zM288 464l69 -50l-50 -65l-69 50z" arabic-form="medial" glyph-name="zah.2" horiz-adv-x="523" unicode="ظ"/><glyph d="M202 620l57 -82q-17 -17 -22.5 -31t-5.5 -29q7 -63 12 -125t10 -125q0 -11 -1 -23t-1 -23q70 61 114.5 86.5t77.5 25.5q20 0 38 -7.5t31.5 -20.5t21 -29.5t7.5 -35.5q0 -51 -74 -123h141v-78q-67 0 -133.5 3t-132.5 5q-51 -3 -103 -5t-109 -6q-20 0 -40 6.5t-35.5 16.5 t-25 22.5t-9.5 25.5q0 5 4.5 10t15.5 6q40 2 71 4t53 11.5t33.5 30t11.5 60.5q0 8 -0.5 17t-0.5 18q-6 57 -11 102.5t-11 82t-13 66.5t-17 57v-1q-2 5 -4.5 11.5t-4.5 11.5zM312 175q-43 -29 -69 -73q75 0 133 20t104 52q-20 15 -38 23t-40 8q-23 0 -45 -8t-45 -22zM368 465 l69 -50l-50 -65l-69 50z" arabic-form="final" glyph-name="zah.3" horiz-adv-x="608" unicode="ظ"/><glyph d="M-10 78h28.5t33.5 1.5t33.5 5t29.5 9.5q-13 13 -23.5 33.5t-10.5 40.5q0 36 22 66.5t46 53.5q45 45 92 45q18 0 34 -6.5t29.5 -16.5t24 -20.5t17.5 -18.5l-16 -17q-11 4 -23 7.5t-20 3.5q-45 0 -78 -11.5t-63 -35.5q9 -28 38 -47.5t67 -19.5q15 0 35 7t41 17.5t42 22 t39 19.5q0 -20 -2 -38.5t-11 -38.5q-64 -37 -115 -64.5t-89 -41.5q-35 -13 -62.5 -20t-50.5 -10t-44 -3.5t-44 -0.5v78z" arabic-form="initial" glyph-name="ain.1" horiz-adv-x="430" unicode="ع"/><glyph d="M-10 78q13 0 33.5 1.5t44.5 6t49 13.5t47 24q-8 8 -19 17t-23 9q-20 0 -33 -5q10 45 41.5 75.5t94.5 30.5q50 0 82 -16t32 -50q0 -16 -5.5 -26.5t-13 -18t-16.5 -12.5t-16 -10q20 -20 54 -29.5t81 -9.5v-78q-32 0 -58.5 3.5t-49.5 12t-44 23.5t-42 38h-21 q-32 -23 -60.5 -38t-55 -23.5t-52 -12t-50.5 -3.5v78z" arabic-form="medial" glyph-name="ain.2" horiz-adv-x="423" unicode="ع"/><glyph d="M176 123q-10 8 -24.5 13.5t-28.5 5.5q-15 0 -28.5 -4.5t-13.5 -6.5q10 21 20 40t23.5 33t34 22t51.5 8q19 0 39 -3t35.5 -11t25.5 -21t10 -34q0 -15 -4 -24.5t-11 -15.5t-15 -10t-17 -9q10 -17 38.5 -22.5t85.5 -5.5v-78q-28 0 -55 1t-51.5 8.5t-45 24t-34.5 46.5 q-85 -48 -118.5 -115.5t-33.5 -150.5q0 -43 22.5 -77.5t62.5 -59t94.5 -37.5t117.5 -13h33t23.5 0.5t20 1.5t22.5 3l-8 -18q-8 -5 -27 -14.5t-42 -18.5t-48 -16t-45 -7q-74 0 -124.5 19t-81.5 53.5t-45 81t-14 102.5q0 37 6.5 74.5t24 75.5t47.5 78t78 81z" arabic-form="final" glyph-name="ain.3" horiz-adv-x="397" unicode="ع"/><glyph d="M-10 78h28.5t33.5 1.5t33.5 5t29.5 9.5q-13 13 -23.5 33.5t-10.5 40.5q0 36 22 66.5t46 53.5q45 45 92 45q18 0 34 -6.5t29.5 -16.5t24 -20.5t17.5 -18.5l-16 -17q-11 4 -23 7.5t-20 3.5q-45 0 -78 -11.5t-63 -35.5q9 -28 38 -47.5t67 -19.5q15 0 35 7t41 17.5t42 22 t39 19.5q0 -20 -2 -38.5t-11 -38.5q-64 -37 -115 -64.5t-89 -41.5q-35 -13 -62.5 -20t-50.5 -10t-44 -3.5t-44 -0.5v78zM136 502l69 -50l-50 -65l-69 50z" arabic-form="initial" glyph-name="ghain.1" horiz-adv-x="430" unicode="غ"/><glyph d="M-10 78q13 0 33.5 1.5t44.5 6t49 13.5t47 24q-8 8 -19 17t-23 9q-20 0 -33 -5q10 45 41.5 75.5t94.5 30.5q50 0 82 -16t32 -50q0 -16 -5.5 -26.5t-13 -18t-16.5 -12.5t-16 -10q20 -20 54 -29.5t81 -9.5v-78q-32 0 -58.5 3.5t-49.5 12t-44 23.5t-42 38h-21 q-32 -23 -60.5 -38t-55 -23.5t-52 -12t-50.5 -3.5v78zM191 431l69 -50l-50 -65l-69 50z" arabic-form="medial" glyph-name="ghain.2" horiz-adv-x="423" unicode="غ"/><glyph d="M176 123q-10 8 -24.5 13.5t-28.5 5.5q-15 0 -28.5 -4.5t-13.5 -6.5q10 21 20 40t23.5 33t34 22t51.5 8q19 0 39 -3t35.5 -11t25.5 -21t10 -34q0 -15 -4 -24.5t-11 -15.5t-15 -10t-17 -9q10 -17 38.5 -22.5t85.5 -5.5v-78q-28 0 -55 1t-51.5 8.5t-45 24t-34.5 46.5 q-85 -48 -118.5 -115.5t-33.5 -150.5q0 -43 22.5 -77.5t62.5 -59t94.5 -37.5t117.5 -13h33t23.5 0.5t20 1.5t22.5 3l-8 -18q-8 -5 -27 -14.5t-42 -18.5t-48 -16t-45 -7q-74 0 -124.5 19t-81.5 53.5t-45 81t-14 102.5q0 37 6.5 74.5t24 75.5t47.5 78t78 81zM193 415l69 -50 l-50 -65l-69 50z" arabic-form="final" glyph-name="ghain.3" horiz-adv-x="397" unicode="غ"/><glyph d="M-10 78q39 0 72 2t60.5 8t50.5 17t43 30q0 16 -1.5 21.5t-9.5 16.5q-17 -23 -36 -32.5t-45 -9.5t-37.5 14.5t-11.5 46.5q0 22 8.5 49.5t21.5 50.5t27.5 39t25.5 16q12 0 28.5 -14.5t31 -38.5t24.5 -54t10 -60q0 -58 -14 -93.5t-45 -54.5t-81 -25.5t-122 -6.5v78zM125 213 q15 -5 25.5 -4t18.5 14q-1 12 -6.5 20.5t-11.5 8.5q-9 0 -15 -8t-11 -31zM107 509l69 -50l-50 -65l-69 50z" arabic-form="initial" glyph-name="feh.1" horiz-adv-x="272" unicode="ف"/><glyph d="M-10 78q31 0 58.5 2t61.5 13q-4 8 -4.5 13t-1.5 11q0 24 17 57t40.5 63t49.5 51t44 21q20 0 32 -21.5t18 -55.5q0 -40 -8.5 -74t-38.5 -69q25 -10 59.5 -10.5t64.5 -0.5v-78q-45 0 -75.5 1t-54 4.5t-43 10t-42.5 18.5q-36 -15 -80 -24.5t-97 -9.5v78zM169 142 q6 -7 29 -22q62 23 62 46q0 17 -13.5 31t-32.5 14t-35.5 -10t-28.5 -34zM183 471l69 -50l-50 -65l-69 50z" arabic-form="medial" glyph-name="feh.2" horiz-adv-x="382" unicode="ف"/><glyph d="M816 0q-40 0 -87.5 7t-117.5 31q-23 -10 -49 -18t-63.5 -14.5t-89 -11t-123.5 -7.5q-75 0 -126 9t-82 28t-44.5 49t-13.5 71q0 21 3.5 38t9.5 31t13 26t13 25l29 -11q-23 -46 -23 -74q0 -54 58.5 -82.5t176.5 -27.5q109 2 175 9t82 17q-5 20 -5 35q0 42 22 77.5t49 61 t51.5 39.5t29.5 14q20 0 34.5 -28t14.5 -69q0 -63 -44 -132q16 -7 42.5 -11t64.5 -4v-78zM596 176q0 -16 15.5 -26.5t29.5 -18.5q28 0 49 13.5t21 32.5q0 20 -14 32t-36 12q-12 0 -23.5 -4.5t-20.5 -11t-15 -14.5t-6 -15zM565 463l69 -50l-50 -65l-69 50z" arabic-form="final" glyph-name="feh.3" horiz-adv-x="816" unicode="ف"/><glyph d="M-10 78q41 0 74 2t60 8t49.5 17t42.5 30q0 11 -2 20.5t-10 17.5q-33 -42 -80 -42q-27 0 -38 14.5t-11 46.5q0 22 8.5 49.5t21.5 50.5t27.5 39t25.5 16q28 0 61 -57v1q15 -25 24 -54t9 -57q0 -58 -14 -93.5t-45 -54.5t-81 -25.5t-122 -6.5v78zM125 213q10 -4 18 -4 q13 0 18 5t8 10q-1 12 -7 20t-12 8q-15 0 -25 -39zM53 501l68 -52l-52 -67l-67 52zM141 519l67 -52l-52 -68l-67 52z" arabic-form="initial" glyph-name="qaf.1" horiz-adv-x="272" unicode="ق"/><glyph d="M-10 78q32 0 60 2t60 13q-4 8 -4.5 13t-1.5 11q0 24 17 57t41 63t49.5 51t42.5 21q13 0 22.5 -9.5t16 -24t9.5 -31.5t3 -33q0 -63 -47 -121q26 -10 59 -11t64 -1v-78q-41 0 -71.5 0.5t-55 4t-45.5 10.5t-42 19q-38 -17 -86 -25.5t-91 -8.5v78zM168 142q4 -4 11.5 -9.5 t18.5 -12.5q62 23 62 46q0 17 -14 31t-32 14q-19 0 -35.5 -9.5t-28.5 -34.5q5 -11 19 -25h-1zM137 452l68 -52l-52 -67l-67 52zM225 470l67 -52l-52 -68l-67 52z" arabic-form="medial" glyph-name="qaf.2" horiz-adv-x="381" unicode="ق"/><glyph d="M106 89q-27 -38 -38 -66.5t-11 -49.5q0 -46 39 -76.5t105 -30.5q85 0 140.5 34t69.5 100q-1 0 -2 -0.5t-2 -0.5q-51 0 -79.5 13.5t-28.5 51.5q0 19 9 41t22 41t28 31t27 12q23 0 42.5 -30t28.5 -81h29v-78h-32q-23 -103 -90.5 -157t-172.5 -54q-79 0 -124.5 40t-45.5 110 q0 40 15.5 79t51.5 87zM355 79q8 -5 21 -6.5t29 -1.5q-2 19 -13 31.5t-28 12.5q-10 0 -16.5 -4.5t-6.5 -11.5q0 -8 15 -20h-1zM237 345l68 -52l-52 -67l-67 52zM325 363l67 -52l-52 -68l-67 52z" arabic-form="final" glyph-name="qaf.3" horiz-adv-x="485" unicode="ق"/><glyph d="M436 670q-11 -20 -21 -49t-21 -49q-33 -12 -71.5 -29t-76 -36.5t-72.5 -39.5t-61.5 -38t-42.5 -32.5t-16 -22.5q28 -16 63 -40t65.5 -53.5t51 -61t20.5 -62.5q0 -26 -10.5 -54t-39.5 -51t-80.5 -37.5t-133.5 -14.5v78q70 0 114 5.5t69 14.5t34 20.5t9 22.5q0 7 -12 21.5 t-30.5 33.5t-42 39.5t-46.5 39t-43.5 33t-32.5 21.5v49q0 26 36.5 64.5t96.5 79.5t136.5 80.5t157.5 67.5z" arabic-form="initial" glyph-name="arabickaf.1" horiz-adv-x="394" unicode="ك"/><glyph d="M395 573q-133 -49 -226 -96q-14 -7 -34.5 -18.5t-40 -24t-33.5 -25t-14 -21.5q3 -2 25 -21.5t55 -48t73 -62.5t79 -65t73 -55.5t55 -34.5q24 -11 50.5 -17t43.5 -6v-78q-39 0 -73.5 10.5t-69.5 32t-73.5 55t-84.5 80.5q0 -57 -14 -92t-41 -54t-66 -25.5t-89 -6.5v78 q90 0 129.5 21t39.5 67q0 9 -1 17t-5.5 16.5t-12.5 18.5t-23 24q-30 27 -50.5 44.5t-33 32.5t-18.5 31t-6 42q0 57 103.5 124.5t325.5 155.5z" arabic-form="medial" glyph-name="arabickaf.2" horiz-adv-x="501" unicode="ك"/><glyph d="M78 242q-12 -35 -12 -67q0 -58 50.5 -93t142.5 -35q166 0 245.5 34t79.5 100q0 86 -7.5 176.5t-11.5 178.5l34 63h16q5 -78 10.5 -156.5t10.5 -156.5q4 -70 15.5 -110.5t28.5 -61.5t39.5 -27.5t50.5 -8.5v-78q-20 0 -45 3.5t-48.5 15.5t-42.5 34.5t-26 60.5h-4 q-13 -71 -72 -102q-28 -15 -97 -29.5t-167 -14.5q-133 0 -190.5 40t-57.5 122q0 33 12 63.5t27 56.5zM220 282q21 2 46 7t46 11t35 12t14 9q0 1 -14.5 0.5t-31.5 1t-31.5 7t-14.5 17.5q0 6 8.5 23t21.5 35t28 32t27 14l1 -13q-11 -16 -20 -31t-15 -32q4 -2 18 -2t29 -2.5 t26.5 -8.5t11.5 -21q0 -14 -9 -32t-23 -32q-7 -7 -18.5 -10.5t-23.5 -5.5t-23.5 -2.5t-17.5 -0.5q-4 0 -12.5 0.5t-19 3t-21 7.5t-17.5 13z" arabic-form="final" glyph-name="arabickaf.3" horiz-adv-x="770" unicode="ك"/><glyph d="M119 614q8 -15 14.5 -25.5t13 -18.5t14 -15t16.5 -16q-17 -20 -25.5 -35.5t-8.5 -41.5q0 -6 2.5 -26.5t6.5 -49t8 -61.5t8 -63.5t6.5 -55t2.5 -35.5q0 -24 -4.5 -47t-10.5 -42.5t-13.5 -33.5t-13.5 -19q-12 -11 -33 -16.5t-43 -8t-41.5 -3t-27.5 -1.5v78q27 1 53 2 t46 6.5t31.5 17t11.5 32.5q-1 45 -6.5 98t-14 108.5t-19 109.5t-20.5 99z" arabic-form="initial" glyph-name="lam.1" horiz-adv-x="240" unicode="ل"/><glyph d="M139 607q4 -96 8.5 -184.5t12.5 -183.5q4 -52 15 -83.5t28.5 -49t41.5 -23t56 -5.5v-78q-23 0 -48.5 4.5t-49 15.5t-41.5 29.5t-26 47.5q-11 -34 -31.5 -53.5t-42.5 -29t-42 -12t-30 -2.5v78q12 0 32.5 1.5t40 11t34 30t14.5 58.5q0 21 -2.5 63.5t-7 93.5t-9.5 104.5 t-9 96.5z" arabic-form="medial" glyph-name="lam.2" horiz-adv-x="301" unicode="ل"/><glyph d="M387 587q8 -144 17 -256.5t27 -178.5q3 -9 8 -22t17 -24.5t33 -19.5t55 -8v-78q-58 0 -86.5 13t-45.5 43q3 -35 6.5 -69t3.5 -72q0 -60 -19 -103.5t-51.5 -71.5t-74.5 -41.5t-87 -13.5q-83 0 -126.5 39t-43.5 113q0 60 21 105.5t53 92.5l26 -13q-9 -13 -18.5 -31 t-17.5 -38t-13.5 -40t-5.5 -37q0 -40 28.5 -66t85.5 -26q96 0 149 28.5t53 75.5q-4 71 -9 151t-10 162t-10 162t-9 152l27 72h17z" arabic-form="final" glyph-name="lam.3" horiz-adv-x="544" unicode="ل"/><glyph d="M-10 78q57 0 99.5 13.5t65.5 54.5q31 62 58 92t59 30q30 0 45 -20.5t21 -49t5 -59t-3 -50.5q-3 -5 -9.5 -12t-15.5 -14t-20 -13.5t-23 -9.5q-9 0 -24 6t-31 13.5t-30 14t-20 6.5q-50 -80 -177 -80v78zM209 170q9 -16 28 -26t37 -10q7 0 8 3t3 8q0 9 -5.5 19.5t-13.5 19.5 t-16.5 15t-13.5 6q-2 0 -10.5 -6.5t-16.5 -28.5z" arabic-form="initial" glyph-name="meem.1" horiz-adv-x="397" unicode="م"/><glyph d="M-10 78q57 0 87 9.5t49 36.5q29 41 52.5 67t43.5 26q7 0 18 -9t24.5 -23t28.5 -30.5t32 -31.5q29 -27 60.5 -36t76.5 -9v-78q-6 0 -19.5 0.5t-32.5 3.5t-41 10t-45 20q-1 -9 -3 -18.5t-6 -18t-11.5 -13.5t-19.5 -5q-18 0 -40 8.5t-44 20.5t-42 25.5t-35 24.5 q-23 -23 -53.5 -40.5t-79.5 -17.5v78zM218 170q-8 0 -21 -13.5t-24 -38.5q17 -17 39.5 -30.5t45.5 -24.5q1 20 -1.5 39t-8 34t-13.5 24.5t-17 9.5z" arabic-form="medial" glyph-name="meem.2" horiz-adv-x="462" unicode="م"/><glyph d="M66 -23q0 -17 6 -49.5t14 -66.5q11 -47 19 -84.5t13 -68t7.5 -56t2.5 -48.5q0 -29 -4.5 -45.5t-9.5 -16.5q-1 0 -8.5 30t-18 76t-22.5 100t-22 101.5t-16.5 81t-6.5 38.5q0 39 7.5 64t21.5 43t35 31.5t48 28.5h-1q18 11 33.5 23.5t26.5 26.5q55 -57 116.5 -82.5 t132.5 -25.5v-78q-40 0 -81.5 5.5t-84.5 28.5q1 -5 1.5 -18t0.5 -22q0 -38 -12 -58.5t-33 -20.5t-37.5 19t-23.5 62q-1 6 -2 15t-2.5 17t-4.5 13.5t-8 5.5q-42 0 -64.5 -17.5t-22.5 -52.5z" arabic-form="final" glyph-name="meem.3" horiz-adv-x="440" unicode="م"/><glyph d="M170 276q23 -31 38 -64t15 -61q0 -7 -2 -16.5t-4.5 -19.5t-5 -18.5t-4.5 -12.5q-20 -44 -77.5 -64t-139.5 -20v78q41 0 75 4t59 10t38.5 13.5t13.5 15.5q0 5 -4.5 14.5t-10.5 20t-12.5 20.5t-10.5 15zM86 424l69 -50l-50 -65l-69 50z" arabic-form="initial" glyph-name="noon.1" horiz-adv-x="253" unicode="ن"/><glyph d="M204 171q5 11 10.5 5.5t5.5 -21.5q0 -11 -1.5 -19.5t-0.5 -21.5q1 -17 33.5 -26.5t89.5 -9.5v-78q-40 0 -67 6t-45 15t-27.5 19.5t-14.5 19.5q-24 -24 -70.5 -42t-126.5 -18v78q36 0 69.5 3t61 12.5t49 28t34.5 49.5zM150 347l69 -50l-50 -65l-69 50z" arabic-form="medial" glyph-name="noon.2" horiz-adv-x="341" unicode="ن"/><glyph d="M109 22q-21 -33 -34.5 -60t-13.5 -50q0 -48 41 -77.5t116 -29.5q48 0 85 14t61.5 35t37 45t12.5 44q0 23 -3 39t-9.5 30.5t-17 28.5t-26.5 33l46 73q9 -18 17.5 -31t20.5 -21.5t29.5 -12.5t44.5 -4v-78q-24 0 -35.5 1t-19.5 3q0 -56 -15.5 -107.5t-47.5 -91.5t-80.5 -64 t-113.5 -24q-91 0 -137.5 45t-46.5 125q0 35 16.5 75t48.5 77zM233 305l69 -50l-50 -65l-69 50z" arabic-form="final" glyph-name="noon.3" horiz-adv-x="516" unicode="ن"/><glyph d="M-10 78q46 0 81 5.5t55 21.5q-8 10 -10.5 17.5t-2.5 16.5q0 35 20 63t38 51q-14 5 -21 10q0 19 6 33.5t14 24t16.5 14t13.5 4.5q7 0 19 -5t25 -12t25 -15t19 -13q16 -13 36 -33t37.5 -43.5t29 -47.5t11.5 -44q0 -37 -13 -61t-47 -24q-17 0 -38.5 5.5t-41 12.5t-35 12.5 t-20.5 5.5q-43 -34 -100.5 -54.5t-116.5 -22.5v78zM274 165q-2 -5 -5.5 -13t-8.5 -13q6 -3 19 -9t27.5 -11t28 -9t21.5 -4q7 0 7 4q0 6 -7.5 17t-19.5 24t-28 26.5t-32 22.5q0 -2 0.5 -4.5t0.5 -5.5q0 -7 -1 -13.5t-2 -11.5zM208 217q-29 0 -55 -43q5 -12 20.5 -17t29.5 -5 q15 0 25.5 9.5t10.5 21.5q0 14 -8.5 24t-22.5 10z" arabic-form="initial" glyph-name="heh.1" horiz-adv-x="442" unicode="ه"/><glyph d="M-10 78h26.5t24.5 1t25 4.5t30 9.5q8 37 27.5 74.5t42.5 67.5t45.5 48.5t36.5 18.5t21 -23.5t7 -59.5q0 -94 -76 -160q4 0 15 3t29.5 6.5t45.5 6.5t64 3v-78q-3 0 -15.5 -0.5t-27 -1t-28.5 -2t-21 -3.5q20 -29 20 -81q0 -24 -6.5 -45.5t-17.5 -37.5t-26 -25.5t-32 -9.5 q-50 0 -78 51q-17 26 -25 63.5t-10 75.5q-20 0 -22.5 5t-7.5 17q-11 -3 -31 -4.5t-36 -1.5v78zM179 -28q-18 5 -28.5 6.5l-24.5 3.5q15 -51 36 -81.5t40 -30.5q21 0 35 10.5t14 26.5q0 17 -17 34.5t-55 30.5zM209 205q-12 0 -33 -25t-37 -67q53 20 76.5 35.5t23.5 26.5 t-9.5 20.5t-20.5 9.5z" arabic-form="medial" glyph-name="heh.2" horiz-adv-x="354" unicode="ه"/><glyph d="M219 387q10 -58 19.5 -115.5t20.5 -115.5q1 -8 6 -21.5t17 -26t32.5 -21.5t52.5 -9v-78q-69 0 -105 39.5t-48 102.5q-3 -5 -9 -12.5t-14.5 -14.5t-20 -12.5t-26.5 -5.5q-38 0 -66 12t-28 32q0 48 33.5 87t104.5 73l-5 40zM195 249q-27 -13 -42.5 -21.5t-23 -14.5t-9 -9.5 t-1.5 -5.5q0 -3 8 -5t21 -3.5t28 -2t29 -0.5z" arabic-form="final" glyph-name="heh.3" horiz-adv-x="367" unicode="ه"/><glyph d="M207 202q17 0 31.5 -11.5t26 -29.5t19 -40t10.5 -43h38v-78h-37q-5 -54 -23.5 -101.5t-46 -83.5t-61 -56.5t-68.5 -20.5q-25 0 -50.5 17t-39.5 51q49 0 87 5.5t69 27.5q14 10 29.5 28t29.5 40t24 46t12 47q-73 0 -104.5 18.5t-31.5 61.5q0 16 5.5 37t16 40t27 32t37.5 13 zM248 78q-1 10 -7 20t-13.5 18t-16 13t-14.5 5q-11 0 -16 -8.5t-5 -22.5q0 -9 8 -14t19 -7.5t23.5 -3t21.5 -0.5z" arabic-form="final" glyph-name="waw.3" horiz-adv-x="332" unicode="و"/><glyph d="M170 276q23 -31 38 -64t15 -61q0 -7 -2 -16.5t-4.5 -19.5t-5 -18.5t-4.5 -12.5q-20 -44 -77.5 -64t-139.5 -20v78q41 0 75 4t59 10t38.5 13.5t13.5 15.5q0 5 -4.5 14.5t-10.5 20t-12.5 20.5t-10.5 15z" glyph-name="alefmaksura.1" horiz-adv-x="253" unicode="ى"/><glyph d="M204 171q5 11 10.5 5.5t5.5 -21.5q0 -11 -1.5 -19.5t-0.5 -21.5q1 -17 33.5 -26.5t89.5 -9.5v-78q-40 0 -67 6t-45 15t-27.5 19.5t-14.5 19.5q-24 -24 -70.5 -42t-126.5 -18v78q36 0 69.5 3t61 12.5t49 28t34.5 49.5z" glyph-name="alefmaksura.2" horiz-adv-x="341" unicode="ى"/><glyph d="M578 0q-36 0 -65.5 -1.5t-51.5 -4.5t-34 -7.5t-12 -11.5q15 -6 37.5 -10.5t44 -11t37 -16.5t15.5 -26q0 -35 -28.5 -68t-77 -58t-113 -40t-135.5 -15q-49 0 -82.5 11.5t-54 31t-29.5 44.5t-9 52q0 51 21.5 95t59.5 85l19 -20q-20 -26 -36.5 -58t-16.5 -70q0 -19 6.5 -36 t23.5 -29.5t46 -20t75 -7.5q43 0 85 7t77.5 18t62 23.5t39.5 24.5q-70 8 -104.5 18t-34.5 29q0 44 45 97q17 20 40 30.5t48 15.5t51.5 6t50.5 1v-78z" arabic-form="final" glyph-name="alefmaksura.3" horiz-adv-x="578" unicode="ى"/><glyph d="M170 276q23 -31 38 -64t15 -61q0 -7 -2 -16.5t-4.5 -19.5t-5 -18.5t-4.5 -12.5q-20 -44 -77.5 -64t-139.5 -20v78q41 0 75 4t59 10t38.5 13.5t13.5 15.5q0 5 -4.5 14.5t-10.5 20t-12.5 20.5t-10.5 15zM62 -90l68 -52l-52 -67l-67 52zM150 -72l67 -52l-52 -68l-67 52z" arabic-form="initial" glyph-name="yeh.1" horiz-adv-x="253" unicode="ي"/><glyph d="M204 171q5 11 10.5 5.5t5.5 -21.5q0 -11 -1.5 -19.5t-0.5 -21.5q1 -17 33.5 -26.5t89.5 -9.5v-78q-40 0 -67 6t-45 15t-27.5 19.5t-14.5 19.5q-24 -24 -70.5 -42t-126.5 -18v78q36 0 69.5 3t61 12.5t49 28t34.5 49.5zM105 -103l68 -52l-52 -67l-67 52zM193 -85l67 -52 l-52 -68l-67 52z" arabic-form="medial" glyph-name="yeh.2" horiz-adv-x="341" unicode="ي"/><glyph d="M578 0q-36 0 -65.5 -1.5t-51.5 -4.5t-34 -7.5t-12 -11.5q15 -6 37.5 -10.5t44 -11t37 -16.5t15.5 -26q0 -35 -28.5 -68t-77 -58t-113 -40t-135.5 -15q-49 0 -82.5 11.5t-54 31t-29.5 44.5t-9 52q0 51 21.5 95t59.5 85l19 -20q-20 -26 -36.5 -58t-16.5 -70q0 -19 6.5 -36 t23.5 -29.5t46 -20t75 -7.5q43 0 85 7t77.5 18t62 23.5t39.5 24.5q-70 8 -104.5 18t-34.5 29q0 44 45 97q17 20 40 30.5t48 15.5t51.5 6t50.5 1v-78z" arabic-form="final" glyph-name="yeh.3" horiz-adv-x="578" unicode="ي"/><glyph d="M333 0h-332v664h332v-664zM303 634h-272v-604h272v604zM235 401q0 -17 -9.5 -30.5t-26.5 -13.5q-11 0 -19 7.5t-8 18.5q0 16 15 24l9 7h-1q6 1 6 9t-7.5 14t-18.5 6q-15 0 -24.5 -9t-9.5 -24q0 -13 6 -25l17 -32q11 -23 16 -42t5 -35q0 -10 -4 -33h-15v6.5t1 6.5v10 q0 17 -10 29h1q-6 5 -12.5 10.5t-11.5 10.5q-17 15 -26 34t-9 37q0 32 20 53.5t52 21.5q28 0 46 -16.5t18 -44.5zM197 203q0 -11 -7 -18.5t-19 -7.5q-11 0 -19.5 7.5t-8.5 18.5t8 19t20 8q11 0 18.5 -8t7.5 -19z" glyph-name=".notdef" horiz-adv-x="333"/><glyph glyph-name=".null"/><glyph glyph-name="nonmarkingreturn" horiz-adv-x="333"/><glyph glyph-name="space" horiz-adv-x="200"/><glyph d="M134 480v-109l-16 -254h-48l-17 254v109h81zM131 0h-75v76h75v-76z" glyph-name="exclam" horiz-adv-x="185" unicode="!"/><glyph d="M102 480v-83l-15 -93h-43l-17 93v83h75zM209 480v-83l-16 -93h-42l-17 93v83h75z" glyph-name="quotedbl" horiz-adv-x="237" unicode="&quot;"/><glyph d="M152 -136q-115 145 -115 311q0 158 116 313h53q-30 -49 -49 -89t-30.5 -76t-16 -71.5t-4.5 -76.5q0 -153 100 -313h-50z" glyph-name="parenleft" horiz-adv-x="222" unicode="("/><glyph d="M91.0098 -136q114.992 145 114.992 311q0 158 -115.992 313h-52.9971q29.998 -49 48.9971 -89t30.498 -76t15.999 -71.5t4.5 -76.5q0 -153 -99.9941 -313h49.9971z" glyph-name="parenright" horiz-adv-x="222" unicode=")"/><glyph d="M39 440q21 -8 38 -14t28 -13q-2 26 -3.5 44t-1.5 31h57q-1 -16 -1.5 -33t-4.5 -41q16 8 34 14.5t38 13.5l18 -57q-21 -6 -39 -11t-36 -7q8 -8 21 -22.5t30 -34.5l-47 -34q-8 13 -19 29t-24 37q-11 -20 -22 -37.5t-18 -28.5l-46 34l28 35t21 23q-17 4 -35.5 8t-38.5 9 l16 52z" glyph-name="asterisk" horiz-adv-x="259" unicode="*"/><glyph d="M34 269h128v128h65v-128h128v-64h-128v-129h-65v129h-128v64z" glyph-name="plus" horiz-adv-x="389" unicode="+"/><glyph d="M131 0h-74v76h74v-76z" glyph-name="period" horiz-adv-x="185" unicode="."/><glyph d="M52 -8h-58l140 496h57z" glyph-name="slash" horiz-adv-x="185" unicode="/"/><glyph d="M170 -8q-66 0 -103.5 57t-37.5 166q0 120 39 180.5t112 60.5q140 0 140 -230q0 -115 -39 -174.5t-111 -59.5zM177 412q-96 0 -96 -194q0 -182 95 -182q92 0 92 185q0 191 -91 191z" glyph-name="zero" horiz-adv-x="350" unicode="0"/><glyph d="M303 0h-254v45h101v348l-103 -31v49l154 47v-413h102v-45z" glyph-name="one" horiz-adv-x="350" unicode="1"/><glyph d="M308 0h-270v46l131 131q24 24 42 44t29 38t16.5 35.5t5.5 36.5q0 39 -22 60t-64 21q-60 0 -115 -51v53q52 42 122 42q60 0 94.5 -33t34.5 -87q0 -43 -24 -85q-22 -39 -85 -101l-104 -103v-1h209v-46z" glyph-name="two" horiz-adv-x="350" unicode="2"/><glyph d="M45 72q46 -36 104 -36q46 0 74.5 23t28.5 63q0 88 -125 88h-37v44h35q111 0 111 82q0 76 -85 76q-46 0 -89 -32v50q44 26 102 26q57 0 90.5 -30.5t33.5 -76.5q0 -89 -90 -114v-1q48 -5 77 -34t29 -74q0 -30 -11.5 -54.5t-32 -42.5t-49.5 -27.5t-65 -9.5q-64 0 -101 25v55 z" glyph-name="three" horiz-adv-x="350" unicode="3"/><glyph d="M334 119h-57v-119h-51v119h-210v33l198 296h63v-287h57v-42zM226 161v193v22.5t1 24.5h-1q-4 -11 -17 -35l-138 -205h155z" glyph-name="four" horiz-adv-x="350" unicode="4"/><glyph d="M49 66q46 -30 94 -30t76.5 26.5t28.5 71.5t-30 69t-84 24q-10 0 -27 -1t-43 -3v225h216v-46h-168v-132q10 1 19.5 1.5t18.5 0.5q72 0 111 -36t39 -99q0 -66 -41.5 -105.5t-116.5 -39.5q-62 0 -93 19v55z" glyph-name="five" horiz-adv-x="350" unicode="5"/><glyph d="M290 394q-35 18 -73 18q-60 0 -95.5 -52.5t-35.5 -142.5h1q31 63 102 63q60 0 94 -37.5t34 -100.5q0 -33 -10.5 -60.5t-29 -47.5t-44.5 -31t-57 -11q-67 0 -105.5 54t-38.5 151q0 117 50 188q51 71 134 71q47 0 74 -13v-49zM178 237q-40 0 -64.5 -27t-24.5 -64 q0 -45 24 -77.5t66 -32.5q38 0 62 27.5t24 72.5q0 48 -22.5 74.5t-64.5 26.5z" glyph-name="six" horiz-adv-x="350" unicode="6"/><glyph d="M319 432l-177 -432h-53l168 402h-226v46h288v-16z" glyph-name="seven" horiz-adv-x="350" unicode="7"/><glyph d="M130 236q-81 37 -81 109q0 49 37 80t95 31q54 0 87 -29t33 -75q0 -74 -83 -116v-1q98 -35 98 -121q0 -57 -39.5 -89.5t-111.5 -32.5q-29 0 -53 8.5t-41.5 24.5t-27.5 37.5t-10 47.5q0 86 97 125v1zM249 346q0 30 -19.5 48t-53.5 18q-31 0 -52.5 -18.5t-21.5 -47.5 q0 -58 73 -88q74 32 74 88zM172 210q-86 -33 -86 -98q0 -34 24 -55t66 -21q39 0 63.5 21t24.5 53q0 68 -92 100z" glyph-name="eight" horiz-adv-x="350" unicode="8"/><glyph d="M57 57q37 -21 79 -21q61 0 95 48.5t34 139.5h-1q-28 -58 -100 -58q-29 0 -53 10.5t-41.5 29t-27 44.5t-9.5 56q0 33 10.5 60.5t29.5 47.5t45.5 31t58.5 11q66 0 103 -52.5t37 -152.5q0 -126 -47.5 -192.5t-134.5 -66.5q-46 0 -78 16v49zM172 412q-37 0 -62 -27t-25 -72 q0 -48 24 -74.5t66 -26.5q37 0 61.5 24.5t24.5 60.5q0 51 -24.5 83t-64.5 32z" glyph-name="nine" horiz-adv-x="350" unicode="9"/><glyph d="M131 275h-75v76h75v-76zM131 0h-75v76h75v-76z" glyph-name="colon" horiz-adv-x="185" unicode=":"/><glyph d="M355 198v-64h-321v64h321zM355 340v-63h-321v63h321z" glyph-name="equal" horiz-adv-x="389" unicode="="/><glyph d="M179 423h-70v-496h70v-58h-138v611h138v-57z" glyph-name="bracketleft" horiz-adv-x="185" unicode="["/><glyph d="M9.01074 423h69.9961v-496h-69.9961v-58h137.992v611h-137.992v-57z" glyph-name="bracketright" horiz-adv-x="185" unicode="]"/><glyph d="M20 206q19 1 31 7.5t18.5 20.5t9 36.5t2.5 54.5q0 45 3.5 76t14.5 50.5t32.5 28t56.5 8.5h23v-60h-15q-32 0 -41 -12t-9 -49q0 -43 -1 -69t-3 -38q-5 -28 -18.5 -49.5t-37.5 -35.5q33 -17 46.5 -49t13.5 -95q0 -38 0.5 -60t5 -33t14.5 -13.5t30 -2.5h15v-60h-23 q-36 0 -57.5 7.5t-32 26t-13.5 49t-3 76.5q0 66 -12.5 93.5t-54.5 29.5v57z" glyph-name="braceleft" horiz-adv-x="223" unicode="{"/><glyph d="M206.001 206q-18.999 1 -30.998 7.5t-18.499 20.5q-6.49902 14 -8.99902 36.5t-2.5 54.5q0 45 -3.5 76q-3.49902 31 -14.499 50.5q-10.999 19.5 -32.498 28q-21.498 8.5 -56.4961 8.5h-22.999v-60h14.999q31.998 0 40.998 -12q8.99902 -12 8.99902 -49q0 -43 1 -69t3 -38 q5 -28 18.499 -49.5t37.4971 -35.5q-32.998 -17 -46.4971 -49t-13.499 -95q0 -38 -0.5 -60t-5 -33q-4.49902 -11 -14.499 -13.5q-9.99902 -2.5 -29.998 -2.5h-14.999v-60h22.999q35.998 0 57.4961 7.5q21.499 7.5 31.998 26q10.5 18.5 13.499 49q3 30.5 3 76.5 q0 66 12.499 93.5q12.5 27.5 54.4971 29.5v57z" glyph-name="braceright" horiz-adv-x="223" unicode="}"/><glyph glyph-name="nonbreakingspace" horiz-adv-x="163"/><glyph d="M230 -111v544h-50v-544h-34v319q-75 2 -114.5 32.5t-39.5 93.5q0 59 38 92.5t112 33.5h164v-27h-43v-544h-33z" glyph-name="paragraph" horiz-adv-x="299" unicode="¶"/><glyph d="M125 258q0 -35 -38 -35q-17 0 -27.5 9.5t-10.5 25.5q0 37 38 37t38 -37z" glyph-name="periodcentered" horiz-adv-x="173" unicode="·"/><glyph d="M344 269v-64h-322v64h322zM220 103h-75v75h75v-75zM220 296h-75v76h75v-76z" glyph-name="divide" horiz-adv-x="366" unicode="÷"/><glyph d="M143 55q0 -16 -10.5 -26.5t-27.5 -10.5q-26 0 -42 25t-16 57q0 66 62 113l14 -19q-45 -44 -45 -83q0 -18 5 -23q13 7 23 7q17 0 27 -11.5t10 -28.5z" glyph-name="arabiccomma" horiz-adv-x="185" unicode="،"/><glyph d="M143 148q0 -17 -10.5 -28t-27.5 -11q-26 0 -42 24.5t-16 57.5q0 68 62 114l13 -18q-44 -45 -44 -84q0 -19 5 -24q13 7 23 7q17 0 27 -10.5t10 -27.5zM133 50q0 -14 -9 -23.5t-23 -9.5t-23.5 9.5t-9.5 23.5t8.5 24t22.5 10t24 -10t10 -24z" glyph-name="arabicsemicolon" horiz-adv-x="185" unicode="؛"/><glyph d="M192 298q0 -20 -12 -37.5t-33 -17.5q-14 0 -23.5 9.5t-9.5 23.5q0 21 18 30l12 8h-1q7 3 7 12q0 11 -9.5 18t-22.5 7q-19 0 -31 -11.5t-12 -29.5q0 -16 8 -32l21 -40q14 -28 20 -52.5t6 -44.5q0 -5 -1 -15t-4 -26h-19v8t1 9q0 3 0.5 6.5t0.5 5.5q0 23 -13 36h1 q-8 7 -15.5 13.5t-14.5 13.5q-20 19 -32 42t-12 46q0 42 25.5 68t65.5 26q35 0 57 -20.5t22 -55.5zM145 50q0 -14 -9 -23.5t-23 -9.5t-24.5 9.5t-10.5 23.5t10 24t24 10t23.5 -10t9.5 -24z" glyph-name="arabicquestionmark" horiz-adv-x="209" unicode="؟"/><glyph d="M201 262q19 0 30.5 -9.5t11.5 -29.5q0 -15 -5.5 -26.5t-16.5 -26.5q-10 16 -21 22t-28 6q-6 0 -12.5 -4.5t-12 -10.5t-9.5 -12.5t-4 -11.5t6.5 -11.5t17.5 -12.5t24.5 -11.5t28.5 -8.5q26 8 54 14t57 12l-37 -76q-27 -3 -86.5 -15t-148.5 -49l16 41q15 9 29.5 17t30.5 16 q-29 17 -38.5 29.5t-9.5 31.5q0 16 12.5 38t31.5 41.5t40 33t39 13.5z" glyph-name="hamza" horiz-adv-x="372" unicode="ء"/><glyph d="M75 493q1 4 7 15.5t14.5 24t16.5 22t12 9.5q1 -2 2 -5q1 -2 2 -4.5t1 -5.5v-31.5t2 -46.5q1 -37 5 -84t8 -96t7 -95t3 -80q0 -63 -6 -89.5t-13 -26.5q-8 0 -12.5 21.5t-6.5 50.5l-5 75t-11 106q-7 53 -15.5 118t-10.5 122zM0 644q0 6 4 15t10.5 18t14 15t14.5 6 q12 0 33 -6t66 -6q23 0 48 2t57 13l4 -4q-20 -30 -56.5 -42t-71.5 -11q-32 1 -56.5 6.5t-32.5 6.5q-5 0 -14 -9t-14 -9q-6 0 -6 5z" glyph-name="alefmadda" horiz-adv-x="240" unicode="آ"/><glyph d="M75 493q1 4 7 15.5t14.5 24t16.5 22t12 9.5q1 -2 2 -5q1 -2 2 -4.5t1 -5.5v-31.5t2 -46.5q1 -37 5 -84t8 -96t7 -95t3 -80q0 -63 -6 -89.5t-13 -26.5q-8 0 -12.5 21.5t-6.5 50.5l-5 75t-11 106q-7 53 -15.5 118t-10.5 122zM117 775q14 0 22 -7t8 -21q0 -11 -4 -18.5 t-12 -18.5q-7 11 -15 15.5t-19 4.5q-8 0 -17.5 -10t-9.5 -18q0 -7 17 -16.5t37 -13.5q19 5 38.5 9t39.5 9l-26 -53q-19 -2 -60.5 -10.5t-104.5 -34.5l11 28q21 13 42 24q-20 12 -26.5 20.5t-6.5 21.5q0 12 9 27t22 29t28 23.5t27 9.5z" glyph-name="alefhamza" horiz-adv-x="240" unicode="أ"/><glyph d="M250 246q12 0 24.5 -10t22 -28t16 -43t6.5 -54q0 -55 -17 -109t-47 -97t-70 -69.5t-86 -26.5q-14 0 -28 5t-26.5 12.5t-22 17t-13.5 17.5v14q42 0 83 3.5t77 22t64.5 57.5t45.5 111q-22 -29 -53 -29q-29 0 -49.5 19.5t-20.5 55.5q0 21 9 44t23 42.5t30.5 32t31.5 12.5z M235 185q-8 0 -16.5 -12t-8.5 -18q0 -15 6 -22t21 -7q3 0 11.5 2t10.5 6q5 10 3.5 19.5t-6 16.5t-11 11t-10.5 4zM219 451q14 0 22 -7t8 -21q0 -11 -4 -18.5t-12 -18.5q-7 11 -15 15.5t-19 4.5q-8 0 -17.5 -10t-9.5 -18q0 -7 17 -16.5t37 -13.5q19 5 38.5 9t39.5 9l-26 -53 q-19 -2 -60.5 -10.5t-104.5 -34.5l11 28q21 13 42 24q-20 12 -26.5 20.5t-6.5 21.5q0 12 9 27t22 29t28 23.5t27 9.5z" glyph-name="wawhamza" horiz-adv-x="349" unicode="ؤ"/><glyph d="M75 493q1 4 7 15.5t14.5 24t16.5 22t12 9.5q1 -2 2 -5q1 -2 2 -4.5t1 -5.5v-31.5t2 -46.5q1 -37 5 -84t8 -96t7 -95t3 -80q0 -63 -6 -89.5t-13 -26.5q-8 0 -12.5 21.5t-6.5 50.5l-5 75t-11 106q-7 53 -15.5 118t-10.5 122zM130 -53q14 0 22 -7t8 -21q0 -11 -4 -18.5 t-12 -18.5q-7 11 -15 15.5t-19 4.5q-8 0 -17.5 -10t-9.5 -18q0 -7 17 -16.5t37 -13.5q19 5 38.5 9t39.5 9l-26 -53q-19 -2 -60.5 -10.5t-104.5 -34.5l11 28q21 13 42 24q-20 12 -26.5 20.5t-6.5 21.5q0 12 9 27t22 29t28 23.5t27 9.5z" glyph-name="alefhamzabelow" horiz-adv-x="240" unicode="إ"/><glyph d="M114 180q-16 -38 -31 -78t-15 -77q0 -29 13 -51.5t34 -38t48 -23.5t54 -8q96 0 211 61q9 5 19.5 10.5t19.5 11.5t15 12t6 12q0 14 -39 14q-50 5 -81.5 10.5t-49 17t-24 30.5t-6.5 50t21 67t72 91q35 38 65 56t53 18q53 0 53 -40q0 -32 -16 -64q-17 7 -29 11t-19 4 q-18 0 -44.5 -11t-50.5 -27t-41 -34.5t-17 -34.5q0 -11 2 -19.5t12 -15.5t29 -13t54 -12q36 -6 57 -12t32 -14t14 -18.5t3 -24.5q0 -26 -9 -56q-11 -35 -45 -66.5t-80.5 -55t-100 -37t-102.5 -13.5q-89 0 -135 41.5t-46 123.5q0 57 19.5 112.5t54.5 106.5zM246 449 q14 0 22 -7t8 -21q0 -11 -4 -18.5t-12 -18.5q-7 11 -15 15.5t-19 4.5q-8 0 -17.5 -10t-9.5 -18q0 -7 17 -16.5t37 -13.5q19 5 38.5 9t39.5 9l-26 -53q-19 -2 -60.5 -10.5t-104.5 -34.5l11 28q21 13 42 24q-20 12 -26.5 20.5t-6.5 21.5q0 12 9 27t22 29t28 23.5t27 9.5z" glyph-name="yehhamza" horiz-adv-x="572" unicode="ئ"/><glyph d="M75 493q1 4 7 15.5t14.5 24t16.5 22t12 9.5q1 -2 2 -5q1 -2 2 -4.5t1 -5.5v-31.5t2 -46.5q1 -37 5 -84t8 -96t7 -95t3 -80q0 -63 -6 -89.5t-13 -26.5q-8 0 -12.5 21.5t-6.5 50.5l-5 75t-11 106q-7 53 -15.5 118t-10.5 122z" glyph-name="arabicalef" horiz-adv-x="240" unicode="ا"/><glyph d="M372 -118l69 -50l-50 -65l-69 50zM86 237q-5 -10 -12 -25.5t-7 -41.5q0 -59 52.5 -82t165.5 -23q80 0 147.5 10t116 24.5t76 31.5t27.5 32q0 5 -4.5 14t-10.5 19.5t-12.5 20.5t-10.5 16l32 85q23 -31 35.5 -64t12.5 -61q0 -10 -5 -28t-12.5 -37.5t-17 -37t-17.5 -24.5 q-17 -15 -55 -29.5t-88 -25.5t-107.5 -18t-112.5 -7q-70 0 -119 9t-80 26t-45.5 40t-14.5 52t8.5 62.5t34.5 75.5z" glyph-name="beh" horiz-adv-x="714" unicode="ب"/><glyph d="M122 265q6 5 17 5t20 -5q43 -25 63 -63t20 -95q0 -62 -25 -84.5t-84 -22.5q-37 0 -60 21.5t-23 56.5q0 26 4.5 53t14.5 53q10 27 23.5 47t29.5 34zM144 85q15 0 28.5 3t27.5 8q1 32 -19 55.5t-51 23.5q-11 0 -20 -18.5t-15 -47.5q8 -8 23 -16t26 -8zM58 442l68 -52 l-52 -67l-67 52zM146 460l67 -52l-52 -68l-67 52z" glyph-name="tehmarbuta" horiz-adv-x="292" unicode="ة"/><glyph d="M295 369l68 -52l-52 -67l-67 52zM383 387l67 -52l-52 -68l-67 52zM86 237q-5 -10 -12 -25.5t-7 -41.5q0 -59 52.5 -82t165.5 -23q80 0 147.5 10t116 24.5t76 31.5t27.5 32q0 5 -4.5 14t-10.5 19.5t-12.5 20.5t-10.5 16l32 85q23 -31 35.5 -64t12.5 -61q0 -10 -5 -28 t-12.5 -37.5t-17 -37t-17.5 -24.5q-17 -15 -55 -29.5t-88 -25.5t-107.5 -18t-112.5 -7q-70 0 -119 9t-80 26t-45.5 40t-14.5 52t8.5 62.5t34.5 75.5z" glyph-name="teh" horiz-adv-x="714" unicode="ت"/><glyph d="M292 348l70 -53l-53 -69l-69 52zM381 365l69 -53l-54 -68l-68 53zM320 471l68 -53l-52 -69l-70 52zM86 237q-5 -10 -12 -25.5t-7 -41.5q0 -59 52.5 -82t165.5 -23q80 0 147.5 10t116 24.5t76 31.5t27.5 32q0 5 -4.5 14t-10.5 19.5t-12.5 20.5t-10.5 16l32 85 q23 -31 35.5 -64t12.5 -61q0 -10 -5 -28t-12.5 -37.5t-17 -37t-17.5 -24.5q-17 -15 -55 -29.5t-88 -25.5t-107.5 -18t-112.5 -7q-70 0 -119 9t-80 26t-45.5 40t-14.5 52t8.5 62.5t34.5 75.5z" glyph-name="theh" horiz-adv-x="714" unicode="ث"/><glyph d="M49 145q17 32 29.5 50.5t24 28t24.5 12t32 2.5q11 0 36 -4t54.5 -9.5t58 -10.5t46.5 -6q25 -2 48 -3t46 -1h22.5t23.5 1l-31 -72q-88 0 -160.5 -22t-124 -59.5t-80 -88t-28.5 -108.5q0 -48 20 -88.5t58 -70.5t92.5 -47t123.5 -17h32h44.5t45.5 0.5t35 1.5v-25 q-81 -35 -134 -46.5t-73 -11.5q-66 0 -120 18.5t-92.5 52.5t-60 82.5t-21.5 107.5q0 100 50.5 186t149.5 143l-32 6t-29.5 5t-22.5 3t-11 1q-15 0 -29.5 -6.5t-25.5 -23.5zM301 -81l69 -50l-50 -65l-69 50z" glyph-name="jeem" horiz-adv-x="506" unicode="ج"/><glyph d="M49 145q17 32 29.5 50.5t24 28t24.5 12t32 2.5q11 0 36 -4t54.5 -9.5t58 -10.5t46.5 -6q25 -2 48 -3t46 -1h22.5t23.5 1l-31 -72q-88 0 -160.5 -22t-124 -59.5t-80 -88t-28.5 -108.5q0 -48 20 -88.5t58 -70.5t92.5 -47t123.5 -17h32h44.5t45.5 0.5t35 1.5v-25 q-81 -35 -134 -46.5t-73 -11.5q-66 0 -120 18.5t-92.5 52.5t-60 82.5t-21.5 107.5q0 100 50.5 186t149.5 143l-32 6t-29.5 5t-22.5 3t-11 1q-15 0 -29.5 -6.5t-25.5 -23.5z" glyph-name="hah" horiz-adv-x="506" unicode="ح"/><glyph d="M49 145q17 32 29.5 50.5t24 28t24.5 12t32 2.5q11 0 36 -4t54.5 -9.5t58 -10.5t46.5 -6q25 -2 48 -3t46 -1h22.5t23.5 1l-31 -72q-88 0 -160.5 -22t-124 -59.5t-80 -88t-28.5 -108.5q0 -48 20 -88.5t58 -70.5t92.5 -47t123.5 -17h32h44.5t45.5 0.5t35 1.5v-25 q-81 -35 -134 -46.5t-73 -11.5q-66 0 -120 18.5t-92.5 52.5t-60 82.5t-21.5 107.5q0 100 50.5 186t149.5 143l-32 6t-29.5 5t-22.5 3t-11 1q-15 0 -29.5 -6.5t-25.5 -23.5zM252 412l69 -50l-50 -65l-69 50z" glyph-name="khah" horiz-adv-x="506" unicode="خ"/><glyph d="M120 262q-1 1 -1 5q0 14 4 29t10 27.5t13 20.5t13 8q22 -3 51 -25t54 -55t42.5 -74t17.5 -83q0 -62 -48 -89t-154 -27q-17 0 -37 2t-35 4l6 105q4 -2 14.5 -4.5t23 -4.5t25 -3.5t21.5 -1.5q36 0 70.5 9t69.5 31q2 2 2 8q0 11 -14 26t-36.5 31.5t-52 32.5t-59.5 28z" glyph-name="dal" horiz-adv-x="374" unicode="د"/><glyph d="M120 262q-1 1 -1 5q0 14 4 29t10 27.5t13 20.5t13 8q22 -3 51 -25t54 -55t42.5 -74t17.5 -83q0 -62 -48 -89t-154 -27q-17 0 -37 2t-35 4l6 105q4 -2 14.5 -4.5t23 -4.5t25 -3.5t21.5 -1.5q36 0 70.5 9t69.5 31q2 2 2 8q0 11 -14 26t-36.5 31.5t-52 32.5t-59.5 28z M85 517l69 -50l-50 -65l-69 50z" glyph-name="thal" horiz-adv-x="374" unicode="ذ"/><glyph d="M251 234l8 2q35 -36 57.5 -77t22.5 -87q0 -31 -16 -76t-44 -86.5t-66 -71t-81 -29.5q-15 0 -32.5 6t-34 14.5t-29.5 17t-19 14.5v24q8 -4 24.5 -9.5t31.5 -5.5q50 0 88.5 19t62.5 42q9 8 20.5 23t22.5 32.5t18.5 34t7.5 28.5q0 6 -8.5 20.5t-20.5 32.5t-25.5 36t-23.5 32 z" glyph-name="reh" horiz-adv-x="372" unicode="ر"/><glyph d="M251 234l8 2q35 -36 57.5 -77t22.5 -87q0 -31 -16 -76t-44 -86.5t-66 -71t-81 -29.5q-15 0 -32.5 6t-34 14.5t-29.5 17t-19 14.5v24q8 -4 24.5 -9.5t31.5 -5.5q50 0 88.5 19t62.5 42q9 8 20.5 23t22.5 32.5t18.5 34t7.5 28.5q0 6 -8.5 20.5t-20.5 32.5t-25.5 36t-23.5 32 zM107 364l69 -50l-50 -65l-69 50z" glyph-name="zain" horiz-adv-x="333" unicode="ز"/><glyph d="M100 12q-15 -26 -26.5 -54t-11.5 -58q0 -42 42.5 -68.5t111.5 -26.5q49 0 86 13t61.5 34t37.5 46t13 49q0 21 -2.5 36t-8.5 28.5t-17 28t-28 34.5l46 74q13 -22 22 -35.5t20.5 -21t27 -10t40.5 -2.5q33 0 60 12t41 35q9 15 14 26.5t8.5 19t7 11t10.5 3.5t10.5 -4.5 t6.5 -13t8.5 -19.5t17.5 -24q17 -20 36 -20q5 0 10 4t5 12q0 14 -8 24.5t-16 17.5l47 79q7 -17 15 -43.5t8 -49.5q0 -60 -19.5 -93.5t-56.5 -33.5q-14 0 -37.5 8.5t-49.5 25.5q-36 -59 -122 -59h-25t-24 2q0 -41 -12 -90t-42 -91.5t-79.5 -71.5t-122.5 -29q-85 0 -135 42.5 t-50 115.5q0 44 15.5 83t42.5 73z" glyph-name="seen" horiz-adv-x="815" unicode="س"/><glyph d="M100 12q-15 -26 -26.5 -54t-11.5 -58q0 -42 42.5 -68.5t111.5 -26.5q49 0 86 13t61.5 34t37.5 46t13 49q0 21 -2.5 36t-8.5 28.5t-17 28t-28 34.5l46 74q13 -22 22 -35.5t20.5 -21t27 -10t40.5 -2.5q33 0 60 12t41 35q9 15 14 26.5t8.5 19t7 11t10.5 3.5t10.5 -4.5 t6.5 -13t8.5 -19.5t17.5 -24q17 -20 36 -20q5 0 10 4t5 12q0 14 -8 24.5t-16 17.5l47 79q7 -17 15 -43.5t8 -49.5q0 -60 -19.5 -93.5t-56.5 -33.5q-14 0 -37.5 8.5t-49.5 25.5q-36 -59 -122 -59h-25t-24 2q0 -41 -12 -90t-42 -91.5t-79.5 -71.5t-122.5 -29q-85 0 -135 42.5 t-50 115.5q0 44 15.5 83t42.5 73zM494 344l70 -53l-53 -69l-69 52zM583 361l69 -53l-54 -68l-68 53zM522 467l68 -53l-52 -69l-70 52z" glyph-name="sheen" horiz-adv-x="815" unicode="ش"/><glyph d="M519 1q-20 0 -35 -0.5t-23 -0.5q0 -49 -13.5 -99.5t-44.5 -91t-80 -66.5t-119 -26q-85 0 -134.5 42.5t-49.5 115.5q0 48 15.5 83t41.5 73l22 -19q-14 -25 -26 -54t-12 -58q0 -42 42.5 -68.5t111.5 -26.5q49 0 86.5 13t62.5 33.5t37.5 46t12.5 49.5t-4 41.5t-11.5 32 t-17.5 27t-23 26.5l45 74q10 -20 19.5 -33.5t21 -21.5t27.5 -11t40 -3q25 42 60.5 80.5t74.5 67.5t78 46t71 17q38 0 60 -23.5t22 -64.5q0 -37 -21.5 -73t-66 -64.5t-112 -46t-158.5 -17.5zM739 196q-42 0 -88 -30t-81 -80q20 -1 53.5 5t69 17t67.5 26t50 32q-30 30 -71 30z" glyph-name="sad" horiz-adv-x="897" unicode="ص"/><glyph d="M519 1q-20 0 -35 -0.5t-23 -0.5q0 -49 -13.5 -99.5t-44.5 -91t-80 -66.5t-119 -26q-85 0 -134.5 42.5t-49.5 115.5q0 48 15.5 83t41.5 73l22 -19q-14 -25 -26 -54t-12 -58q0 -42 42.5 -68.5t111.5 -26.5q49 0 86.5 13t62.5 33.5t37.5 46t12.5 49.5t-4 41.5t-11.5 32 t-17.5 27t-23 26.5l45 74q10 -20 19.5 -33.5t21 -21.5t27.5 -11t40 -3q25 42 60.5 80.5t74.5 67.5t78 46t71 17q38 0 60 -23.5t22 -64.5q0 -37 -21.5 -73t-66 -64.5t-112 -46t-158.5 -17.5zM739 196q-42 0 -88 -30t-81 -80q20 -1 53.5 5t69 17t67.5 26t50 32q-30 30 -71 30z M495 361l69 -50l-50 -65l-69 50z" glyph-name="dad" horiz-adv-x="897" unicode="ض"/><glyph d="M201 620l57 -82q-15 -15 -21 -28.5t-6 -25.5q0 -22 3.5 -45.5t6.5 -46.5q5 -42 8 -82.5t3 -81.5q0 -11 -1 -23t-1 -23q67 58 112.5 85t80.5 27q41 0 69 -27.5t28 -65.5q0 -32 -23 -68t-72.5 -66t-127.5 -50t-188 -20q-20 0 -39.5 6t-35 16t-25 23t-9.5 26q0 5 4 10t15 6 q49 2 81.5 5t52 16t27.5 41t8 80q-6 58 -11 103t-11 81.5t-13 66t-17 56.5v-1q-2 5 -4.5 11.5t-4.5 11.5zM312 175q-45 -30 -69 -73q73 0 131.5 19.5t104.5 52.5q-19 15 -37 23t-41 8q-42 0 -89 -30z" glyph-name="tah" horiz-adv-x="560" unicode="ط"/><glyph d="M201 620l57 -82q-15 -15 -21 -28.5t-6 -25.5q0 -22 3.5 -45.5t6.5 -46.5q5 -42 8 -82.5t3 -81.5q0 -11 -1 -23t-1 -23q67 58 112.5 85t80.5 27q41 0 69 -27.5t28 -65.5q0 -32 -23 -68t-72.5 -66t-127.5 -50t-188 -20q-20 0 -39.5 6t-35 16t-25 23t-9.5 26q0 5 4 10t15 6 q49 2 81.5 5t52 16t27.5 41t8 80q-6 58 -11 103t-11 81.5t-13 66t-17 56.5v-1q-2 5 -4.5 11.5t-4.5 11.5zM312 175q-45 -30 -69 -73q73 0 131.5 19.5t104.5 52.5q-19 15 -37 23t-41 8q-42 0 -89 -30zM358 493l69 -50l-50 -65l-69 50z" glyph-name="zah" horiz-adv-x="560" unicode="ظ"/><glyph d="M534 -388q-23 -9 -49 -19t-51.5 -19t-48.5 -14.5t-40 -5.5q-75 0 -135 19.5t-102.5 55t-65 86t-22.5 112.5q0 66 25 139t81 155q-48 17 -63 34.5t-15 47.5q0 24 9 54q23 57 51.5 88t69.5 31q21 0 41.5 -10t43.5 -30q0 -8 -6 -12t-14 -4q-54 0 -94 -21.5t-62 -62.5 q42 -53 98 -53q9 0 24.5 5.5t34 13t38 17t35 17.5t26 13.5t11.5 6.5l12 -13l-41 -63q-62 -30 -110 -68t-81.5 -79.5t-51 -83.5t-17.5 -81q0 -52 23 -96t67 -75.5t107 -49t144 -17.5h32t24.5 0.5t29 1.5t46.5 3z" glyph-name="ain" horiz-adv-x="402" unicode="ع"/><glyph d="M534 -388q-23 -9 -49 -19t-51.5 -19t-48.5 -14.5t-40 -5.5q-75 0 -135 19.5t-102.5 55t-65 86t-22.5 112.5q0 66 25 139t81 155q-48 17 -63 34.5t-15 47.5q0 24 9 54q23 57 51.5 88t69.5 31q21 0 41.5 -10t43.5 -30q0 -8 -6 -12t-14 -4q-54 0 -94 -21.5t-62 -62.5 q42 -53 98 -53q9 0 24.5 5.5t34 13t38 17t35 17.5t26 13.5t11.5 6.5l12 -13l-41 -63q-62 -30 -110 -68t-81.5 -79.5t-51 -83.5t-17.5 -81q0 -52 23 -96t67 -75.5t107 -49t144 -17.5h32t24.5 0.5t29 1.5t46.5 3zM129 544l69 -50l-50 -65l-69 50z" glyph-name="ghain" horiz-adv-x="402" unicode="غ"/><glyph d="M163 0h-173v78h173v-78z" glyph-name="tatweel" horiz-adv-x="163" unicode="ـ"/><glyph d="M70 243q-6 -23 -8.5 -39t-2.5 -28q0 -52 51 -74.5t151 -22.5q36 0 81.5 2t98.5 9q42 5 73.5 11.5t55.5 16t43.5 23.5t37.5 34q-2 12 -8 21.5t-12 11.5q-43 -49 -79 -49q-27 0 -40 19t-13 48q0 27 6 54.5t16 49t21.5 35t22.5 13.5q19 0 40.5 -20.5t39.5 -51t29.5 -65.5 t11.5 -63q0 -35 -12.5 -64.5t-35.5 -46.5q-37 -27 -94.5 -42t-118.5 -22.5t-116.5 -9t-87.5 -1.5q-105 0 -153 34t-48 118q0 53 29 111zM546 240q6 -2 9 -2q14 0 24 4t10 13q0 13 -29 33q-5 -8 -9.5 -20.5t-4.5 -27.5zM453 524l69 -50l-50 -65l-69 50z" glyph-name="feh" horiz-adv-x="706" unicode="ف"/><glyph d="M110 202q-15 -23 -29 -57t-14 -65q0 -52 34.5 -83t101.5 -31q95 0 164.5 34t92.5 91q0 35 -14 60q-11 -12 -26 -20.5t-39 -14.5q-38 0 -65 19.5t-27 57.5q0 9 4.5 26.5t13.5 37.5t22.5 38.5t30.5 29.5h-1q7 5 13.5 7.5t14.5 2.5q17 0 37 -19t36.5 -49t27.5 -66.5 t11 -70.5q0 -54 -24 -102.5t-65.5 -85t-95.5 -58t-114 -21.5q-83 0 -131.5 47.5t-48.5 128.5q0 85 73 182zM374 211q17 0 20.5 3t11.5 6q-17 25 -37 25q-11 0 -20 -6t-9 -14q0 -5 11.5 -9.5t22.5 -4.5zM253 488l68 -52l-52 -67l-67 52zM341 506l67 -52l-52 -68l-67 52z" glyph-name="qaf" horiz-adv-x="519" unicode="ق"/><glyph d="M36 108q48 -18 91.5 -22.5t85.5 -4.5q59 0 100 2t66.5 6.5t37 12.5t11.5 19q0 13 -6 47t-15.5 78.5t-21.5 94.5t-24 94t-22 76.5t-16 43.5l50 60q18 -43 62 -76q-13 -16 -20.5 -33t-7.5 -37q21 -83 40.5 -168.5t22.5 -177.5q0 -11 -1 -23t-6 -19h1q-8 -24 -17.5 -41 t-34.5 -27.5t-72 -15.5t-129 -5q-72 0 -118 5.5t-73 27.5zM79 219q21 2 46 7t46 11t35 12t14 9q0 1 -14.5 0.5t-31.5 1t-31.5 7t-14.5 17.5q0 6 8.5 23t21.5 35t28 32t27 14l1 -13q-11 -16 -20 -31t-15 -32q4 -2 18 -2t29 -2.5t26.5 -8.5t11.5 -21q0 -14 -9 -32t-23 -32 q-7 -7 -18.5 -10.5t-23.5 -5.5t-23.5 -2.5t-17.5 -0.5q-4 0 -12.5 0.5t-19 3t-21 7.5t-17.5 13z" glyph-name="arabickaf" horiz-adv-x="490" unicode="ك"/><glyph d="M359 612q8 -13 14.5 -22.5t13.5 -18t14 -16t17 -16.5q-34 -31 -34 -59q0 -12 4.5 -46.5t10.5 -81t10.5 -101t4.5 -106.5q0 -46 -8 -78t-25 -55.5t-44.5 -39.5t-67.5 -30q-11 -4 -33 -9.5t-54 -5.5q-75 0 -118.5 39t-43.5 105q0 50 18 93.5t53 83.5l26 -14 q-26 -37 -38.5 -66.5t-12.5 -59.5q0 -43 30.5 -69.5t87.5 -26.5q28 0 61 6t61.5 17.5t47.5 27.5t19 37q0 133 -15 242.5t-46 211.5z" glyph-name="lam" horiz-adv-x="438" unicode="ل"/><glyph d="M160 279q20 0 44 -14t44.5 -33.5t34.5 -39.5t14 -32q0 -10 -5.5 -33.5t-13.5 -44.5q-104 0 -160.5 -20.5t-56.5 -48.5q0 -2 2.5 -12.5t6 -25.5t8 -32.5t8.5 -34.5q11 -47 19 -84.5t13 -68t7.5 -56t2.5 -48.5q0 -29 -4.5 -45.5t-9.5 -16.5q-1 0 -8.5 31.5t-18 79 t-22.5 103t-22 102.5t-16.5 78.5l-6.5 31.5q0 25 9.5 49.5t29.5 44.5t52 34.5t76 21.5q-12 11 -25 21t-27 10q-10 0 -16.5 -8.5t-11.5 -19t-10.5 -19t-12.5 -8.5q-13 0 -13 12q0 17 8.5 38.5t21 41t28.5 33t31 13.5z" glyph-name="meem" horiz-adv-x="317" unicode="م"/><glyph d="M411 141q0 -26 -12.5 -64.5t-40.5 -74.5t-73.5 -61.5t-110.5 -25.5q-33 0 -63 11.5t-53 33.5t-37 53.5t-14 71.5q0 35 11 72t36 80l24 -17q-18 -34 -21 -60.5t-3 -49.5q0 -48 29.5 -77.5t104.5 -29.5q48 0 82 11.5t55 29t31 39t10 41.5q0 40 -19.5 84.5t-54.5 106.5 l26 75l9 1q18 -24 33 -53.5t26.5 -62.5t18 -67t6.5 -67zM146 497l69 -50l-50 -65l-69 50z" glyph-name="noon" horiz-adv-x="422" unicode="ن"/><glyph d="M122 265q6 5 17 5t20 -5q43 -25 63 -63t20 -95q0 -62 -25 -84.5t-84 -22.5q-37 0 -60 21.5t-23 56.5q0 26 4.5 53t14.5 53q10 27 23.5 47t29.5 34zM144 85q15 0 28.5 3t27.5 8q1 32 -19 55.5t-51 23.5q-11 0 -20 -18.5t-15 -47.5q8 -8 23 -16t26 -8z" glyph-name="heh" horiz-adv-x="292" unicode="ه"/><glyph d="M250 246q12 0 24.5 -10t22 -28t16 -43t6.5 -54q0 -55 -17 -109t-47 -97t-70 -69.5t-86 -26.5q-14 0 -28 5t-26.5 12.5t-22 17t-13.5 17.5v14q42 0 83 3.5t77 22t64.5 57.5t45.5 111q-22 -29 -53 -29q-29 0 -49.5 19.5t-20.5 55.5q0 21 9 44t23 42.5t30.5 32t31.5 12.5z M235 185q-8 0 -16.5 -12t-8.5 -18q0 -15 6 -22t21 -7q3 0 11.5 2t10.5 6q5 10 3.5 19.5t-6 16.5t-11 11t-10.5 4z" glyph-name="waw" horiz-adv-x="331" unicode="و"/><glyph d="M114 180q-16 -38 -31 -78t-15 -77q0 -29 13 -51.5t34 -38t48 -23.5t54 -8q96 0 211 61q9 5 19.5 10.5t19.5 11.5t15 12t6 12q0 14 -39 14q-50 5 -81.5 10.5t-49 17t-24 30.5t-6.5 50t21 67t72 91q35 38 65 56t53 18q53 0 53 -40q0 -32 -16 -64q-17 7 -29 11t-19 4 q-18 0 -44.5 -11t-50.5 -27t-41 -34.5t-17 -34.5q0 -11 2 -19.5t12 -15.5t29 -13t54 -12q36 -6 57 -12t32 -14t14 -18.5t3 -24.5q0 -26 -9 -56q-11 -35 -45 -66.5t-80.5 -55t-100 -37t-102.5 -13.5q-89 0 -135 41.5t-46 123.5q0 57 19.5 112.5t54.5 106.5z" glyph-name="alefmaksura" horiz-adv-x="572" unicode="ى"/><glyph d="M114 180q-16 -38 -31 -78t-15 -77q0 -29 13 -51.5t34 -38t48 -23.5t54 -8q96 0 211 61q9 5 19.5 10.5t19.5 11.5t15 12t6 12q0 14 -39 14q-50 5 -81.5 10.5t-49 17t-24 30.5t-6.5 50t21 67t72 91q35 38 65 56t53 18q53 0 53 -40q0 -32 -16 -64q-17 7 -29 11t-19 4 q-18 0 -44.5 -11t-50.5 -27t-41 -34.5t-17 -34.5q0 -11 2 -19.5t12 -15.5t29 -13t54 -12q36 -6 57 -12t32 -14t14 -18.5t3 -24.5q0 -26 -9 -56q-11 -35 -45 -66.5t-80.5 -55t-100 -37t-102.5 -13.5q-89 0 -135 41.5t-46 123.5q0 57 19.5 112.5t54.5 106.5z" glyph-name="yeh" horiz-adv-x="572" unicode="ي"/><glyph d="M0 596q1 6 3.5 15.5l5 19t5.5 17t6 10.5q6 6 29.5 18.5t54.5 27t64 30t58 28.5q0 -5 -1.5 -12.5t-3.5 -16.5t-6 -17.5t-9 -14.5q-5 -5 -28.5 -17.5t-54 -27.5t-64 -31t-59.5 -29zM0 501q1 6 3.5 15.5l5 19t5.5 17t6 10.5q6 6 29.5 18.5t54.5 27t64 30t58 28.5 q0 -5 -1.5 -12.5t-3.5 -16.5t-6 -17.5t-9 -14.5q-5 -5 -28.5 -17.5t-54 -27.5t-64 -31t-59.5 -29z" glyph-name="fathatan" unicode="ً"/><glyph d="M153 874q13 0 25 -9t21 -23t14 -32.5t5 -37.5h-11q-2 24 -15.5 39t-35.5 15q-23 0 -43 -15t-34 -35.5t-22 -41t-8 -32.5q0 -14 7.5 -26.5t16.5 -22t17 -15.5t10 -7l-28 -8q-5 2 -15 10t-20 20t-18 26.5t-8 28.5q0 24 12.5 52.5t32.5 54t45.5 42.5t51.5 17zM157 791 q9 0 15.5 -6.5t10.5 -16t6 -21.5t2 -24q0 -19 -4.5 -36t-11.5 -33q5 -5 10.5 -11.5t5.5 -10.5q0 -2 -1.5 -7.5t-3.5 -11t-5 -10t-6 -4.5q-5 0 -10.5 8.5t-7.5 10.5q-12 -22 -29 -42t-36 -35.5t-39 -24.5t-39 -9q-11 0 -11 4t8 9q16 12 33.5 26.5t33.5 30.5t30 33t23 32 q-7 6 -16 11t-17.5 10.5t-14 12.5t-5.5 17q0 13 8 30t20 32t26 25.5t25 10.5zM115 704q0 -5 4.5 -8.5t10.5 -7t12 -6t9 -5.5q12 22 12 38q0 8 -3 14.5t-11 6.5q-3 0 -9 -3.5t-11.5 -9t-9.5 -11t-4 -8.5z" glyph-name="dammatan" unicode="ٌ"/><glyph d="M0 -370q1 6 3.5 15.5l5 19t5.5 17t6 10.5q6 6 29.5 18.5t54.5 27t64 30t58 28.5q0 -5 -1.5 -12.5t-3.5 -16.5t-6 -17.5t-9 -14.5q-5 -5 -28.5 -17.5t-54 -27.5t-64 -31t-59.5 -29zM0 -276q1 6 3.5 15.5l5 19t5.5 17t6 10.5q6 6 29.5 18.5t54.5 27t64 30t58 28.5 q0 -5 -1.5 -12.5t-3.5 -16.5t-6 -17.5t-9 -14.5q-5 -5 -28.5 -17.5t-54 -27.5t-64 -31t-59.5 -29z" glyph-name="kasratan" unicode="ٍ"/><glyph d="M0 501q1 6 3.5 15.5l5 19t5.5 17t6 10.5q6 6 29.5 18.5t54.5 27t64 30t58 28.5q0 -5 -1.5 -12.5t-3.5 -16.5t-6 -17.5t-9 -14.5q-5 -5 -28.5 -17.5t-54 -27.5t-64 -31t-59.5 -29z" glyph-name="fatha" unicode="َ"/><glyph d="M157 791q9 0 15.5 -6.5t10.5 -16t6 -21.5t2 -24q0 -19 -4.5 -36t-11.5 -33q5 -5 10.5 -11.5t5.5 -10.5q0 -2 -1.5 -7.5t-3.5 -11t-5 -10t-6 -4.5q-5 0 -10.5 8.5t-7.5 10.5q-12 -22 -29 -42t-36 -35.5t-39 -24.5t-39 -9q-11 0 -11 4t8 9q16 12 33.5 26.5t33.5 30.5t30 33 t23 32q-7 6 -16 11t-17.5 10.5t-14 12.5t-5.5 17q0 13 8 30t20 32t26 25.5t25 10.5zM115 704q0 -5 4.5 -8.5t10.5 -7t12 -6t9 -5.5q12 22 12 38q0 8 -3 14.5t-11 6.5q-3 0 -9 -3.5t-11.5 -9t-9.5 -11t-4 -8.5z" glyph-name="damma" unicode="ُ"/><glyph d="M0 -276q1 6 3.5 15.5l5 19t5.5 17t6 10.5q6 6 29.5 18.5t54.5 27t64 30t58 28.5q0 -5 -1.5 -12.5t-3.5 -16.5t-6 -17.5t-9 -14.5q-5 -5 -28.5 -17.5t-54 -27.5t-64 -31t-59.5 -29z" glyph-name="kasra" unicode="ِ"/><glyph d="M162 668q2 -5 4 -21.5t2 -33.5q0 -82 -49 -82q-18 0 -31 10q-4 -16 -17.5 -29t-30.5 -13q-40 0 -40 53q0 12 1.5 29t3.5 23l15 7q0 -27 3.5 -44.5t17.5 -17.5q23 0 29 23.5t6 57.5l16 8q0 -7 1 -16.5t4 -18t8 -14.5t14 -6q17 0 22 19t5 57z" glyph-name="shadda" unicode="ّ"/><glyph d="M80 681q9 0 21.5 -8t24 -20.5t19.5 -27.5t8 -29q0 -17 -8.5 -33.5t-22 -29.5t-30.5 -21t-35 -8q-29 0 -43 20t-14 43q0 18 2.5 29t7.5 24q14 28 32 44.5t38 16.5zM107 578q-5 15 -21.5 27.5t-35.5 14.5q-19 0 -19 -26q0 -10 9.5 -18.5t29.5 -8.5q23 0 37 11z" glyph-name="sukun" unicode="ْ"/><glyph d="M60 614q3 0 16 -4.5t33 -10.5t47 -10.5t59 -4.5q44 0 94 11t85 26q8 4 10.5 0.5t-2.5 -10.5q-32 -41 -81.5 -61.5t-129.5 -20.5q-36 0 -64 4.5t-48 10.5t-31 10.5t-13 4.5q-4 0 -7.5 -5.5t-7 -12.5t-8 -12.5t-11.5 -5.5q-4 0 -1.5 14t10.5 31.5t20.5 31.5t29.5 14z" glyph-name="madda" unicode="ٓ"/><glyph d="M101 686q14 0 22 -7t8 -21q0 -11 -4 -18.5t-12 -18.5q-7 11 -15 15.5t-19 4.5q-8 0 -17.5 -10t-9.5 -18q0 -7 17 -16.5t37 -13.5q19 5 38.5 9t39.5 9l-26 -53q-19 -2 -60.5 -10.5t-104.5 -34.5l11 28q21 13 42 24q-20 12 -26.5 20.5t-6.5 21.5q0 12 9 27t22 29t28 23.5 t27 9.5z" glyph-name="hamzaabove" unicode="ٔ"/><glyph d="M101 -173q14 0 22 -7t8 -21q0 -11 -4 -18.5t-12 -18.5q-7 11 -15 15.5t-19 4.5q-8 0 -17.5 -10t-9.5 -18q0 -7 17 -16.5t37 -13.5q19 5 38.5 9t39.5 9l-26 -53q-19 -2 -60.5 -10.5t-104.5 -34.5l11 28q21 13 42 24q-20 12 -26.5 20.5t-6.5 21.5q0 12 9 27t22 29t28 23.5 t27 9.5z" glyph-name="hamzabelow" unicode="ٕ"/><glyph d="M93 223l57 105l117 -52l-51 -105z" glyph-name="ar0" horiz-adv-x="360" unicode="٠"/><glyph d="M192 348q13 -36 22 -63t15 -48.5t8.5 -40.5t2.5 -40q0 -18 -1.5 -38.5t-6 -41.5t-13.5 -41.5t-23 -37.5q-11 3 -16.5 9.5t-8.5 18.5l7 78q0 48 -14.5 100t-45.5 107l41 96l31 -57z" glyph-name="ar1" horiz-adv-x="360" unicode="١"/><glyph d="M301 375q0 -27 -11 -47t-29 -34t-40 -22.5t-43 -13.5q2 -4 2.5 -8.5t2.5 -9.5q5 -23 8.5 -47.5t4.5 -53.5q0 -43 -4.5 -69.5t-11.5 -42t-15 -21.5t-14 -9l-15 31q-3 45 -5.5 77t-10 62t-22 63t-40.5 79l41 99q38 -60 94 -60q63 0 89 60z" glyph-name="ar2" horiz-adv-x="360" unicode="٢"/><glyph d="M153 100q0 -6 -3.5 -21.5t-9 -33t-12.5 -31.5t-13 -16q-22 7 -22 62q0 50 -19 112.5t-56 137.5l33 87q20 -26 44 -46t56 -18q18 2 38 19t37 41l17 -20q0 -8 3.5 -19t21.5 -11q8 0 13.5 7t10.5 17q5 7 10.5 14.5t27.5 15.5l12 -22q0 -14 -6.5 -33t-17.5 -36t-27.5 -29.5 t-35.5 -12.5q-22 0 -42 15q-11 -15 -29 -21t-43 -8q4 -27 8 -60.5t4 -89.5z" glyph-name="ar3" horiz-adv-x="360" unicode="٣"/><glyph d="M183 304q-20 0 -29.5 -5.5t-18.5 -18.5q30 -8 48 -21t18 -40q0 -26 -16 -50.5t-35 -47.5h1q-5 -7 -10.5 -10.5t-8.5 -10.5q3 -3 11.5 -6t16.5 -3q33 0 70.5 3.5t72.5 16.5q0 -15 -8.5 -34t-26.5 -36t-46.5 -29t-67.5 -12q-88 0 -88 60q5 27 17.5 50t27.5 49q8 9 16 24 q0 4 -0.5 4t-2.5 -0.5t-5.5 -1.5t-9.5 1q-8 3 -17.5 6.5t-17 9.5t-12.5 14.5t-5 20.5q0 6 6.5 24.5t24 43.5t47 52.5t75.5 50.5z" glyph-name="ar4" horiz-adv-x="360" unicode="٤"/><glyph d="M195 307q30 0 50 -16.5t31.5 -42t16 -56t4.5 -57.5q0 -42 -12.5 -68.5t-32.5 -41.5t-46 -20t-53 -5q-49 0 -70.5 32.5t-21.5 82.5q0 10 5.5 28.5t15.5 39.5t23 43t28 40t30.5 29.5t31.5 11.5zM189 210q-14 0 -25 -8t-19.5 -20.5t-15 -28t-12.5 -30.5l-5 -12q4 -8 19 -10 t44 -2q8 0 20 0.5t23.5 2.5t19.5 6.5t8 12.5q0 11 -3 26t-10 29t-17.5 24t-26.5 10z" glyph-name="ar5" horiz-adv-x="360" unicode="٥"/><glyph d="M270 372q-9 -41 -9 -77q0 -32 1.5 -56t6 -47.5t12.5 -48t20 -56.5l-40 -96q-5 6 -16 32.5t-22 64t-19.5 80.5t-8.5 81v24q-18 -3 -41 -3q-33 0 -52 3t-29 10.5t-13 20.5t-3 32q0 10 7 23t20 31q16 -8 41 -14t44 -6q14 0 29 3t31 6q5 2 13.5 3.5t13.5 2.5z" glyph-name="ar6" horiz-adv-x="360" unicode="٦"/><glyph d="M177 0q-14 0 -24 26t-18 56q-4 17 -7 30.5t-7 20.5q-20 53 -42.5 93t-59.5 81l23 105q44 -64 76 -119.5t57 -114.5q17 47 40 85.5t46.5 67.5t44.5 48t34 27l-15 -99q-8 -7 -21 -25t-28.5 -44.5t-31 -61.5t-28.5 -76q-2 -7 -3.5 -14t-2.5 -16q-1 -12 -3 -24.5t-5.5 -22.5 t-9.5 -16.5t-15 -6.5z" glyph-name="ar7" horiz-adv-x="360" unicode="٧"/><glyph d="M181 394q7 0 13.5 -7.5t11.5 -19.5t9 -27l8 -30q4 -16 7 -30t7 -21q19 -50 42.5 -89.5t60.5 -82.5l-24 -107q-44 65 -77 121t-56 113q-17 -50 -40 -89t-46.5 -67.5t-44.5 -46.5t-33 -26l12 100q7 9 20.5 26t29.5 43.5t32 61.5t28 79v2q0 5 2.5 14t4.5 17q4 24 11.5 45 t21.5 21z" glyph-name="ar8" horiz-adv-x="360" unicode="٨"/><glyph d="M157 405q43 0 62 -29q8 -25 12 -54.5t9 -57.5q7 -43 17 -85t38 -92l-33 -95q-16 11 -35.5 67t-45.5 158q-22 -10 -49 -10q-56 0 -69 51q0 35 8.5 62.5t22 46t30 28.5t33.5 10zM145 324q-11 0 -19.5 -11t-10.5 -19q6 -4 14 -5t16 -1t16.5 2.5t12.5 9.5q-2 5 -9 14.5 t-20 9.5z" glyph-name="ar9" horiz-adv-x="360" unicode="٩"/><glyph d="M219 392h35l-168 -434h-34zM101 333q0 -14 -9.5 -23.5t-23.5 -9.5t-23.5 9.5t-9.5 23.5t9.5 24t23.5 10t23.5 -10t9.5 -24zM274 20q0 -14 -9 -23t-23 -9t-24 9t-10 23t10.5 23.5t24.5 9.5t22.5 -9.5t8.5 -23.5z" glyph-name="arabicpercentsign" horiz-adv-x="308" unicode="٪"/><glyph d="M133 297q-18 -13 -40.5 -29.5t-39.5 -27.5l29 93q-17 13 -39 30t-39 28h97q7 21 16 48.5t16 47.5l32 -96h97l-79 -58q7 -20 15.5 -46.5t15.5 -46.5z" glyph-name="arabicfivepointedstar" horiz-adv-x="265" unicode="٭"/><glyph d="M24 736q4 0 12 -14t16 -37.5t13.5 -53.5t5.5 -62q0 -27 -3 -49t-9 -22q-4 0 -7.5 9.5t-6.5 25t-6.5 36t-8.5 42.5q-3 12 -8 23.5t-10 21t-8.5 16t-3.5 8.5q0 1 2.5 10t6.5 19t8 18.5t7 8.5z" glyph-name="superscriptalef" unicode="ٰ"/><glyph d="M101 686q14 0 22 -7t8 -21q0 -11 -4 -18.5t-12 -18.5q-7 11 -15 15.5t-19 4.5q-8 0 -17.5 -10t-9.5 -18q0 -7 17 -16.5t37 -13.5q19 5 38.5 9t39.5 9l-26 -53q-19 -2 -60.5 -10.5t-104.5 -34.5l11 28q21 13 42 24q-20 12 -26.5 20.5t-6.5 21.5q0 12 9 27t22 29t28 23.5 t27 9.5z" glyph-name="highhamza" horiz-adv-x="165" unicode="ٴ"/><glyph d="M615 -528q-14 0 -25 4t-13 16q1 15 4 18q-39 0 -83.5 -8.5t-84.5 -13.5q-75 -10 -134 -15t-112 -5q-16 0 -30.5 7t-23.5 30l-15 -22.5t-30 -10.5q-8 4 -16.5 9t-14.5 11q-8 -5 -31 -33q-1 1 -1 1.5t-1 1.5q1 10 6.5 20.5t12 19.5t13 15t9.5 6q7 -5 17 -11.5t15 -6.5 q11 2 18 5.5t14 17.5q7 13 12 13q1 0 1.5 -0.5t1.5 -0.5q0 -2 -0.5 -5.5t-0.5 -7.5q4 -16 23 -20t42 -4q34 0 72 2t84.5 6.5t105 11.5t135.5 18q0 4 -5 8.5t-11.5 7.5t-14 5.5t-13.5 3.5q-38 -5 -77 -9.5t-74.5 -8t-65.5 -5.5t-51 -2q-36 0 -57.5 1t-33.5 3.5t-15.5 7 t-3.5 12.5q0 15 12.5 31t31.5 31t41 28t40.5 23t31.5 15.5l13 5.5q1 0 2.5 -2.5t2.5 -3.5q0 -4 -1 -6t-8 -6.5t-21.5 -12.5t-42.5 -24q-34 -20 -57 -37t-23 -25q0 -3 11.5 -5t28 -3.5t35.5 -2t34 -0.5q68 0 122.5 6.5t113.5 14.5q6 1 10.5 1.5t9.5 0.5q33 0 49 -14.5 t16 -26.5t-3.5 -20t-8 -12.5t-8.5 -6t-5 -1.5q0 -6 11 -9q25 0 41 2.5t26.5 7t16.5 11.5t9 17q2 5 4 5t2 -6q0 -4 -1 -9.5t-5 -16.5q1 -1 15 -1q16 0 25 3t14 8t8.5 13t7.5 17q6 7 8 7q1 -1 1 -7q-2 -7 -3 -13t-1 -8q5 -6 7.5 -7.5t16.5 -2.5q3 0 8 3q0 7 -1.5 8.5t-1.5 3.5 q2 11 5 17t6 14q2 0 5.5 -9t3.5 -16q0 -6 -2 -15.5t-6 -18.5t-10.5 -15t-16.5 -6q-13 0 -26 12q-5 -10 -19 -17t-33 -7q-16 0 -29 6q-20 -11 -61 -12zM137 -345q0 -5 -4 -14.5t-9 -10.5q-5 2 -11.5 8t-10.5 10q2 8 7.5 16t6.5 8t10 -5.5t11 -11.5zM99 -360q0 -3 -4 -13 t-6 -10q-3 3 -13.5 8t-10.5 10q0 9 11 23q12 -4 23 -18z" glyph-name="sekteh" unicode="۔"/><glyph d="M200.612 1037.4q-8 0 -14.001 -0.199219q-6 -0.200195 -9.2002 -0.200195q0 -19.583 -5.40039 -39.7656q-5.40039 -20.1836 -17.8008 -36.3691q-12.4014 -16.1865 -32.002 -26.5771q-19.6016 -10.3916 -47.6025 -10.3916q-34.0029 0 -53.8037 16.9854 q-19.8018 16.9854 -19.8018 46.1611q0 19.1836 6.20117 33.1719q6.2002 13.9873 16.6006 29.1748l8.80078 -7.59375q-5.60059 -9.99121 -10.4004 -21.5811q-4.80078 -11.5908 -4.80078 -23.1807q0 -16.7861 17.001 -27.377t44.6025 -10.5908q19.6016 0 34.6025 5.19531 q15.001 5.19629 25.002 13.3887q10 8.19336 15 18.3848q5.00098 10.1914 5.00098 19.7832t-1.60059 16.5859q-1.59961 6.99414 -4.59961 12.7891q-3.00098 5.79492 -7.00098 10.79q-4 4.99609 -9.2002 10.5908l18.001 29.5752q4 -7.99316 7.80078 -13.3887 q3.7998 -5.39551 8.40039 -8.59277q4.59961 -3.19727 11 -4.39648q6.40039 -1.19824 16.001 -1.19824q10.001 16.7852 24.2021 32.1719q14.2002 15.3877 29.8018 26.9775q15.6006 11.5898 31.2012 18.3838q15.6016 6.79395 28.4023 6.79395q15.2012 0 24.001 -9.3916 q8.80078 -9.3916 8.80078 -25.7783q0 -14.7871 -8.60059 -29.1748t-26.4014 -25.7773q-17.8008 -11.3906 -44.8027 -18.3848t-63.4043 -6.99414zM288.618 1115.33q-16.8008 0 -35.2021 -11.9893q-18.4014 -11.9902 -32.4023 -31.9727q8.00098 -0.400391 21.4014 1.99805 q13.4014 2.39746 27.6016 6.79395q14.2012 4.39648 27.002 10.3916q12.8008 5.99414 20.001 12.7891q-12 11.9893 -28.4014 11.9893z" glyph-name="highsad" unicode="ۖ"/><glyph glyph-name="highqaf" unicode="ۗ"/><glyph d="M86 1139l-20 -33l-36 19l20 34zM125 1100l4 1q18 -18 29 -38.5t11 -43.5q0 -16 -8 -38.5t-22 -43.5t-33 -35.5t-40 -14.5q-16 0 -33.5 10.5t-24.5 15.5v12q5 -2 12.5 -4.5t15.5 -2.5q25 0 44.5 9.5t31.5 20.5q4 4 10 11.5t11 16.5t9 17.5t4 14.5q0 3 -4 10t-10 16t-13 18 t-12 16z" glyph-name="highzain" unicode="ۘ"/><glyph d="M59.1406 1098.35q-3.19727 0 -8.5918 4.20898t-11.1885 10.2227q-5.79395 6.0127 -11.1885 12.2266q-5.39453 6.21289 -8.19238 10.623q0 11.2246 2.39746 22.0488q2.39844 10.8232 8.79199 20.043q16.7822 -14.4316 31.9678 -29.6641q15.1846 -15.2344 30.3691 -34.4766 t30.9688 -43.8955q15.7842 -24.6543 34.165 -57.5264q5.99414 19.6426 8.79199 44.498q2.79688 24.8535 2.79688 45.6992q0 7.2168 -0.599609 16.0352q-0.599609 8.82031 -1.39844 17.6387q-0.798828 8.82031 -1.79785 16.6367q-0.999023 7.81738 -1.79883 12.2266 q4.39551 5.61328 8.79102 11.626t8.79199 11.626q5.19434 -8.01758 10.9883 -15.835t11.7881 -15.835q-9.19043 -8.81934 -12.5869 -15.6348q-3.39648 -6.81445 -3.39648 -14.0303q0 -17.2373 -0.599609 -35.2773t-2.79688 -35.6787q-2.19824 -17.6387 -6.19434 -34.4746 q-3.99609 -16.8379 -10.7891 -31.6699q1.59863 -6.01367 3.19727 -12.2266q1.59766 -6.21387 2.79688 -12.0264q1.19824 -5.81348 1.99805 -10.2227q0.798828 -4.40918 0.798828 -6.41406q0 -8.81934 -3.5957 -14.2314q-3.59668 -5.41211 -10.9893 -8.41797 q-7.39258 -3.00684 -18.5811 -4.00879q-11.1895 -1.00293 -25.9736 -1.00293q-6.39453 0 -12.7871 0.401367q-6.39453 0.401367 -11.9883 2.00488v26.8584q18.7812 0 32.167 11.2246q13.3867 11.2246 21.7783 26.458q-23.5762 40.0879 -44.3555 69.3516 q-20.7783 29.2646 -37.5615 44.498q-3.19727 -3.60742 -6.39355 -3.60742zM158.24 951.225q-0.798828 4.00879 -1.19824 6.61426q-0.399414 2.60645 -1.59863 7.01562q-2.79688 -3.6084 -5.99414 -6.61426q-3.19629 -3.00684 -6.39355 -7.01562h15.1846z" glyph-name="highlam.alef" horiz-adv-x="563" unicode="ۙ"/><glyph d="M131 1063l-21 -35l-29 20l17 34zM12 1158q13 25 20.5 31t22.5 6q4 0 14.5 -1.5t22.5 -3.5t23 -4t18 -3q11 -1 20 -1h18h18l-12 -29q-71 0 -114 -32t-43 -79q0 -38 31 -63.5t86 -25.5h12.5h18t18.5 0.5t14 0.5v-10q-32 -14 -53.5 -18.5t-29.5 -4.5q-52 0 -84.5 28 t-32.5 76q0 40 20.5 74t59.5 57q-13 3 -24.5 4.5t-13.5 1.5q-14 0 -22 -12z" glyph-name="highjeem" unicode="ۚ"/><glyph d="M23 1011q0 10 6.5 17t17.5 7t18 -7t7 -17q0 -11 -7 -18.5t-18 -7.5t-17.5 7.5t-6.5 18.5zM0 949q0 11 6.5 18.5t16.5 7.5q11 0 18.5 -7.5t7.5 -18.5q0 -10 -7.5 -17t-18.5 -7q-10 0 -16.5 7t-6.5 17zM60 955q0 11 7 17.5t18 6.5q10 0 17 -6.5t7 -17.5t-7 -18t-17 -7 q-11 0 -18 7t-7 18z" glyph-name="highthreedots" unicode="ۛ"/><glyph d="M73.4053 1199.79l22.8008 -32.7725q-6 -5.99414 -8.40039 -11.3896t-2.40039 -10.1914q0 -8.79199 1.40039 -18.1846q1.40039 -9.3916 2.60059 -18.584q2 -16.7852 3.2002 -32.9717t1.2002 -32.5723q0 -4.39648 -0.400391 -9.19238t-0.400391 -9.19141 q26.8018 23.1797 45.0029 33.9707t32.2021 10.791q16.4004 0 27.6016 -10.9912q11.2012 -10.9902 11.2012 -26.1777q0 -12.7891 -9.20117 -27.1768q-9.2002 -14.3877 -29.002 -26.377q-19.8008 -11.9902 -51.0029 -19.9834t-75.2041 -7.99316q-8.00098 0 -15.8018 2.39844 q-7.7998 2.39746 -14 6.39453q-6.20117 3.99609 -10.001 9.19141q-3.80078 5.19629 -3.80078 10.3916q0 1.99805 1.60059 3.99707q1.60059 1.99805 6 2.39746q19.6016 0.799805 32.6025 1.99805q13.001 1.19922 20.8008 6.39453q7.80078 5.19629 11.001 16.3857 q3.2002 11.1914 3.2002 31.9727q-2.40039 23.1807 -4.40039 41.165q-2 17.9854 -4.40039 32.5723q-2.40039 14.5879 -5.2002 26.3779q-2.7998 11.7891 -6.7998 22.5801v-0.399414q-0.800781 1.99805 -1.80078 4.5957q-1 2.59863 -1.7998 4.59668zM117.808 1021.94 q-18.001 -11.9902 -27.6016 -29.1748q29.2021 0 52.6035 7.79297t41.8018 20.9824q-7.59961 5.99414 -14.8008 9.19141q-7.2002 3.19727 -16.4004 3.19727q-16.8018 0 -35.6025 -11.9893z" glyph-name="hightah" unicode="ۜ"/><glyph d="M147 -123q0 20 4 41t13 40q-36 2 -66 17.5t-52 40.5t-34 56t-12 65q0 37 13.5 68.5t36.5 55.5t53 38.5t62 16.5q-18 37 -18 82q0 34 13 65t35.5 54t53.5 36.5t66 13.5q23 0 46 -6t44 -16.5t38.5 -25t28.5 -31.5q12 16 29 30.5t38 25t43.5 17t44.5 6.5q35 0 66 -13.5 t54 -36.5t36.5 -54t13.5 -65q0 -45 -22 -82q36 -2 67 -18t53 -41t34.5 -56t12.5 -64q0 -34 -12.5 -65.5t-34.5 -56t-52.5 -40.5t-65.5 -18q20 -37 20 -80q0 -36 -13.5 -67t-36.5 -54.5t-54 -37t-66 -13.5q-48 0 -90 21t-65 59q-11 -17 -28.5 -31.5t-38.5 -25.5t-44.5 -17 t-45.5 -6q-35 0 -66 13.5t-53.5 37t-35.5 54.5t-13 67zM195 -23q-5 -23 -6 -41t-1 -35q0 -30 11 -56.5t30.5 -46.5t45.5 -31.5t57 -11.5q19 0 36.5 2t35 9.5t34.5 21t35 36.5q30 -44 63.5 -56.5t71.5 -12.5q30 0 56 11.5t45.5 31.5t31 46.5t11.5 56.5v7q0 16 -1.5 34 t-9.5 34q36 3 62.5 18t43.5 37t25 49.5t8 55.5t-8.5 55t-26 49t-45 37t-65.5 18q13 27 15 44t2 33q0 30 -11.5 56.5t-31 46.5t-45.5 31.5t-56 11.5q-38 0 -71.5 -13.5t-63.5 -57.5q-35 44 -68.5 57.5t-72.5 13.5q-31 0 -57 -11.5t-45.5 -31.5t-30.5 -46.5t-11 -56.5 q0 -17 1.5 -34t10.5 -41q-36 -3 -62 -18t-43 -37.5t-25 -50t-8 -55.5q0 -29 8 -56.5t24 -49t41 -36t60 -17.5zM846 -104l-1 -88l-38 22l1 109l103 46l39 -22l-85 -38l97 -53l-18 -31zM454 -307l-74 -51v45l92 63l91 -63v-45l-75 52v-111h-34v110zM380 628l74 -51v109h34 v-110l75 52v-45l-91 -63l-92 63v45zM74 -73l-80 36l37 22l103 -45l-10 -109l-39 -22l9 88l-96 -55l-18 30zM847 375l96 54l19 -30l-98 -55l83 -37l-38 -22l-102 46l10 108l40 23zM-6 307l84 37l-93 54l13 33l94 -54l-18 86l41 -23l22 -107l-103 -48z" glyph-name="ayah" horiz-adv-x="942" unicode="۝"/><glyph d="M206.776 945.17q-9.20801 -3.5918 -19.6162 -7.58203q-10.4092 -3.99121 -20.6172 -7.58203q-10.209 -3.5918 -19.416 -5.78613q-9.20801 -2.19531 -16.0137 -2.19531q-30.0244 0 -54.0439 7.78125q-24.0195 7.78223 -41.0342 21.9482q-17.0137 14.166 -26.0215 34.3184 q-9.00684 20.1514 -9.00684 44.8926q0 26.3369 10.0078 55.4678q10.0088 29.1299 32.4268 61.8525q-19.2158 6.7832 -25.2207 13.7666t-6.00488 18.9551q0 9.57715 3.60254 21.5488q9.20801 22.7451 20.6172 35.1162q11.4092 12.3701 27.8232 12.3701 q8.40723 0 16.6133 -3.99023q8.20703 -3.99121 17.415 -11.9717q0 -3.19238 -2.40234 -4.78906q-2.40234 -1.5957 -5.60449 -1.5957q-21.6182 0 -37.6309 -8.5791q-16.0137 -8.58008 -24.8203 -24.9404q16.8135 -21.1504 39.2314 -21.1504q3.60352 0 9.80859 2.19531 q6.20508 2.19434 13.6113 5.1875t15.2119 6.78418q7.80664 3.79004 14.0117 6.9834q6.20508 3.19141 10.4092 5.38672q4.20312 2.19434 4.60352 2.59375l4.80371 -5.1875l-16.4131 -25.1406q-24.8203 -11.9707 -44.0361 -27.1348t-32.627 -31.7246t-20.417 -33.3203 t-7.00586 -32.3223q0 -20.751 9.20703 -38.3086q9.20801 -17.5586 26.8223 -30.1289q17.6152 -12.5693 42.8359 -19.5527t57.6475 -6.9834h12.8105q4.80371 0 9.80762 0.199219t11.6094 0.598633t18.6152 1.19727z" glyph-name="highain" unicode="۟"/><glyph glyph-name="highqaf.feh" unicode="۠"/><glyph d="M13 599q11 14 34.5 19t51.5 5q32 0 55.5 -9t23.5 -26q0 -6 -2 -12q-16 -39 -43 -56t-75 -17h-15.5t-18.5 1t-15.5 2.5t-6.5 4.5t11.5 6.5t25.5 7t26.5 6t15.5 3.5q14 5 28.5 12t23.5 15q-26 8 -49 8q-38 0 -84 -22q0 16 2.5 28.5t10.5 23.5z" glyph-name="dotlessheadofkhah" unicode="ۡ"/><glyph d="M59.1113 1211.61q8.01367 0 17.6309 -5.59961q9.61621 -5.60059 17.8311 -13.4014q8.21387 -7.80078 13.8232 -15.8008q5.61035 -8 5.61035 -12.8008q0 -4 -2.2041 -13.4004q-2.2041 -9.40137 -5.40918 -17.8018q-41.6729 0 -64.3115 -8.2002 q-22.6396 -8.2002 -22.6396 -19.4014q0 -0.799805 1.00195 -5t2.4043 -10.2012q1.40234 -6 3.20508 -13q1.80371 -7.00098 3.40625 -13.8018q4.40723 -18.8008 7.61328 -33.8018q3.20508 -15.001 5.20898 -27.2012q2.00293 -12.2012 3.00488 -22.4014 q1.00195 -10.2012 1.00195 -19.4014q0 -11.6006 -1.80273 -18.2012q-1.80371 -6.60059 -3.80664 -6.60059q-0.401367 0 -3.40625 12.6006t-7.21289 31.6025q-4.20703 19.001 -9.01562 41.2021q-4.80762 22.2012 -8.81543 41.0029q-4.00684 18.8008 -6.61133 31.4014 l-2.60449 12.6006q0 10.001 3.80664 19.8018t11.8203 17.8008q8.01465 8.00098 20.8369 13.8008q12.8223 5.80078 30.4521 8.60059q-4.80762 4.40039 -10.0166 8.40039t-10.8193 4q-4.00684 0 -6.61133 -3.39941q-2.60449 -3.40039 -4.6084 -7.60059 q-2.00293 -4.2002 -4.20703 -7.60059t-5.00879 -3.40039q-5.20898 0 -5.20898 4.80078q0 6.7998 3.40625 15.4004t8.41406 16.4014q5.00879 7.80078 11.4199 13.2002q6.41113 5.40039 12.4219 5.40039z" glyph-name="highmeem" unicode="ۢ"/><glyph d="M49.9326 -511.988q-7.48926 -13.0254 -13.2324 -27.0527q-5.74219 -14.0273 -5.74219 -29.0566q0 -21.041 21.2217 -34.3164q21.2217 -13.2764 55.6758 -13.2764q24.4668 0 42.9414 6.5127q18.4756 6.5127 30.709 17.0332t18.7246 23.0449t6.49121 24.5479 q0 10.5205 -1.24805 18.0352t-4.24414 14.2783q-2.99609 6.7627 -8.48828 14.0273q-5.49316 7.26367 -13.9814 17.2832l22.9688 37.0723q6.49121 -11.0215 10.9854 -17.7852q4.49414 -6.7627 10.2363 -10.5195q5.74219 -3.75781 13.4814 -5.00977 q7.74023 -1.25293 20.2236 -1.25293q16.4775 0 29.959 6.01172q13.4824 6.01172 20.4727 17.5342q4.49414 7.51465 6.99121 13.2754q2.49609 5.76172 4.24414 9.51953q1.74707 3.75684 3.49512 5.50977q1.74707 1.75391 5.24316 1.75391q3.49512 0 5.24219 -2.25391 q1.74805 -2.25488 3.24609 -6.51367q1.49805 -4.25781 4.24414 -9.76855t8.73828 -12.0234q8.48828 -10.0195 17.9756 -10.0195q2.49707 0 4.99316 2.00391q2.49707 2.00391 2.49707 6.01172q0 7.01367 -3.99414 12.2744q-3.99512 5.25977 -7.98926 8.7666l23.4678 39.5771 q3.49512 -8.5166 7.49023 -21.793q3.99414 -13.2754 3.99414 -24.7979q0 -30.0586 -9.73633 -46.8408q-9.7373 -16.7832 -28.2119 -16.7832q-6.99121 0 -18.7256 4.25781q-11.7334 4.25879 -24.7158 12.7754q-17.9766 -29.5576 -60.9189 -29.5576h-12.4824t-11.9844 1.00195 q0 -20.54 -5.99219 -45.0879q-5.99121 -24.5479 -20.9717 -45.8389q-14.9795 -21.292 -39.6963 -35.8203t-61.168 -14.5283q-42.4424 0 -67.4092 21.292q-24.9668 21.291 -24.9668 57.8623q0 22.043 7.74023 41.5811q7.73926 19.5381 21.2207 36.5713z" glyph-name="lowseen" unicode="ۣ"/><glyph d="M0 644q0 6 4 15t10.5 18t14 15t14.5 6q12 0 33 -6t66 -6q23 0 48 2t57 13l4 -4q-20 -30 -56.5 -42t-71.5 -11q-32 1 -56.5 6.5t-32.5 6.5q-5 0 -14 -9t-14 -9q-6 0 -6 5z" glyph-name="smallmadda" unicode="ۤ"/><glyph d="M125 123q6 0 12.25 -5t11 -14t8 -21.5t3.25 -27q0 -27.5 -8.5 -54.5t-23.5 -48.5t-35 -34.75t-43 -13.25q-7 0 -14 2.5t-13.25 6.25t-11 8.5t-6.75 8.75v7q21 0 41.5 1.75t38.5 11t32.25 28.75t22.75 55.5q-11 -14.5 -26.5 -14.5q-14.5 0 -24.75 9.75t-10.25 27.75 q0 10.5 4.5 22t11.5 21.25t15.25 16t15.75 6.25zM117.5 92.5q-4 0 -8.25 -6t-4.25 -9q0 -7.5 3 -11t10.5 -3.5q1.5 0 5.75 1t5.25 3q2.5 5 1.75 9.75t-3 8.25t-5.5 5.5t-5.25 2z" glyph-name="smallwaw" horiz-adv-x="331" unicode="ۥ"/><glyph d="M67 90q-8 -19 -15.5 -39t-7.5 -38.5q0 -14.5 6.5 -25.75t17 -19t24 -11.75t27 -4q48 0 105.5 30.5q4.5 2.5 9.75 5.25t9.75 5.75t7.5 6t3 6q0 7 -19.5 7q-25 2.5 -40.75 5.25t-24.5 8.5t-12 15.25t-3.25 25t10.5 33.5t36 45.5q17.5 19 32.5 28t26.5 9q26.5 0 26.5 -20 q0 -16 -8 -32q-8.5 3.5 -14.5 5.5t-9.5 2q-9 0 -22.25 -5.5t-25.25 -13.5t-20.5 -17.25t-8.5 -17.25q0 -5.5 1 -9.75t6 -7.75t14.5 -6.5t27 -6q18 -3 28.5 -6t16 -7t7 -9.25t1.5 -12.25q0 -13 -4.5 -28q-5.5 -17.5 -22.5 -33.25t-40.25 -27.5t-50 -18.5t-51.25 -6.75 q-44.5 0 -67.5 20.75t-23 61.75q0 28.5 9.75 56.25t27.25 53.25z" glyph-name="smallyeh" horiz-adv-x="306" unicode="ۦ"/><glyph d="M7.40039 993.203q19.2012 -7.20117 36.6025 -9.00098t34.2021 -1.7998q23.6016 0 40.0029 0.799805q16.4004 0.799805 26.6016 2.59961q10.2002 1.80078 14.8008 5.00098t4.60059 7.60059q0 5.2002 -2.40039 18.8008t-6.2002 31.4023q-3.80078 17.8008 -8.60059 37.8018 q-4.80078 20.001 -9.60059 37.6025q-4.80078 17.6006 -8.80078 30.6016t-6.40039 17.4014l20.001 24.001q7.2002 -17.2002 24.8018 -30.4014q-5.2002 -6.40039 -8.2002 -13.2012q-3.00098 -6.7998 -3.00098 -14.8008q8.40137 -33.2021 16.2012 -67.4043 q7.80078 -34.2021 9.00098 -71.0039q0 -4.40039 -0.400391 -9.20117q-0.400391 -4.7998 -2.40039 -7.59961h0.400391q-3.2002 -9.60059 -7 -16.4014q-3.80078 -6.80078 -13.8008 -11.001q-10.001 -4.2002 -28.8027 -6.2002q-18.8008 -2 -51.6025 -2 q-28.8018 0 -47.2031 2.2002t-29.2021 11.001zM24.6016 1037.61q8.40039 0.799805 18.4014 2.7998t18.4014 4.40039t14.001 4.80078q5.60059 2.39941 5.60059 3.59961q0 0.400391 -5.80078 0.200195t-12.6006 0.400391q-6.80078 0.599609 -12.6006 2.7998 q-5.80078 2.2002 -5.80078 7.00098q0 2.39941 3.40039 9.2002q3.40039 6.7998 8.60059 14.001q5.2002 7.2002 11.2002 12.8008q6.00098 5.59961 10.8008 5.59961l0.400391 -5.2002q-4.40039 -6.40039 -8.00098 -12.4004q-3.59961 -6 -6 -12.8008 q1.59961 -0.799805 7.2002 -0.799805t11.6006 -1q6.00098 -1 10.6006 -3.40039q4.60059 -2.40039 4.60059 -8.40039q0 -5.60059 -3.60059 -12.8008q-3.59961 -7.20117 -9.2002 -12.8008q-2.7998 -2.80078 -7.40039 -4.2002q-4.60059 -1.40039 -9.40039 -2.2002 q-4.80078 -0.800781 -9.40039 -1q-4.60059 -0.200195 -7.00098 -0.200195q-1.59961 0 -5 0.200195q-3.40039 0.199219 -7.60059 1.2002q-4.2002 1 -8.40039 3t-7.00098 5.2002z" glyph-name="highkaf" unicode="ۧ"/><glyph d="M-14 -588.365q0.5 2.97754 1.75 7.69238t2.5 9.42871q1.25 4.71484 2.75 8.4375q1.5 3.72168 3 5.21094q3 2.97754 14.75 9.18066t27.25 13.3994t32 14.8887t29 14.1436q0 -2.48145 -0.75 -6.20312q-0.75 -3.72266 -1.75 -8.18848q-1 -4.4668 -3 -8.68555 q-2 -4.21777 -4.5 -7.19531q-2.5 -2.48145 -14.25 -8.68555q-11.75 -6.20312 -27 -13.6475t-32 -15.3848t-29.75 -14.3916z" glyph-name="lownoonkasra" unicode="ۨ"/><glyph d="M24 -139q4 0 12 -14t16 -37.5t13.5 -53.5t5.5 -62q0 -27 -3 -49t-9 -22q-4 0 -7.5 9.5t-6.5 25t-6.5 36t-8.5 42.5q-3 12 -8 23.5t-10 21t-8.5 16t-3.5 8.5q0 1 2.5 10t6.5 19t8 18.5t7 8.5z" glyph-name="subscriptalef" unicode="۪"/><glyph d="M173 -364q-3 -3 -9 -3q-8 0 -15 2t-15.5 7t-19.5 15t-26 25q13 -28 13 -53q0 -11 -4.5 -25t-13 -26t-20.5 -20.5t-26 -8.5q-11 0 -18 7t-11.5 16.5t-6 21t-1.5 20.5q1 5 4 6q2 0 4 -4t4 -9t3.5 -9t3.5 -4q16 0 28 8.5t19.5 19.5t11 21.5t3.5 14.5q0 5 -0.5 8.5t-2.5 8.5 t-7 12.5t-14 19.5q-15 20 -27 32.5t-12 30.5q0 2 2 2q4 0 13 -7.5t19.5 -17.5t21 -21t17.5 -18q17 -17 32 -24.5t26 -7.5q14 0 20.5 9.5t10 23.5t5.5 30.5t5 30.5t9 23.5t18 9.5q18 -7 30.5 -21t12.5 -41t-12 -34t-24 -7q-11 0 -18.5 0.5t-12.5 1.5q0 -11 -3 -31.5 t-17 -34.5zM235 -253q-7 13 -19 16q-13 0 -14 -18q4 -4 8 -4q16 0 25 6z" glyph-name="madpoint" unicode="۫"/><glyph d="M297 -305q-2 2 -3 2t-2 1q-2 1 -5.5 1t-5.5 -4q1 0 4 -1t6 0q5 0 6 1zM292 -239l-12 -21l-20 12l-8 -21l-26 15l10 22l24 -15l9 21zM180 -374q14 2 35.5 11t33.5 21q-2 4 -9.5 8.5t-12.5 6.5q-20 8 -36 -6t-30 -40q2 -1 7.5 -1h11.5zM210 -397q-5 2 -7 7q-19 -8 -30 -9 t-26 4l-4 -8t-5 -4q-5 0 -5 4q0 3 0.5 10t-8.5 10q-12 4 -22.5 -1.5t-20 -15.5t-17 -21t-12.5 -18q-25 -33 -42 -33q-12 0 -16.5 10.5t-4.5 25.5t3.5 31.5t8.5 28.5l5 -1q0 -2 -3.5 -13t-6 -23t-1.5 -22t9 -10q9 0 24.5 20.5t35.5 44.5q15 17 33.5 24.5t35.5 -2.5q4 -2 6 -5 t7 -6q4 10 12 24t20 25.5t26.5 17t30.5 -0.5q36 -16 22 -46q-1 -9 -12 -18q19 5 37 12.5t32 20.5q1 1 -3 3q-15 5 -24.5 2.5t-14.5 -0.5q-6 2 -8.5 11t2.5 21q5 11 12.5 17.5t15.5 4.5q20 -8 27 -31t-3 -48q-5 -6 -16.5 -13.5t-26.5 -14t-32 -11t-34 -4.5z" glyph-name="kasrpoint" unicode="۬"/><glyph d="M56.0039 -395.394q8 0 17.6016 -5.59961q9.59961 -5.60059 17.8008 -13.4014q8.2002 -7.80078 13.8008 -15.8008t5.60059 -12.8008q0 -4 -2.2002 -13.4004q-2.2002 -9.40137 -5.40039 -17.8018q-41.6025 0 -64.2041 -8.2002t-22.6016 -19.4014q0 -0.799805 1 -5 t2.40039 -10.2012q1.40039 -6 3.2002 -13q1.7998 -7.00098 3.40039 -13.8018q4.40039 -18.8008 7.60059 -33.8018t5.2002 -27.2012q2 -12.2012 3 -22.4014q1 -10.2012 1 -19.4014q0 -11.6006 -1.7998 -18.2012q-1.80078 -6.60059 -3.80078 -6.60059 q-0.399414 0 -3.40039 12.6006q-3 12.6006 -7.2002 31.6025q-4.2002 19.001 -9 41.2021q-4.80078 22.2012 -8.80078 41.0029q-4 18.8008 -6.60059 31.4014l-2.60059 12.6006q0 10.001 3.80078 19.8018q3.7998 9.80078 11.8008 17.8008q8 8.00098 20.8008 13.8008 q12.8008 5.80078 30.4023 8.60059q-4.80078 4.40039 -10.001 8.40039t-10.8008 4q-4 0 -6.59961 -3.39941q-2.60059 -3.40039 -4.60059 -7.60059t-4.2002 -7.60059t-5.00098 -3.40039q-5.2002 0 -5.2002 4.80078q0 6.7998 3.40039 15.4004t8.40039 16.4014 q5.00098 7.80078 11.4014 13.2002q6.40039 5.40039 12.4004 5.40039z" glyph-name="lowmeem" unicode="ۭ"/><glyph d="M134 193q14 -14 29.5 -25t31.5 -24l1 -5q-3 -11 -4 -16t-1.5 -8t-1 -5.5t-1.5 -8.5q-4 -16 -7 -35q-23 14 -40.5 25t-28.5 19q5 19 11 42.5t11 40.5zM195 144q-1 1 0 1v-1z" glyph-name="extendedarabicindicdigitzero" horiz-adv-x="308" unicode="۰"/><glyph d="M20 532v-532h-25v532h25z" glyph-name="zeronojoin" horiz-adv-x="15" unicode="‌"/><glyph d="M20 0h-25v490q-5 -5 -11 -11.5t-11 -11.5l-17 18l34 35l-34 34l17 18l34 -36q8 9 17.5 18.5l17.5 17.5l17 -18l-34 -34l34 -35l-17 -18l-22 23v-490z" glyph-name="zerojoin" horiz-adv-x="15" unicode="‍"/><glyph d="M59 508h-39v-508h-24v532h62l-22 22l18 18l52 -52l-52 -53l-18 18z" glyph-name="lefttoright" horiz-adv-x="15" unicode="‎"/><glyph d="M-41.9961 508h38.9971v-508h23.999v532h-61.9961l21.998 22l-17.999 18l-51.9961 -52l51.9961 -53l17.999 18z" glyph-name="righttoleft" horiz-adv-x="15" unicode="‏"/><glyph d="M340 230v-40h-347v40h347z" glyph-name="endash" horiz-adv-x="333" unicode="–"/><glyph d="M-680 230v-40h694v40h-694z" glyph-name="emdash" horiz-adv-x="667" unicode="—"/><glyph d="M132 361q0 -17 -11.5 -27t-28.5 -10q-23 0 -37 17t-14 43q0 31 21.5 60t58.5 43l8 -21q-51 -30 -51 -64q0 -9 4 -9q3 0 6 1q2 0 5 0.5t5 0.5q34 0 34 -34z" glyph-name="quoteleft" horiz-adv-x="173" unicode="‘"/><glyph d="M33 448q0 16 11 26t28 11q23 1 37 -16t15 -43q1 -31 -19.5 -60t-57.5 -45l-9 21q51 32 50 64q0 9 -5 9q-1 0 -2 -0.5t-3 -0.5q-3 -1 -10 -1q-33 0 -35 35z" glyph-name="quoteright" horiz-adv-x="170" unicode="’"/><glyph d="M132 45q0 -34 -22 -60.5t-59 -42.5l-7 21q52 28 52 64q0 8 -5 8h-5q-2 -1 -5.5 -1h-5.5q-14 0 -24 9.5t-10 24.5q0 17 11.5 27t28.5 10q24 0 37.5 -17t13.5 -43z" glyph-name="quotesinglbase" horiz-adv-x="173" unicode="‚"/></font>
</defs>
</svg>
