<svg width="160" height="54" viewBox="0 0 160 54" fill="none" xmlns="http://www.w3.org/2000/svg">
<path fill-rule="evenodd" clip-rule="evenodd" d="M154.072 54H5.92811C2.66088 54 0 50.9566 0 47.25V6.75C0 3.02993 2.66088 0 5.92811 0H154.072C157.336 0 160 3.02993 160 6.75V47.25C160 50.9566 157.336 54 154.072 54Z" fill="black"/>
<path fill-rule="evenodd" clip-rule="evenodd" d="M154.072 1.08067C156.812 1.08067 159.055 3.62918 159.055 6.75V47.25C159.055 50.3708 156.827 52.9193 154.072 52.9193H5.92811C3.18776 52.9193 0.944847 50.3708 0.944847 47.25V6.75C0.944847 3.62918 3.17304 1.08067 5.92811 1.08067H154.072ZM154.072 0H5.92811C2.66088 0 0 3.04339 0 6.75V47.25C0 50.9701 2.66088 54 5.92811 54H154.072C157.336 54 160 50.9701 160 47.25V6.75C160 3.04339 157.336 0 154.072 0Z" fill="#A6A6A6"/>
<path d="M84.2855 18.6321C83.2171 18.6321 82.3164 18.2583 81.6041 17.5224C80.8977 16.8072 80.5033 15.8212 80.521 14.8146C80.521 13.7403 80.886 12.8308 81.6041 12.1096C82.3135 11.3738 83.2142 11 84.2826 11C85.3392 11 86.2399 11.3738 86.964 12.1096C87.6821 12.8543 88.0471 13.7638 88.0471 14.8146C88.0353 15.8918 87.6704 16.8013 86.964 17.5195C86.2546 18.2612 85.354 18.6321 84.2855 18.6321ZM52.4945 18.6321C51.4496 18.6321 50.5431 18.2642 49.8013 17.5372C49.0655 16.8131 48.6917 15.8977 48.6917 14.8175C48.6917 13.7373 49.0655 12.8219 49.8013 12.0979C50.5284 11.3709 51.4349 11.0029 52.4945 11.0029C53.0125 11.0029 53.5158 11.106 53.9986 11.3149C54.4724 11.518 54.858 11.7947 55.1435 12.1332L55.2142 12.2185L54.4165 13.0015L54.3341 12.9043C53.8838 12.3687 53.2804 12.1067 52.4827 12.1067C51.7704 12.1067 51.1494 12.3598 50.6373 12.8602C50.1222 13.3635 49.8602 14.0228 49.8602 14.8205C49.8602 15.6181 50.1222 16.2774 50.6373 16.7807C51.1494 17.2811 51.7704 17.5342 52.4827 17.5342C53.2421 17.5342 53.8808 17.2811 54.3782 16.7807C54.6726 16.4864 54.8551 16.0743 54.9198 15.5533H52.3621V14.4525H56.0177L56.0324 14.5526C56.0589 14.738 56.0854 14.9294 56.0854 15.106C56.0854 16.1214 55.7793 16.9426 55.1729 17.5489C54.4842 18.2671 53.5835 18.6321 52.4945 18.6321ZM94.7638 18.4761H93.6365L90.184 12.9514L90.2134 13.9463V18.4731H89.0861V11.1589H90.3724L90.4077 11.2149L93.6542 16.4187L93.6247 15.4268V11.1589H94.7638V18.4761ZM75.8146 18.4761H74.6726V12.2598H72.6917V11.1589H77.7925V12.2598H75.8116V18.4761H75.8146ZM71.7616 18.4761H70.6225V11.1589H71.7616V18.4761ZM65.3599 18.4761H64.2208V12.2598H62.2399V11.1589H67.3407V12.2598H65.3599V18.4761ZM61.5188 18.4643H57.1509V11.1589H61.5188V12.2598H58.2929V14.2671H61.2038V15.3561H58.2929V17.3635H61.5188V18.4643ZM82.4401 16.766C82.9492 17.2752 83.5674 17.5313 84.2855 17.5313C85.0243 17.5313 85.6277 17.2811 86.131 16.766C86.6314 16.2656 86.8845 15.6093 86.8845 14.8175C86.8845 14.0258 86.6314 13.3664 86.1339 12.869C85.6247 12.3598 85.0037 12.1038 84.2885 12.1038C83.5497 12.1038 82.9463 12.3539 82.4459 12.869C81.9456 13.3694 81.6924 14.0258 81.6924 14.8175C81.6924 15.6093 81.9426 16.2686 82.4401 16.766Z" fill="white"/>
<path fill-rule="evenodd" clip-rule="evenodd" d="M80.415 28.6924C77.6336 28.6924 75.379 30.8027 75.379 33.7137C75.379 36.5982 77.6483 38.735 80.415 38.735C83.1965 38.735 85.4511 36.6099 85.4511 33.7137C85.4511 30.8027 83.1965 28.6924 80.415 28.6924ZM80.415 36.7453C78.8933 36.7453 77.5835 35.4856 77.5835 33.7019C77.5835 31.8918 78.8963 30.6585 80.415 30.6585C81.9367 30.6585 83.2465 31.8918 83.2465 33.7019C83.2495 35.4974 81.9367 36.7453 80.415 36.7453ZM69.4275 28.6924C66.6461 28.6924 64.3915 30.8027 64.3915 33.7137C64.3915 36.5982 66.6608 38.735 69.4275 38.735C72.209 38.735 74.4636 36.6099 74.4636 33.7137C74.4636 30.8027 72.2061 28.6924 69.4275 28.6924ZM69.4275 36.7453C67.9058 36.7453 66.5961 35.4856 66.5961 33.7019C66.5961 31.8918 67.9088 30.6585 69.4275 30.6585C70.9493 30.6585 72.259 31.8918 72.259 33.7019C72.259 35.4974 70.9493 36.7453 69.4275 36.7453ZM56.3532 30.2258V32.3509H61.454C61.298 33.543 60.9036 34.423 60.3002 35.0264C59.5526 35.774 58.3988 36.5864 56.365 36.5864C53.2303 36.5864 50.7785 34.0551 50.7785 30.9205C50.7785 27.7858 53.2303 25.2545 56.365 25.2545C58.0574 25.2545 59.2907 25.9227 60.2061 26.7762L61.713 25.2693C60.4415 24.0507 58.7491 23.1177 56.3768 23.1177C52.0766 23.1177 48.468 26.6203 48.468 30.9087C48.468 35.2089 52.0736 38.6997 56.3768 38.6997C58.6991 38.6997 60.4415 37.9403 61.819 36.5099C63.223 35.1059 63.6674 33.125 63.6674 31.5268C63.6674 31.0294 63.6292 30.582 63.5497 30.2023H56.3503C56.3532 30.1994 56.3532 30.2258 56.3532 30.2258ZM109.831 31.88C109.41 30.7527 108.138 28.6806 105.531 28.6806C102.946 28.6806 100.798 30.7144 100.798 33.7019C100.798 36.5216 102.923 38.7233 105.781 38.7233C108.077 38.7233 109.413 37.3193 109.963 36.4952L108.259 35.3531C107.694 36.192 106.908 36.7424 105.793 36.7424C104.665 36.7424 103.876 36.2303 103.352 35.2207L110.066 32.4392C110.066 32.4422 109.831 31.88 109.831 31.88ZM102.985 33.5577C102.932 31.618 104.492 30.632 105.607 30.632C106.487 30.632 107.22 31.0647 107.47 31.6946L102.985 33.5577ZM97.5306 38.423H99.7351V23.671H97.5306V38.423ZM93.9103 29.8079H93.8308C93.3334 29.2163 92.3885 28.6806 91.1818 28.6806C88.677 28.6806 86.3694 30.8852 86.3694 33.7166C86.3694 36.5364 88.6652 38.7144 91.1818 38.7144C92.3738 38.7144 93.3334 38.1758 93.8308 37.5724H93.9103V38.2935C93.9103 40.2097 92.886 41.2428 91.2348 41.2428C89.8838 41.2428 89.0449 40.2715 88.7035 39.4591L86.7874 40.2597C87.3378 41.5842 88.8065 43.2236 91.2318 43.2236C93.8161 43.2236 96.0059 41.7019 96.0059 37.9904V28.9808H93.922V29.8079H93.9103ZM91.379 36.7453C89.8573 36.7453 88.5857 35.4738 88.5857 33.7166C88.5857 31.9448 89.8573 30.6615 91.379 30.6615C92.886 30.6615 94.0545 31.9595 94.0545 33.7166C94.0692 35.4738 92.8889 36.7453 91.379 36.7453ZM120.153 23.671H114.882V38.423H117.086V32.8366H120.156C122.596 32.8366 124.995 31.0676 124.995 28.2597C124.995 25.4517 122.605 23.671 120.153 23.671ZM120.218 30.7762H117.083V25.7137H120.218C121.869 25.7137 122.802 27.0765 122.802 28.245C122.802 29.4017 121.857 30.7762 120.218 30.7762ZM133.831 28.6659C132.23 28.6659 130.578 29.3752 129.896 30.9205L131.85 31.7328C132.271 30.9205 133.042 30.6438 133.857 30.6438C134.999 30.6438 136.153 31.3267 136.18 32.5452V32.7012C135.785 32.4775 134.92 32.1361 133.884 32.1361C131.773 32.1361 129.634 33.2899 129.634 35.4532C129.634 37.4341 131.364 38.7056 133.292 38.7056C134.773 38.7056 135.588 38.0375 136.097 37.2634H136.177V38.4054H138.302V32.7542C138.302 30.1228 136.347 28.6659 133.831 28.6659ZM133.554 36.7453C132.833 36.7453 131.823 36.3921 131.823 35.4856C131.823 34.3436 133.083 33.9109 134.157 33.9109C135.129 33.9109 135.588 34.1199 136.165 34.4083C136.006 35.7328 134.887 36.7336 133.554 36.7453ZM146.054 28.9808L143.523 35.3796H143.444L140.821 28.9808H138.449L142.384 37.9256L140.141 42.8969H142.437L148.492 28.9808H146.054ZM126.21 38.423H128.415V23.671H126.21V38.423Z" fill="white"/>
<path fill-rule="evenodd" clip-rule="evenodd" d="M12.3149 11.9066C11.9735 12.2745 11.7763 12.8367 11.7763 13.5726V39.6712C11.7763 40.407 11.9735 40.9692 12.3267 41.3224L12.418 41.4018L27.0405 26.7793V26.4526L12.4062 11.8271L12.3149 11.9066Z" fill="url(#paint0_linear)"/>
<path fill-rule="evenodd" clip-rule="evenodd" d="M31.9058 31.6679L27.0287 26.7908V26.4494L31.9058 21.5723L32.0118 21.637L37.7807 24.9159C39.4319 25.846 39.4319 27.3824 37.7807 28.3243L32.0118 31.6032L31.9058 31.6679Z" fill="url(#paint1_linear)"/>
<path fill-rule="evenodd" clip-rule="evenodd" d="M32.0118 31.6032L27.0287 26.6201L12.3149 41.3339C12.8536 41.9108 13.7572 41.9755 14.7667 41.4133L32.0118 31.6032Z" fill="url(#paint2_linear)"/>
<path fill-rule="evenodd" clip-rule="evenodd" d="M32.0118 21.6372L14.7667 11.8418C13.7572 11.2649 12.8506 11.3443 12.3149 11.9212L27.0287 26.6203L32.0118 21.6372Z" fill="url(#paint3_linear)"/>
<path opacity="0.2" fill-rule="evenodd" clip-rule="evenodd" d="M31.9058 31.4973L14.7785 41.228C13.8219 41.7784 12.9684 41.7401 12.418 41.2398L12.3267 41.331L12.418 41.4105C12.9684 41.9079 13.8219 41.9491 14.7785 41.3987L32.0236 31.6033L31.9058 31.4973Z" fill="black"/>
<path opacity="0.12" fill-rule="evenodd" clip-rule="evenodd" d="M37.7807 28.1536L31.8911 31.4972L31.9971 31.6032L37.766 28.3243C38.5931 27.8534 38.9993 27.2353 38.9993 26.6201C38.9492 27.1852 38.5283 27.7209 37.7807 28.1536Z" fill="black"/>
<path opacity="0.25" fill-rule="evenodd" clip-rule="evenodd" d="M14.7667 12.0122L37.7807 25.0866C38.5283 25.5075 38.9492 26.0579 39.014 26.62C39.014 26.0049 38.6078 25.3868 37.7807 24.9158L14.7667 11.8415C13.1155 10.8967 11.7763 11.6855 11.7763 13.5722V13.7429C11.7763 11.8533 13.1155 11.0792 14.7667 12.0122Z" fill="white"/>
<defs>
<linearGradient id="paint0_linear" x1="25.729" y1="13.2912" x2="2.30596" y2="19.5323" gradientUnits="userSpaceOnUse">
<stop stop-color="#00A0FF"/>
<stop offset="0.007" stop-color="#00A1FF"/>
<stop offset="0.26" stop-color="#00BEFF"/>
<stop offset="0.512" stop-color="#00D2FF"/>
<stop offset="0.76" stop-color="#00DFFF"/>
<stop offset="1" stop-color="#00E3FF"/>
</linearGradient>
<linearGradient id="paint1_linear" x1="39.9339" y1="26.62" x2="11.3749" y2="26.62" gradientUnits="userSpaceOnUse">
<stop stop-color="#FFE000"/>
<stop offset="0.409" stop-color="#FFBD00"/>
<stop offset="0.775" stop-color="#FFA500"/>
<stop offset="1" stop-color="#FF9C00"/>
</linearGradient>
<linearGradient id="paint2_linear" x1="29.302" y1="29.3318" x2="10.4984" y2="60.9796" gradientUnits="userSpaceOnUse">
<stop stop-color="#FF3A44"/>
<stop offset="1" stop-color="#C31162"/>
</linearGradient>
<linearGradient id="paint3_linear" x1="8.60997" y1="3.22556" x2="16.9989" y2="17.3602" gradientUnits="userSpaceOnUse">
<stop stop-color="#32A071"/>
<stop offset="0.069" stop-color="#2DA771"/>
<stop offset="0.476" stop-color="#15CF74"/>
<stop offset="0.801" stop-color="#06E775"/>
<stop offset="1" stop-color="#00F076"/>
</linearGradient>
</defs>
</svg>
