<svg width="160" height="54" viewBox="0 0 160 54" fill="none" xmlns="http://www.w3.org/2000/svg">
<g clip-path="url(#clip0)">
<path d="M147.259 0.14917H12.749C12.2583 0.14917 11.773 0.14917 11.2849 0.151844C10.8758 0.154518 10.4693 0.162541 10.0562 0.169226C9.15835 0.17903 8.26259 0.257253 7.37666 0.403215C6.49249 0.553244 5.63602 0.835877 4.83621 1.24156C4.03626 1.65118 3.30538 2.18355 2.67015 2.81931C2.0327 3.45218 1.50132 4.18357 1.09641 4.98538C0.690042 5.78608 0.408241 6.64411 0.260736 7.52984C0.111956 8.41459 0.0319381 9.30955 0.0213989 10.2067C0.00802816 10.6171 0.00802816 11.029 0.00134277 11.4381V42.3473C0.00802816 42.7618 0.00936524 43.1629 0.0213989 43.5788C0.0323747 44.4759 0.11284 45.3709 0.262073 46.2556C0.408627 47.1422 0.689996 48.0012 1.09641 48.8027C1.50171 49.6015 2.03361 50.3293 2.67149 50.9581C3.30359 51.596 4.03402 52.1282 4.83488 52.5345C5.63515 52.9411 6.49198 53.225 7.37666 53.3769C8.26267 53.5225 9.15834 53.6016 10.0562 53.6135C10.4707 53.6229 10.8758 53.6282 11.2849 53.6282C11.7743 53.6309 12.2583 53.6309 12.749 53.6309H147.259C147.74 53.6309 148.227 53.6309 148.708 53.6282C149.115 53.6282 149.533 53.6229 149.941 53.6149C150.837 53.6031 151.731 53.5236 152.615 53.3769C153.503 53.2239 154.362 52.94 155.166 52.5345C155.967 52.128 156.697 51.5958 157.329 50.9581C157.965 50.3261 158.499 49.5979 158.909 48.8001C159.313 47.998 159.592 47.1391 159.737 46.2529C159.885 45.368 159.968 44.4733 159.984 43.5761C159.989 43.1616 159.989 42.7605 159.989 42.3446C160 41.858 160 41.3753 160 40.8819V12.8995C160 12.4102 160 11.9235 159.989 11.4394C159.989 11.0303 159.989 10.6185 159.984 10.2093C159.968 9.31171 159.886 8.4165 159.737 7.53117C159.591 6.6459 159.311 5.78794 158.908 4.98671C158.083 3.37836 156.774 2.06905 155.166 1.2429C154.363 0.838129 153.503 0.55557 152.615 0.404552C151.731 0.257524 150.837 0.178849 149.941 0.169226C149.533 0.162541 149.115 0.154518 148.708 0.151844C148.227 0.14917 147.739 0.14917 147.259 0.14917V0.14917Z" fill="#A6A6A6"/>
<path d="M11.2916 52.462C10.8838 52.462 10.4867 52.4567 10.0829 52.4487C9.24518 52.4374 8.40945 52.3641 7.58256 52.2294C6.81219 52.0965 6.06593 51.8496 5.36836 51.4967C4.67694 51.1469 4.04626 50.6882 3.50047 50.1382C2.94701 49.5941 2.48631 48.9632 2.13665 48.2703C1.78241 47.5733 1.5371 46.8261 1.40928 46.0548C1.27195 45.2259 1.19775 44.3878 1.18732 43.5478C1.17796 43.267 1.16727 42.327 1.16727 42.327V11.4405C1.16727 11.4405 1.1793 10.5153 1.18732 10.2438C1.19729 9.40511 1.27104 8.56836 1.40794 7.74083C1.53578 6.96736 1.78107 6.21797 2.13531 5.51861C2.4839 4.8264 2.9422 4.19517 3.49244 3.64937C4.04192 3.0982 4.67448 2.63664 5.36703 2.28154C6.06316 1.92975 6.80821 1.68455 7.57721 1.55417C8.40668 1.41854 9.24515 1.34524 10.0856 1.33489L11.2916 1.31885H148.702L149.922 1.33623C150.755 1.34589 151.585 1.4183 152.407 1.55284C153.184 1.68483 153.937 1.93178 154.641 2.28555C156.029 3.00073 157.158 4.13216 157.87 5.52128C158.218 6.21595 158.459 6.95931 158.585 7.72612C158.724 8.56036 158.802 9.40362 158.818 10.2492C158.822 10.6276 158.822 11.0354 158.822 11.4392C158.833 11.9406 158.833 12.4179 158.833 12.8993V40.883C158.833 41.3683 158.833 41.843 158.822 42.3203C158.822 42.7549 158.822 43.1533 158.817 43.5638C158.801 44.3941 158.725 45.2222 158.589 46.0414C158.465 46.8183 158.221 47.5714 157.867 48.2743C157.515 48.9596 157.056 49.5851 156.509 50.1275C155.962 50.6806 155.33 51.142 154.637 51.494C153.935 51.8497 153.183 52.0977 152.407 52.2294C151.58 52.3643 150.745 52.4372 149.908 52.4473C149.516 52.4567 149.105 52.462 148.708 52.462L147.259 52.4647L11.2916 52.462Z" fill="black"/>
<path d="M33.1181 27.292C33.1326 26.1764 33.4291 25.0825 33.9798 24.1121C34.5306 23.1417 35.3178 22.3264 36.2682 21.7418C35.6644 20.8794 34.8678 20.1695 33.9417 19.6687C33.0157 19.1678 31.9856 18.8897 30.9333 18.8564C28.687 18.6211 26.5102 20.2002 25.3657 20.2002C24.1998 20.2002 22.4375 18.8792 20.5415 18.9193C19.3145 18.9589 18.1186 19.3157 17.0705 19.9549C16.0223 20.5942 15.1577 21.494 14.5608 22.5668C11.9749 27.0434 13.9043 33.6231 16.3805 37.2426C17.62 39.0142 19.0681 40.9931 20.964 40.9236C22.8186 40.846 23.5112 39.7402 25.7508 39.7402C27.9676 39.7402 28.6175 40.9236 30.5509 40.8794C32.5418 40.846 33.7946 39.0984 34.99 37.3094C35.8811 36.0471 36.567 34.6518 37.0223 33.1752C35.8658 32.6863 34.8788 31.8676 34.1845 30.8214C33.4902 29.7752 33.1193 28.5477 33.1181 27.292Z" fill="white"/>
<path d="M29.4652 16.4755C30.5503 15.1732 31.0851 13.4993 30.956 11.8091C29.298 11.9831 27.7664 12.7756 26.6667 14.0286C26.1291 14.6403 25.7173 15.3519 25.4549 16.1227C25.1924 16.8936 25.0844 17.7086 25.137 18.5212C25.9662 18.5298 26.7865 18.3501 27.5362 17.9958C28.2859 17.6414 28.9454 17.1216 29.4652 16.4755Z" fill="white"/>
<path d="M56.561 36.4376H50.234L48.7137 40.9249H46.0329L52.0283 24.321H54.8135L60.8076 40.9249H58.0813L56.561 36.4376ZM50.8878 34.3652H55.9045L53.4309 27.0834H53.3628L50.8878 34.3652Z" fill="white"/>
<path d="M73.7532 34.8741C73.7532 38.6353 71.7395 41.0514 68.7004 41.0514C67.931 41.0915 67.1658 40.9143 66.4924 40.54C65.819 40.1657 65.2645 39.6094 64.8924 38.9348H64.8349V44.9303H62.3479V28.8198H64.7546V30.8335H64.7988C65.188 30.1618 65.7519 29.6081 66.4307 29.2314C67.1095 28.8547 67.8777 28.669 68.6536 28.6941C71.7262 28.6941 73.7518 31.1223 73.7518 34.8741H73.7532ZM71.1993 34.8741C71.1993 32.4232 69.9318 30.8121 67.9997 30.8121C66.1011 30.8121 64.8242 32.4567 64.8242 34.8741C64.8242 37.3129 66.1011 38.9468 67.9997 38.9468C69.9318 38.9468 71.1993 37.3464 71.1993 34.8741Z" fill="white"/>
<path d="M87.0771 34.8741C87.0771 38.6353 85.0635 41.0514 82.0243 41.0514C81.2549 41.0915 80.4898 40.9143 79.8164 40.54C79.1429 40.1657 78.5885 39.6094 78.2163 38.9348H78.1588V44.9303H75.6732V28.8198H78.0786V30.8335H78.1241C78.5133 30.1618 79.0772 29.6081 79.756 29.2314C80.4348 28.8547 81.203 28.669 81.9789 28.6941C85.0515 28.6941 87.0771 31.1223 87.0771 34.8741ZM84.5233 34.8741C84.5233 32.4232 83.2558 30.8121 81.3237 30.8121C79.4251 30.8121 78.1481 32.4567 78.1481 34.8741C78.1481 37.3129 79.4251 38.9468 81.3237 38.9468C83.2558 38.9468 84.522 37.3464 84.522 34.8741H84.5233Z" fill="white"/>
<path d="M95.8818 36.2992C96.0663 37.9465 97.6655 39.0269 99.8529 39.0269C101.947 39.0269 103.454 37.9465 103.454 36.461C103.454 35.1721 102.544 34.4019 100.392 33.8724L98.2404 33.3537C95.1919 32.6183 93.7759 31.1916 93.7759 28.8771C93.7759 26.0131 96.2722 24.0449 99.8182 24.0449C103.327 24.0449 105.732 26.0131 105.812 28.8771H103.304C103.154 27.2205 101.785 26.2203 99.7821 26.2203C97.7791 26.2203 96.4113 27.2325 96.4113 28.7046C96.4113 29.8786 97.2857 30.5699 99.4264 31.098L101.256 31.5473C104.662 32.3535 106.077 33.7213 106.077 36.1508C106.077 39.2568 103.603 41.2023 99.6684 41.2023C95.9861 41.2023 93.4991 39.3036 93.3387 36.2992H95.8818Z" fill="white"/>
<path d="M111.44 25.9556V28.8196H113.742V30.7878H111.44V37.4611C111.44 38.4987 111.901 38.9814 112.913 38.9814C113.187 38.9766 113.459 38.9574 113.73 38.9239V40.88C113.276 40.965 112.813 41.0036 112.351 40.995C109.9 40.995 108.944 40.0738 108.944 37.7259V30.7878H107.184V28.8196H108.944V25.9556H111.44Z" fill="white"/>
<path d="M115.076 34.8736C115.076 31.0643 117.319 28.6709 120.817 28.6709C124.327 28.6709 126.56 31.0643 126.56 34.8736C126.56 38.6923 124.339 41.075 120.817 41.075C117.296 41.075 115.076 38.6923 115.076 34.8736ZM124.027 34.8736C124.027 32.261 122.831 30.718 120.817 30.718C118.803 30.718 117.608 32.2716 117.608 34.8736C117.608 37.4969 118.803 39.0266 120.817 39.0266C122.831 39.0266 124.027 37.4969 124.027 34.8736Z" fill="white"/>
<path d="M128.608 28.8196H130.979V30.8801H131.036C131.197 30.237 131.574 29.6687 132.104 29.2707C132.634 28.8726 133.285 28.669 133.947 28.6939C134.234 28.6928 134.519 28.7237 134.799 28.7862V31.11C134.437 30.9997 134.06 30.9491 133.682 30.9603C133.321 30.9456 132.961 31.0093 132.627 31.1468C132.293 31.2844 131.993 31.4926 131.747 31.7572C131.501 32.0218 131.315 32.3365 131.202 32.6797C131.089 33.0229 131.052 33.3864 131.092 33.7454V40.9255H128.608V28.8196Z" fill="white"/>
<path d="M146.255 37.3699C145.921 39.5667 143.781 41.075 141.043 41.075C137.521 41.075 135.335 38.7164 135.335 34.9311C135.335 31.1338 137.533 28.6709 140.937 28.6709C144.288 28.6709 146.393 30.9707 146.393 34.6423V35.494H137.843V35.6438C137.804 36.0893 137.86 36.5381 138.007 36.9603C138.155 37.3826 138.39 37.7687 138.698 38.0929C139.006 38.4172 139.38 38.6722 139.794 38.841C140.208 39.0098 140.653 39.0886 141.1 39.072C141.687 39.1269 142.276 38.9909 142.78 38.6843C143.283 38.3776 143.674 37.9166 143.895 37.3699H146.255ZM137.855 33.7571H143.907C143.929 33.3566 143.869 32.9558 143.729 32.5798C143.589 32.2038 143.373 31.8608 143.094 31.5723C142.815 31.2838 142.48 31.056 142.109 30.9032C141.738 30.7504 141.34 30.676 140.939 30.6845C140.534 30.6821 140.133 30.7598 139.758 30.9132C139.384 31.0666 139.043 31.2926 138.757 31.5783C138.47 31.864 138.243 32.2036 138.088 32.5776C137.933 32.9515 137.854 33.3524 137.855 33.7571Z" fill="white"/>
<path d="M50.5763 11.8233C51.0973 11.7859 51.6201 11.8646 52.1069 12.0537C52.5938 12.2428 53.0327 12.5376 53.3918 12.9169C53.751 13.2961 54.0215 13.7503 54.1839 14.2468C54.3463 14.7432 54.3964 15.2695 54.3308 15.7877C54.3308 18.3362 52.9536 19.8016 50.5763 19.8016H47.6949V11.8219L50.5763 11.8233ZM48.9344 18.6731H50.4386C50.8107 18.6952 51.1831 18.634 51.5287 18.494C51.8742 18.3541 52.1842 18.1389 52.4361 17.864C52.688 17.5892 52.8755 17.2617 52.9849 16.9053C53.0943 16.5489 53.1229 16.1726 53.0686 15.8037C53.119 15.4363 53.0876 15.0623 52.9766 14.7085C52.8655 14.3547 52.6776 14.0298 52.4262 13.7571C52.1749 13.4844 51.8663 13.2707 51.5227 13.1312C51.1791 12.9918 50.8089 12.93 50.4386 12.9504H48.9344V18.6731Z" fill="white"/>
<path d="M55.7294 16.7885C55.693 16.3936 55.7394 15.9954 55.8655 15.6194C55.9917 15.2434 56.1949 14.8979 56.4622 14.6049C56.7294 14.3119 57.0549 14.0778 57.4177 13.9177C57.7805 13.7575 58.1727 13.6748 58.5693 13.6748C58.9659 13.6748 59.3582 13.7575 59.721 13.9177C60.0838 14.0778 60.4092 14.3119 60.6765 14.6049C60.9437 14.8979 61.147 15.2434 61.2731 15.6194C61.3993 15.9954 61.4457 16.3936 61.4093 16.7885C61.4488 17.1851 61.4047 17.5855 61.28 17.9641C61.1553 18.3426 60.9527 18.6908 60.6852 18.9863C60.4177 19.2817 60.0913 19.5178 59.727 19.6794C59.3627 19.841 58.9685 19.9245 58.57 19.9245C58.1715 19.9245 57.7773 19.841 57.413 19.6794C57.0487 19.5178 56.7223 19.2817 56.4548 18.9863C56.1873 18.6908 55.9847 18.3426 55.86 17.9641C55.7353 17.5855 55.6912 17.1851 55.7307 16.7885H55.7294ZM60.1872 16.7885C60.1872 15.4835 59.6002 14.72 58.572 14.72C57.5384 14.72 56.9582 15.4835 56.9582 16.7885C56.9582 18.1042 57.5384 18.861 58.572 18.861C59.6016 18.861 60.1872 18.0988 60.1872 16.7885Z" fill="white"/>
<path d="M68.9571 19.8021H67.7243L66.4808 15.367H66.3872L65.1478 19.8021H63.927L62.2664 13.7812H63.4724L64.5501 18.3754H64.6397L65.8778 13.7812H67.017L68.2551 18.3754H68.3487L69.4224 13.7812H70.6111L68.9571 19.8021Z" fill="white"/>
<path d="M72.0069 13.7812H73.1501V14.7372H73.2384C73.3891 14.3937 73.6432 14.1058 73.9653 13.9136C74.2875 13.7213 74.6615 13.6344 75.0354 13.6649C75.3284 13.6429 75.6226 13.6871 75.8962 13.7942C76.1698 13.9013 76.4158 14.0686 76.616 14.2837C76.8162 14.4987 76.9654 14.7561 77.0526 15.0367C77.1399 15.3172 77.1629 15.6138 77.1199 15.9045V19.8021H75.9313V16.2027C75.9313 15.2346 75.5114 14.7533 74.6316 14.7533C74.4328 14.7441 74.2342 14.778 74.0497 14.8526C73.8652 14.9273 73.6989 15.041 73.5624 15.1859C73.4259 15.3308 73.3223 15.5034 73.2588 15.6921C73.1952 15.8808 73.1732 16.0809 73.1943 16.2789V19.8021H72.0069V13.7812Z" fill="white"/>
<path d="M79.0132 11.4309H80.2006V19.801H79.0132V11.4309Z" fill="white"/>
<path d="M81.8532 16.7891C81.8157 16.3936 81.8613 15.9947 81.987 15.618C82.1126 15.2412 82.3156 14.8948 82.5829 14.601C82.8502 14.3072 83.1759 14.0724 83.5392 13.9118C83.9025 13.7512 84.2953 13.6682 84.6925 13.6682C85.0897 13.6682 85.4825 13.7512 85.8458 13.9118C86.209 14.0724 86.5347 14.3072 86.802 14.601C87.0693 14.8948 87.2723 15.2412 87.398 15.618C87.5236 15.9947 87.5692 16.3936 87.5317 16.7891C87.5712 17.1857 87.5272 17.5861 87.4025 17.9646C87.2778 18.3432 87.0752 18.6914 86.8077 18.9868C86.5402 19.2823 86.2138 19.5184 85.8494 19.68C85.4851 19.8416 85.091 19.9251 84.6925 19.9251C84.2939 19.9251 83.8998 19.8416 83.5355 19.68C83.1712 19.5184 82.8448 19.2823 82.5773 18.9868C82.3098 18.6914 82.1072 18.3432 81.9824 17.9646C81.8577 17.5861 81.8137 17.1857 81.8532 16.7891ZM86.3097 16.7891C86.3097 15.4841 85.7227 14.7206 84.6945 14.7206C83.6609 14.7206 83.0806 15.4841 83.0806 16.7891C83.0806 18.1048 83.6609 18.8615 84.6945 18.8615C85.724 18.8615 86.3097 18.0994 86.3097 16.7891Z" fill="white"/>
<path d="M88.7819 18.0991C88.7819 17.0161 89.5895 16.3904 91.0229 16.3021L92.6541 16.2085V15.6884C92.6541 15.0533 92.2329 14.6936 91.4213 14.6936C90.7568 14.6936 90.2982 14.937 90.1658 15.3621H89.0159C89.1362 14.3286 90.1096 13.6641 91.4761 13.6641C92.9844 13.6641 93.8361 14.4168 93.8361 15.6884V19.8026H92.6929V18.9562H92.5993C92.4084 19.2598 92.1403 19.5073 91.8225 19.6734C91.5047 19.8395 91.1484 19.9182 90.7902 19.9015C90.5374 19.9279 90.2819 19.9009 90.0401 19.8225C89.7984 19.744 89.5758 19.6157 89.3867 19.4458C89.1975 19.276 89.0461 19.0684 88.9422 18.8364C88.8383 18.6045 88.7841 18.3533 88.7833 18.0991H88.7819ZM92.6528 17.5857V17.0816L91.182 17.1752C90.353 17.2314 89.9786 17.5135 89.9786 18.0443C89.9786 18.5858 90.4479 18.9001 91.0937 18.9001C91.283 18.9191 91.4741 18.9 91.6558 18.8438C91.8375 18.7876 92.0061 18.6955 92.1515 18.5729C92.2969 18.4503 92.4162 18.2998 92.5023 18.1302C92.5884 17.9606 92.6396 17.7754 92.6528 17.5857Z" fill="white"/>
<path d="M95.3978 16.7886C95.3978 14.8859 96.3765 13.6812 97.8981 13.6812C98.2742 13.6641 98.6474 13.7543 98.9741 13.9414C99.3008 14.1284 99.5676 14.4045 99.7433 14.7375H99.8329V11.4309H101.02V19.801H99.8823V18.8517H99.7887C99.5992 19.1826 99.3227 19.4554 98.9892 19.6404C98.6557 19.8254 98.2779 19.9156 97.8968 19.9013C96.3658 19.9013 95.3978 18.6966 95.3978 16.7886ZM96.6252 16.7886C96.6252 18.0655 97.2269 18.8343 98.2337 18.8343C99.2365 18.8343 99.8542 18.0548 99.8542 16.7939C99.8542 15.5397 99.2285 14.7482 98.2337 14.7482C97.2336 14.7482 96.6252 15.5237 96.6252 16.7886Z" fill="white"/>
<path d="M105.937 16.7891C105.899 16.3936 105.945 15.9947 106.07 15.618C106.196 15.2412 106.399 14.8948 106.666 14.601C106.934 14.3072 107.259 14.0724 107.623 13.9118C107.986 13.7512 108.379 13.6682 108.776 13.6682C109.173 13.6682 109.566 13.7512 109.929 13.9118C110.292 14.0724 110.618 14.3072 110.885 14.601C111.153 14.8948 111.356 15.2412 111.481 15.618C111.607 15.9947 111.653 16.3936 111.615 16.7891C111.655 17.1857 111.611 17.5861 111.486 17.9646C111.361 18.3432 111.159 18.6914 110.891 18.9868C110.624 19.2823 110.297 19.5184 109.933 19.68C109.569 19.8416 109.174 19.9251 108.776 19.9251C108.377 19.9251 107.983 19.8416 107.619 19.68C107.255 19.5184 106.928 19.2823 106.661 18.9868C106.393 18.6914 106.191 18.3432 106.066 17.9646C105.941 17.5861 105.897 17.1857 105.937 16.7891ZM110.393 16.7891C110.393 15.4841 109.807 14.7206 108.778 14.7206C107.746 14.7206 107.164 15.4841 107.164 16.7891C107.164 18.1048 107.746 18.8615 108.778 18.8615C109.807 18.8615 110.393 18.0994 110.393 16.7891Z" fill="white"/>
<path d="M113.21 13.7812H114.354V14.7372H114.442C114.592 14.3937 114.847 14.1058 115.169 13.9136C115.491 13.7213 115.865 13.6344 116.239 13.6649C116.532 13.6429 116.826 13.6871 117.1 13.7942C117.373 13.9013 117.619 14.0686 117.819 14.2837C118.02 14.4987 118.169 14.7561 118.256 15.0367C118.343 15.3172 118.366 15.6138 118.323 15.9045V19.8021H117.135V16.2027C117.135 15.2346 116.715 14.7533 115.835 14.7533C115.636 14.7441 115.438 14.778 115.253 14.8526C115.069 14.9273 114.902 15.041 114.766 15.1859C114.629 15.3308 114.526 15.5034 114.462 15.6921C114.399 15.8808 114.377 16.0809 114.398 16.2789V19.8021H113.209L113.21 13.7812Z" fill="white"/>
<path d="M125.037 12.283V13.8086H126.342V14.81H125.037V17.9054C125.037 18.5365 125.296 18.8132 125.888 18.8132C126.04 18.8125 126.191 18.8032 126.342 18.7852V19.7746C126.128 19.8131 125.912 19.8337 125.695 19.8361C124.374 19.8361 123.848 19.3708 123.848 18.2102V14.81H122.892V13.8086H123.848V12.283H125.037Z" fill="white"/>
<path d="M127.965 11.4309H129.142V14.7482H129.235C129.393 14.4014 129.655 14.1119 129.983 13.9191C130.312 13.7262 130.692 13.6394 131.072 13.6705C131.364 13.6547 131.655 13.7034 131.925 13.8132C132.196 13.9229 132.439 14.091 132.637 14.3055C132.835 14.5199 132.983 14.7754 133.071 15.0537C133.158 15.332 133.184 15.6262 133.145 15.9155V19.8023H131.956V16.2083C131.956 15.2456 131.508 14.7589 130.669 14.7589C130.464 14.7421 130.259 14.7702 130.066 14.8411C129.874 14.9121 129.7 15.0242 129.555 15.1697C129.411 15.3151 129.3 15.4904 129.23 15.6832C129.161 15.876 129.134 16.0817 129.152 16.2858V19.8023H127.965V11.4309Z" fill="white"/>
<path d="M140.074 18.1769C139.912 18.727 139.563 19.2028 139.086 19.5213C138.61 19.8397 138.036 19.9806 137.466 19.9191C137.069 19.9299 136.675 19.8541 136.31 19.697C135.946 19.5399 135.62 19.3052 135.355 19.0094C135.09 18.7136 134.893 18.3636 134.777 17.9839C134.661 17.6041 134.629 17.2037 134.684 16.8104C134.631 16.4162 134.664 16.0153 134.779 15.6348C134.895 15.2543 135.091 14.9031 135.354 14.6049C135.618 14.3067 135.942 14.0686 136.305 13.9065C136.668 13.7445 137.062 13.6623 137.46 13.6656C139.135 13.6656 140.146 14.8102 140.146 16.7008V17.1153H135.894V17.1821C135.875 17.4032 135.903 17.6257 135.975 17.8354C136.048 18.045 136.163 18.2373 136.314 18.3997C136.465 18.5621 136.649 18.6911 136.853 18.7785C137.057 18.8659 137.277 18.9096 137.498 18.907C137.782 18.9406 138.07 18.8892 138.325 18.7592C138.579 18.6292 138.79 18.4266 138.929 18.1769H140.074ZM135.894 16.2368H138.936C138.951 16.0346 138.924 15.8315 138.855 15.6405C138.787 15.4494 138.68 15.2748 138.54 15.1278C138.401 14.9808 138.232 14.8647 138.044 14.787C137.857 14.7092 137.656 14.6716 137.453 14.6765C137.247 14.6739 137.043 14.7126 136.853 14.7901C136.663 14.8677 136.49 14.9825 136.344 15.128C136.199 15.2734 136.084 15.4464 136.007 15.6368C135.93 15.8273 135.891 16.0313 135.894 16.2368Z" fill="white"/>
</g>
<defs>
<clipPath id="clip0">
<rect width="160" height="53.7815" fill="white"/>
</clipPath>
</defs>
</svg>
